<?xml version="1.0" encoding="UTF-8"?>
<svg id="Layer_2" data-name="Layer 2" xmlns="http://www.w3.org/2000/svg" width="381.53" height="250" viewBox="0 0 381.53 250">
  <defs>
    <style>
      .cls-1 {
        fill: #eb9481;
      }

      .cls-1, .cls-2, .cls-3, .cls-4, .cls-5, .cls-6, .cls-7, .cls-8, .cls-9, .cls-10, .cls-11, .cls-12, .cls-13 {
        stroke-width: 0px;
      }

      .cls-2 {
        fill: #00b2e3;
      }

      .cls-4 {
        fill: #37474f;
      }

      .cls-14, .cls-15 {
        fill: none;
        stroke: #263238;
        stroke-miterlimit: 10;
        stroke-width: .62px;
      }

      .cls-5 {
        fill: #c7c7c7;
      }

      .cls-6 {
        fill: #fff;
      }

      .cls-7 {
        fill: #ff99ba;
      }

      .cls-15 {
        stroke-dasharray: 0 0 0 0 0 0 2.5 2.5;
      }

      .cls-8 {
        fill: #263238;
      }

      .cls-9 {
        fill: #82898e;
        opacity: .2;
      }

      .cls-10 {
        fill: #a6a6a6;
      }

      .cls-16 {
        opacity: .1;
      }

      .cls-11 {
        fill: #dbdbdb;
      }

      .cls-12 {
        fill: #ebebeb;
      }

      .cls-13 {
        fill: #455a64;
      }
    </style>
  </defs>
  <g id="Layer_2-2" data-name="Layer 2">
    <g id="Speech_Bubble" data-name="Speech Bubble">
      <g>
        <g>
          <polygon class="cls-12" points="374.92 58.94 368.95 87.84 365.12 84.09 358.58 88.75 353.59 82.55 342.39 90.7 332.82 74.69 322.14 80.94 317.91 75.11 304.36 82.74 300.28 74.01 309.78 27.99 360.72 38.51 374.92 58.94"/>
          <polygon class="cls-11" points="360.72 38.51 374.92 58.94 357.26 55.29 360.72 38.51"/>
          <polygon class="cls-12" points="367.69 93.61 358.93 136.01 290.32 121.84 299.01 79.79 303.09 88.52 316.64 80.88 320.88 86.72 331.55 80.47 341.12 96.47 352.32 88.33 357.31 94.53 363.85 89.87 367.69 93.61"/>
        </g>
        <g>
          <polygon class="cls-12" points="269.48 88.64 199.56 92.97 194.01 3.21 245.92 0 264.99 15.99 269.48 88.64"/>
          <polygon class="cls-11" points="245.92 0 264.99 15.99 246.98 17.1 245.92 0"/>
          <path class="cls-11" d="m226.54,60.39l-.27-2.02c-.71-4.2.44-8.89,4.09-13.8,3.29-4.34,5.07-7.5,4.87-11.02-.22-3.99-2.87-6.51-7.81-6.31-2.82.16-5.89,1.27-7.76,2.87l-2.15-4.82c2.48-2.02,6.86-3.52,11.01-3.75,8.99-.5,13.37,4.82,13.7,10.76.3,5.32-2.46,9.32-5.96,13.98-3.21,4.26-4.27,7.77-3.81,11.74l.19,2.03-6.1.34h0Zm-1.11,11.04c-.16-2.89,1.68-5.04,4.42-5.19s4.73,1.77,4.89,4.67c.15,2.74-1.53,4.95-4.42,5.11-2.74.15-4.73-1.85-4.89-4.59Z"/>
        </g>
        <g>
          <path class="cls-12" d="m51.67,45.13l-7.04-3.19-.98,2.15c-.29.63-.91,1.04-1.6,1.07-.38.02-.77.05-1.15.11-.69.1-1.37-.17-1.78-.74l-1.38-1.92-6.28,4.5,1.38,1.92c.4.56.44,1.3.13,1.92-.18.34-.34.69-.48,1.05-.25.65-.84,1.11-1.53,1.17l-2.35.23.76,7.69,2.36-.24c.69-.07,1.35.28,1.72.86.1.16.21.32.32.47s.23.31.34.45c.43.54.55,1.27.26,1.9l-.98,2.17,7.04,3.19.98-2.16c.29-.63.91-1.04,1.61-1.07.38-.02.77-.05,1.15-.11.69-.1,1.37.17,1.77.74l1.38,1.92,6.28-4.5-1.38-1.92c-.4-.56-.44-1.3-.13-1.92.18-.34.33-.69.47-1.05.25-.65.83-1.11,1.53-1.18l2.36-.23-.76-7.69-2.36.23c-.69.07-1.34-.28-1.72-.86-.1-.16-.21-.32-.32-.47s-.23-.31-.34-.45c-.43-.54-.55-1.28-.26-1.91l.98-2.16v.03Zm-3.99,7.11c2.04,2.84,1.38,6.79-1.46,8.83-2.84,2.04-6.8,1.39-8.83-1.45-2.04-2.84-1.38-6.8,1.46-8.84s6.79-1.38,8.83,1.46Z"/>
          <path class="cls-12" d="m369.58,147.13l-4.69,2.71.83,1.43c.24.42.22.94-.05,1.35-.15.23-.28.46-.41.7-.22.43-.66.71-1.14.71h-1.66v5.41h1.66c.49,0,.92.28,1.14.71.12.24.26.48.41.7.27.41.29.93.05,1.35l-.83,1.43,4.69,2.71.83-1.44c.24-.42.71-.66,1.19-.63h.8c.48-.03.95.21,1.19.63l.83,1.45,4.69-2.71-.83-1.44c-.24-.42-.22-.94.05-1.35.15-.22.28-.46.4-.7.22-.43.66-.71,1.14-.71h1.66v-5.41h-1.66c-.49,0-.92-.28-1.14-.71-.12-.24-.26-.47-.4-.7-.27-.41-.29-.93-.05-1.35l.83-1.44-4.69-2.71-.83,1.44c-.24.42-.71.65-1.19.63-.13,0-.27,0-.4,0s-.27,0-.4,0c-.49.03-.95-.21-1.19-.63l-.83-1.44h0Zm2.42,5.18c2.45,0,4.43,1.98,4.43,4.43s-1.98,4.44-4.43,4.44-4.44-1.99-4.44-4.44,1.99-4.43,4.44-4.43Z"/>
          <path class="cls-12" d="m65.9,22.09l-4.3,3.29,1.01,1.32c.3.39.34.9.13,1.34-.12.24-.22.49-.31.75-.16.46-.56.79-1.04.85l-1.64.21.7,5.37,1.64-.21c.48-.06.95.16,1.23.56.15.22.32.44.49.64.32.37.41.88.22,1.33l-.64,1.53,5,2.08.64-1.54c.19-.45.62-.74,1.1-.78.13,0,.26-.02.4-.04.13-.02.26-.04.39-.06.48-.09.97.08,1.26.47l1.01,1.33,4.3-3.29-1.01-1.32c-.3-.39-.34-.91-.13-1.34.12-.24.22-.49.31-.74.16-.46.56-.79,1.04-.85l1.64-.21-.7-5.37-1.64.21c-.48.06-.95-.16-1.23-.56-.15-.22-.32-.44-.49-.64-.32-.37-.41-.88-.22-1.33l.64-1.53-5-2.08-.64,1.53c-.19.45-.62.74-1.1.78-.13.01-.27.02-.4.04-.13.02-.26.04-.39.06-.48.09-.97-.08-1.27-.47l-1.01-1.32h0Zm3.07,4.82c2.43-.32,4.65,1.39,4.97,3.82s-1.39,4.65-3.82,4.97-4.66-1.4-4.97-3.83c-.32-2.43,1.4-4.65,3.83-4.97h-.01Z"/>
        </g>
        <g>
          <g>
            <path class="cls-12" d="m33.8,162.76c.25-6.03.15-12.08-.25-18.1-.82-12.43-2.86-24.76-5.67-36.88-1.58-6.82-3.53-13.53-5.56-20.24-.06-.2-.38-.15-.33.07,6.27,23.63,11.42,48.01,11.07,72.57-.1,6.87-.89,13.62-1.55,20.46-.02.18.28.26.32.07,1.3-5.85,1.72-11.97,1.96-17.94h0Z"/>
            <path class="cls-12" d="m22,87.6s-9.51,24.13-7.38,29.8,6.52,6.88,6.52,6.88c0,0-5.82,8.3-1.75,16.09,4.06,7.79,13.09,7.42,13.69,16.25,0,0,.5-36.92-11.08-69.02Z"/>
            <path class="cls-6" d="m32.04,141.38v-.13c-1.33-16.41-4.25-32.76-9.22-48.54-.01-.05-.09-.03-.08.02,1.88,7.06,3.56,14.15,4.99,21.29-1.23-1.27-2.85-2-4.54-2.53-.03,0-.05.04-.02.05,1.76.76,3.44,1.64,4.69,3.13.28,1.4.55,2.8.81,4.2-2.12-2.37-5.07-3.55-8.02-4.67-.04-.02-.06.05-.02.06,3.07,1.25,6.13,2.86,8.21,5.51.73,4,1.36,8.02,1.91,12.05-1.55-1.62-3.47-2.71-5.67-3.25-.07-.02-.1.08-.04.1,2.26.65,4.2,1.91,5.75,3.68.01,0,.02.02.04.03.19,1.42.37,2.84.54,4.26-1.2-1.02-2.52-1.8-3.97-2.4-.04-.02-.06.04-.02.06,1.48.63,2.81,1.54,3.98,2.63.02.02.03,0,.05.02.16,1.35.32,2.7.45,4.06-2.18-2.63-4.87-4.53-8.06-5.76-.06-.02-.09.07-.03.1,3.1,1.35,5.83,3.48,7.95,6.11.06.07.13.08.2.06.21,2.08.39,4.16.54,6.24,0,.03.05.03.05,0-.12-2.13-.27-4.26-.44-6.39h-.03Z"/>
            <path class="cls-6" d="m24.41,109.09c-1.65-1.13-3.74-1.62-5.71-1.78-.05,0-.05.07,0,.07,2.05.3,3.77,1.04,5.65,1.84.08.03.14-.09.07-.14h0Z"/>
            <path class="cls-6" d="m25.56,134.64c-1.3-.78-2.79-1.23-4.29-1.47-.05,0-.06.07,0,.08,1.52.27,2.86.82,4.24,1.49.06.03.11-.07.05-.1Z"/>
          </g>
          <g>
            <path class="cls-12" d="m58.79,117.79c-3.96,2.79-7.77,6-11,9.62-3.45,3.85-5.96,8.23-7.72,13.09-3.6,9.95-5.57,20.72-5.75,31.3-.1,5.93.43,11.81,1.69,17.6.05.21.36.15.33-.06-1.55-10.19-1.49-20.59.17-30.76,1.63-9.98,4.2-20.84,10.54-28.95,3.45-4.42,7.76-7.89,12.02-11.48.22-.19-.06-.5-.29-.34v-.02Z"/>
            <path class="cls-12" d="m35.72,164.61s3.26-5.5,8.02-10.25c4.76-4.75,8.76-8.13,9.38-11.28.62-3.14-4.76-5.46-4.76-5.46,0,0,6.58,1.18,8.38-1.58s2.67-18.76,2.67-18.76c0,0-11.97,8.55-17.55,20.53-5.58,11.98-6.14,26.8-6.14,26.8Z"/>
            <path class="cls-6" d="m55.27,121.38c-5.04,4.95-10.11,10.22-13.07,16.72-1.02,2.23-1.88,4.54-2.64,6.89h0c-.15.48-.31.95-.45,1.43,0,.02-.02.05-.02.08-1.47,4.85-2.5,9.87-3.4,14.78,0,.03.04.05.05.02.52-2.5,1.08-5.02,1.72-7.53.02,0,.05,0,.07,0,1.02-.43,2.04-.7,3.14-.8.07,0,.07-.13,0-.13-1.06.05-2.1.24-3.11.57.58-2.27,1.21-4.52,1.92-6.75,2.31-.57,4.72-.87,7.1-.93.02,0,.03-.04,0-.04-2.4-.11-4.65.1-6.98.59.12-.38.25-.76.38-1.14,1.56-.36,3.13-.65,4.72-.8.03,0,.03-.05,0-.05-1.56.04-3.1.21-4.63.56.65-1.93,1.36-3.83,2.14-5.68.65-1.53,1.41-2.99,2.26-4.39,1.28-.29,2.52-.57,3.83-.68.04,0,.03-.06,0-.06-1.19-.08-2.43,0-3.58.35.63-1.02,1.29-2.01,2-2.98h0c2.68-.59,5.41-1.15,8.15-.63.05,0,.06-.07.02-.08-2.61-.69-5.21-.29-7.81.22.28-.38.57-.75.87-1.12,1.65-.51,3.29-.76,5.02-.79.04,0,.04-.05,0-.06-1.58-.15-3.15,0-4.68.42,2.22-2.76,4.67-5.35,7.09-7.91.11-.12.03-.19-.09-.07h-.02Z"/>
            <path class="cls-6" d="m55.13,132.28c-.79-.08-1.59-.17-2.38-.08-.1,0-.09.17,0,.17.79.02,1.58-.04,2.36,0,.06,0,.07-.09,0-.09h.02Z"/>
            <path class="cls-6" d="m46.52,147.8c-1.26-.02-2.51.32-3.69.74-.03,0,0,.06.02.05,1.22-.29,2.45-.41,3.68-.61.1-.02.1-.18,0-.18h-.01Z"/>
            <path class="cls-6" d="m43.93,142.44c-.51-.03-1.06.06-1.57.14-.05,0-.05.09,0,.09.51,0,1.07.02,1.57-.07.09-.02.08-.16,0-.16h0Z"/>
          </g>
          <g>
            <path class="cls-12" d="m.63,134.77c3.85,1.34,7.67,3.06,11.13,5.24,3.68,2.32,6.73,5.28,9.27,8.81,5.21,7.22,9.3,15.48,11.89,24,1.45,4.77,2.38,9.65,2.7,14.63,0,.18-.26.21-.28.03-1.1-8.61-3.55-17.01-7.25-24.86-3.63-7.7-8.21-15.89-15.22-20.99-3.82-2.78-8.11-4.59-12.38-6.51-.22-.1-.06-.42.16-.34h-.02Z"/>
            <path class="cls-12" d="m30.12,167.32s-3.91-3.69-8.86-6.44-8.97-4.56-10.2-6.96c-1.23-2.4,2.59-5.52,2.59-5.52,0,0-5.05,2.48-7.15.66-2.1-1.82-6.5-14.56-6.5-14.56,0,0,11.66,4.15,18.95,12.56,7.28,8.41,11.16,20.27,11.16,20.27h.01Z"/>
            <path class="cls-6" d="m29.51,164.69c-5.83-10.95-13.62-20.86-24.28-27.39h0c2.81,1.79,5.4,3.85,7.81,6.11-2.16-.06-4.36.28-6.27,1.32-.04.02-.01.08.03.07,2.13-.72,4.18-1.2,6.45-1.09.03,0,.05,0,.07-.03.38.36.75.72,1.12,1.09-1.12.05-2.26.21-3.35.44-.03,0-.02.05,0,.05,1.18-.23,2.34-.31,3.54-.29,1.95,1.96,3.78,4.07,5.5,6.25-.78-.11-1.6-.05-2.34.17-.06.02-.04.1.02.09.85-.11,1.66-.09,2.5-.03.32.41.64.81.95,1.22-2.4-.14-4.75.09-7.08.69-.03,0-.02.06.01.05,2.4-.47,4.83-.62,7.27-.47.3.39.58.8.87,1.2-1.43-.04-2.82.14-4.21.48-.05,0-.04.1.02.08,1.44-.33,2.89-.41,4.36-.34,1.25,1.73,2.46,3.5,3.61,5.29-.61-.13-1.25-.06-1.85.11-.03,0-.02.05,0,.05.69-.08,1.33,0,2,.09,1.04,1.62,2.04,3.25,3.01,4.89.08.14.31.04.23-.11h0Z"/>
            <path class="cls-6" d="m20.43,155.61c-1.14-.1-2.3.08-3.39.41-.03,0-.02.06,0,.05,1.12-.21,2.23-.28,3.37-.35.07,0,.09-.11,0-.12h.02Z"/>
            <path class="cls-6" d="m10.26,142.27c-.52-.06-1.05,0-1.56.09-.06,0-.04.1.02.09.51-.05,1.02-.04,1.53-.05.08,0,.1-.12.01-.13h0Z"/>
          </g>
          <g>
            <g>
              <polygon class="cls-11" points="45.16 203.53 18.83 203.53 22.59 176.03 23.55 168.98 40.45 168.98 41.41 176.03 45.16 203.53"/>
              <polygon class="cls-5" points="41.41 176.03 22.59 176.03 23.55 168.98 40.45 168.98 41.41 176.03"/>
            </g>
            <rect class="cls-11" x="21.13" y="166.53" width="21.74" height="5.97"/>
          </g>
        </g>
        <path class="cls-8" d="m2.09,203.53c120.3-.33,259.07-.42,379.12,0-119.97.42-258.91.33-379.12,0h0Z"/>
        <ellipse class="cls-9" cx="192.9" cy="230.41" rx="178.78" ry="19.59"/>
        <g>
          <g>
            <g>
              <g>
                <path class="cls-1" d="m151.28,227.16c-1.45.49-43.11.64-44.7-.36-.61-.38-.98-6.44-1.23-13.78-.05-1.59-.1-3.22-.13-4.89l-3.38-22.22,27.85-.18,2.63,22.22-.11,4.89s15.97,7.08,17.6,8.36c1.62,1.28,2.92,5.46,1.47,5.96h0Z"/>
                <path class="cls-6" d="m151.28,227.16c-1.45.49-43.11.64-44.7-.36-.74-.46-1.14-9.32-1.36-18.67l27.1-.17-.11,4.89s15.97,7.08,17.6,8.36c1.62,1.28,2.92,5.46,1.47,5.96h0Z"/>
                <g>
                  <path class="cls-10" d="m151.28,227.16c-1.45.49-43.11.64-44.7-.36-.61-.38-.98-6.44-1.23-13.78l26.86-.17s15.97,7.08,17.6,8.36c1.62,1.28,2.92,5.46,1.47,5.96h0Z"/>
                  <g>
                    <g>
                      <path class="cls-8" d="m150.68,225.5c-6.98-.15-35.16-.08-42.08.31-.06,0-.06.04,0,.04,6.92.3,35.1,0,42.08-.23.15,0,.15-.11,0-.11h0Z"/>
                      <path class="cls-8" d="m147.13,219.72c-1.66-.06-3.27.73-4.17,1.72-.86.95-1.6,2.29-1.55,3.73,0,.04.08.04.08,0,.39-2.73,2.87-5.14,5.64-5.37.06,0,.06-.09,0-.09h0Z"/>
                      <path class="cls-8" d="m134.92,213.53c-2.8-.03-6.03.97-7.76,3.26-.07.09.06.18.14.14,2.52-1.31,4.92-2.29,7.67-3.06.19-.05.15-.34-.05-.34Z"/>
                      <path class="cls-8" d="m137.08,214.37c-2.8-.03-6.03.97-7.76,3.26-.07.09.06.18.14.14,2.52-1.31,4.92-2.29,7.67-3.06.19-.05.15-.34-.05-.34Z"/>
                      <path class="cls-8" d="m139.24,215.2c-2.8-.03-6.03.97-7.76,3.26-.07.09.06.18.14.14,2.52-1.31,4.92-2.29,7.67-3.06.19-.05.15-.34-.05-.34Z"/>
                      <path class="cls-8" d="m141.4,216.03c-2.8-.03-6.03.97-7.76,3.26-.07.09.06.18.14.14,2.52-1.31,4.92-2.29,7.67-3.06.19-.05.15-.34-.05-.34Z"/>
                      <path class="cls-8" d="m110.36,219.17c-3.14.02-3.11,4.89.03,4.87s3.11-4.89-.03-4.87Z"/>
                    </g>
                    <path class="cls-8" d="m137.92,206.07c-1.42-1.17-3.2-.02-4.07,1.21-1.41,1.98-2.37,4.75-2.51,7.16,0,.06.04.08.09.08.06.2.3.37.5.22,1.99-1.38,4.28-2.62,5.78-4.57.88-1.14,1.55-2.99.21-4.1Zm-3.41,5.95c-.96.7-1.95,1.36-2.88,2.1.49-1.39.93-2.8,1.56-4.15.3-.64.63-1.29,1.01-1.89.6-.93,3.34-3.27,3.63-.23.16,1.68-2.18,3.33-3.32,4.17h0Z"/>
                    <path class="cls-8" d="m124.4,215.49c2.43.37,4.94-.34,7.33-.72.25-.04.3-.32.21-.51.04-.03.05-.08,0-.12-1.78-1.63-4.39-2.96-6.77-3.41-1.47-.28-3.55.12-3.77,1.95-.2,1.73,1.57,2.59,2.99,2.81h0Zm-1.69-1.58c-1.9-2.39,1.7-2.6,2.77-2.35.69.16,1.38.41,2.04.66,1.39.53,2.68,1.24,4,1.91-1.19.11-2.35.33-3.53.49-1.41.19-4.24.62-5.28-.7h0Z"/>
                  </g>
                </g>
              </g>
              <g>
                <path class="cls-4" d="m60.92,83.21s32.34,55.02,33.21,58.88c1.33,5.94,8.38,64.55,8.38,64.55l33.65-.61s-5.8-51.68-11.29-68.71c-3.96-12.26-32.5-52.94-32.5-52.94l-31.45-1.18h0Z"/>
                <g>
                  <path class="cls-8" d="m133.1,200.88c-4.83-.04-21.96-.23-28.39.37-.05,0-.05.09,0,.09,2.21.32,23.56-.18,28.39-.33.09,0,.09-.13,0-.13h0Z"/>
                  <path class="cls-8" d="m66.44,88.26c2.12,3.32,4.36,6.58,6.52,9.87,2.17,3.3,4.33,6.6,6.46,9.92,4.26,6.63,8.41,13.34,12.48,20.08,1.91,3.16,3.73,6.36,5.04,9.81,1.3,3.42,2.18,6.97,2.84,10.56.66,3.61,1.09,7.26,1.5,10.9.44,3.88.87,7.76,1.3,11.64.89,7.94,1.77,15.88,2.66,23.83.11.97.22,1.95.31,2.92.01.14-.24.17-.26.03-.99-7.89-1.81-15.81-2.71-23.71-.45-3.93-.9-7.87-1.34-11.8-.42-3.66-.81-7.32-1.38-10.96-.56-3.57-1.28-7.13-2.37-10.59-1.14-3.61-2.75-7.01-4.65-10.3-3.9-6.73-8.03-13.34-12.15-19.93-4.16-6.65-8.36-13.28-12.72-19.82-.54-.81-1.08-1.61-1.64-2.4-.04-.06.06-.12.1-.06h.01Z"/>
                </g>
              </g>
            </g>
            <g>
              <g>
                <path class="cls-1" d="m71.52,230.41c-1.53-.09-41.15-16.14-42.25-17.67-.04-.05-.06-.15-.06-.29,0-1.36,2.75-6.13,5.04-12.39.14-.4,1.17-2.26,2.58-4.76,3.9-6.88,10.8-18.66,10.8-18.66l25.89,10.29-12.39,18.55-1.93,4.49s12.15,12.56,13.18,14.36c1.02,1.8.66,6.16-.87,6.07h.01Z"/>
                <path class="cls-6" d="m71.52,230.41c-1.53-.09-41.15-16.14-42.25-17.67-.04-.05-.06-.15-.06-.29,0-1.36,2.75-6.13,5.04-12.39.14-.4,1.17-2.26,2.58-4.76l24.3,10.18-1.93,4.49s12.15,12.56,13.18,14.36c1.02,1.8.66,6.16-.87,6.07h.01Z"/>
                <g>
                  <path class="cls-10" d="m71.52,230.41c-1.53-.09-41.15-16.14-42.25-17.66-.42-.58,1.35-5.99,4.98-12.68l24.96,9.92s12.15,12.55,13.18,14.35c1.02,1.8.66,6.16-.87,6.07h0Z"/>
                  <g>
                    <g>
                      <path class="cls-8" d="m71.59,228.64c-6.42-2.76-32.57-13.27-39.12-15.5-.05-.02-.07.02-.02.04,6.3,2.87,32.53,13.17,39.09,15.57.14.05.18-.05.04-.11h.01Z"/>
                      <path class="cls-8" d="m70.46,221.95c-1.51-.68-3.31-.55-4.51.03-1.16.56-2.34,1.52-2.84,2.88,0,.04.06.07.08.03,1.39-2.39,4.59-3.69,7.24-2.86.05.02.08-.06.03-.08Z"/>
                      <path class="cls-8" d="m61.47,211.63c-2.58-1.08-5.95-1.36-8.42.11-.1.06,0,.19.08.18,2.83-.27,5.42-.28,8.25.04.2.02.27-.26.08-.34h0Z"/>
                      <path class="cls-8" d="m63.16,213.22c-2.58-1.08-5.95-1.36-8.42.11-.1.06,0,.19.08.18,2.83-.27,5.42-.28,8.25.04.2.02.27-.26.08-.34h0Z"/>
                      <path class="cls-8" d="m64.85,214.8c-2.58-1.08-5.95-1.36-8.42.11-.1.06,0,.19.08.18,2.83-.27,5.42-.28,8.25.04.2.02.27-.26.08-.34h0Z"/>
                      <path class="cls-8" d="m66.54,216.38c-2.58-1.08-5.95-1.36-8.42.11-.1.06,0,.19.08.18,2.83-.27,5.42-.28,8.25.04.2.02.27-.26.08-.34h0Z"/>
                      <path class="cls-8" d="m36.58,207.64c-2.91-1.16-4.72,3.37-1.8,4.53,2.91,1.16,4.72-3.37,1.8-4.53Z"/>
                    </g>
                    <path class="cls-8" d="m67.05,205.83c-.88-1.61-2.96-1.21-4.22-.41-2.05,1.31-3.97,3.51-5.02,5.69-.03.05,0,.09.05.11-.02.21.14.45.38.4,2.36-.54,4.95-.82,7.07-2.07,1.24-.73,2.56-2.19,1.73-3.72h0Zm-5.39,4.24c-1.15.29-2.31.53-3.46.86.98-1.11,1.91-2.25,3-3.26.52-.48,1.07-.96,1.65-1.37.91-.63,4.32-1.78,3.45,1.15-.48,1.61-3.27,2.27-4.64,2.62Z"/>
                    <path class="cls-8" d="m50.98,209.5c2.12,1.25,4.71,1.54,7.07,2.09.24.06.4-.19.38-.4.04,0,.08-.05.05-.11-1.03-2.18-2.96-4.39-5-5.71-1.26-.81-3.34-1.22-4.22.39-.83,1.53.48,2.99,1.72,3.73h0Zm-.97-2.1c-.86-2.93,2.55-1.77,3.45-1.14.58.41,1.12.89,1.64,1.38,1.09,1.01,2.01,2.16,2.99,3.27-1.14-.34-2.3-.58-3.46-.87-1.37-.35-4.16-1.02-4.63-2.63h0Z"/>
                  </g>
                </g>
              </g>
              <g>
                <path class="cls-4" d="m63.14,204.45l-28.98-11.7s35.93-52.84,36.2-56.77c.24-3.48-15.55-33.8-16.17-42.63-.67-9.53,3.92-16.91,8.96-21.49l29.9,12.71s-3.16,5.05-8.13,7.86c0,0,15.33,35.04,14.46,45.81-.87,10.83-36.25,66.22-36.25,66.22h0Z"/>
                <g>
                  <path class="cls-8" d="m64.43,198.94c-4.19-1.8-2.96-1.34-7.17-3.1-2.06-.86-15.61-6.49-17.67-6.95-.05,0-.07.06-.03.09,1.8,1.1,15.45,6.5,17.52,7.32,4.24,1.67,3.04,1.15,7.31,2.77.08.03.13-.09.05-.12h-.01Z"/>
                  <g>
                    <path class="cls-8" d="m89.85,91.78c-3.11.67-6.17,1.77-9.11,2.95-.12.05-.06.22.06.18,3.06-.89,6.16-1.73,9.16-2.78.24-.08.12-.41-.12-.35h.01Z"/>
                    <path class="cls-8" d="m86.3,90.55c-.29.51-.55,1.05-.77,1.6-.17.42-.39.88-.39,1.34,0,.09.12.11.18.06.35-.34.53-.84.75-1.27.25-.49.52-.98.76-1.48.16-.33-.35-.57-.53-.25Z"/>
                    <path class="cls-8" d="m86.66,87.74c.18-.46.37-.92.56-1.38.2-.47.43-.94.6-1.42.03-.08.15-.03.12.05-.18.46-.3.95-.45,1.43-.15.48-.3.95-.46,1.42-.29.88-.65,1.75-1.03,2.6.49,0,.99-.03,1.44-.25.48-.24.78-.75,1.01-1.22.26-.51.51-1.04.78-1.55.3-.56.63-1.12.83-1.73.02-.08.14-.03.12.05-.45,1.26-.89,2.52-1.59,3.69-.28.46-.5.93-1.01,1.11-.54.19-1.14.15-1.71.11-.07.02-.16-.03-.14-.11.27-.94.57-1.9.93-2.8h0Z"/>
                  </g>
                  <path class="cls-8" d="m85.39,93.56c1.06,2.25,2,4.5,2.99,6.74.97,2.19,1.88,4.41,2.76,6.64,1.78,4.51,3.38,9.09,4.78,13.73.69,2.3,1.33,4.61,1.91,6.93.58,2.33,1.14,4.69,1.38,7.09.24,2.4.07,4.78-.6,7.11-.68,2.36-1.58,4.42-2.64,6.62-.65,1.35-.87,1.17-.56.49.89-1.93,3.23-7.78,3.06-12.71-.08-2.37-.57-4.71-1.11-7.02-.55-2.35-1.17-4.69-1.84-7.01-1.33-4.57-2.91-9.06-4.53-13.54-.91-2.51-1.88-4.99-2.81-7.49-.93-2.52-1.89-4.79-2.92-7.54-.03-.07.08-.11.11-.04h.02Z"/>
                  <path class="cls-8" d="m63.39,86.12c.52-.19,1.24.13,1.77.21.68.11,1.37.18,2.05.21.68.02,1.36,0,2.04-.07.67-.07,1.36-.15,1.95-.52.99-.62,1.82-1.7,2.49-2.64.74-1.03,1.5-2.21,1.94-3.41.03-.07.13-.02.11.05-.22.69-.38,1.4-.66,2.08-.26.64-.6,1.25-.96,1.84-.67,1.1-1.44,2.27-2.58,2.93-1.2.69-2.75.64-4.09.57-.78-.04-1.55-.15-2.31-.31-.55-.12-1.47-.2-1.82-.69-.06-.09-.03-.22.07-.26h0Z"/>
                  <path class="cls-8" d="m42.43,187.22c4.76-7.21,9.44-14.48,14.03-21.8,4.6-7.34,9.12-14.73,13.58-22.16,1.07-1.78,2.3-3.55,2.98-5.52.75-2.14.32-4.21-.35-6.31-1.24-3.84-2.78-7.58-4.45-11.25-1.67-3.68-3.47-7.31-5.24-10.94-1.76-3.61-3.62-7.23-4.96-11.02-1.27-3.62-1.76-7.37-.78-11.13.97-3.73,3.06-7.07,5.25-10.19.58-.82,1.17-1.64,1.74-2.46.04-.06.14.01.09.08-2.41,3.26-4.76,6.7-6.18,10.52-.7,1.89-1.15,3.88-1.2,5.89-.05,2.05.34,4.08.94,6.03,1.17,3.79,3.02,7.38,4.75,10.94,1.76,3.64,3.57,7.26,5.27,10.93,1.71,3.69,3.31,7.44,4.63,11.3.59,1.72,1.24,3.51,1.2,5.35-.04,2.01-1,3.83-2,5.52-4.33,7.39-8.83,14.69-13.39,21.95-4.57,7.29-9.24,14.51-13.97,21.69-.6.91-1.2,1.81-1.8,2.71-.07.11-.24-.02-.16-.13h.02Z"/>
                </g>
              </g>
            </g>
          </g>
          <g>
            <g>
              <path class="cls-1" d="m94.71,50.96c2.7,5.92,16.33,14.09,22.72,14.96,4.59.63,18.54.85,23.32.12,5.6-.86,1.32-15.98-1.99-15.59-9.1,1.06-16.83,2.25-19.26,2.25-2.97,0-19.02-5.15-20.96-5.88-4.73-1.77-5.36.78-3.83,4.14h0Z"/>
              <g>
                <path class="cls-2" d="m94.8,52.53c3.42,5.06,14.77,13.32,14.77,13.32l1.58-3.49,5.22-11.54s-10.43-3.29-17.29-4.76c-.93-.2-1.74-.32-2.46-.35-4.38-.24-4.76,2.47-1.82,6.82Z"/>
                <path class="cls-8" d="m94.8,52.53c3.42,5.06,14.77,13.32,14.77,13.32l1.58-3.49c-4.24-4.92-10.77-12.37-14.53-16.65-4.38-.24-4.76,2.47-1.82,6.82Z"/>
                <path class="cls-8" d="m107.52,63.51c.87-2.12,4.72-10.68,5.68-12.48.07-.12.16-.11.11.02-2.44,6.42-4.75,10.44-5.7,12.48-.02.05-.11.02-.08-.03h-.01Z"/>
              </g>
              <g>
                <path class="cls-1" d="m137.09,50.61c5.54-.73,12.39-1.97,18.2.49,1.14.48,1.55,1.33,1.55,1.33,2.62,1.06,2.91,2.61,2.91,2.61,2.14,1.73,2.21,3.36,2.21,3.36,0,0,3.06,1.28,2.6,3.25-.51,2.22-4.71,0-7.77.18-7.01.43-16.85,3.01-18.86,3.33l-.83-14.57v.02Z"/>
                <path class="cls-8" d="m149.12,57.15c2.07-.09,4.09-.22,6.16-.03,2.27.21,4.41.8,6.61,1.34.07.02.1-.08.03-.1-3.83-1.61-8.73-2.03-12.81-1.3-.1.02-.1.1,0,.09h0Z"/>
                <path class="cls-8" d="m148.25,52.95c2.01.03,5.55.1,11.48,2.16.02,0,.04-.02.02-.03-3.67-1.85-7.43-2.51-11.49-2.22-.13,0-.14.09,0,.1h0Z"/>
                <path class="cls-8" d="m147.82,50.69c3.42.18,5.56.72,9,1.76.02,0,.04-.03,0-.04-3.79-1.59-5.34-1.73-9.03-1.84-.13,0-.12.11,0,.12h.01Z"/>
                <path class="cls-1" d="m148.37,62.91c-.89.42-.68.89,1.03,1.28,1.72.4,8.78.51,8.53,2.98s-10.23,2.16-13.02,1.28c-2.79-.87-6.99-3.26-6.99-3.26,1.96-.33,6.62-1.58,10.45-2.28h0Z"/>
              </g>
            </g>
            <g>
              <path class="cls-8" d="m102.12,60.4c-.04,1.06-.15,2.15-.3,3.22.01-.04.03-.08.05-.12.21-.56.41-1.14.66-1.68.01-.03.06-.02.06,0-.11.59-.32,1.18-.54,1.73-.11.26-.22.53-.33.79-.08.48-.16.95-.26,1.42-.18.89-1.03,4.68-1.22,5.33-.04.13-.2.1-.19-.05.05-.7.75-4.65.9-5.54.27-1.72.65-3.47,1.11-5.15.01-.04.07-.02.07.02v.02Z"/>
              <path class="cls-2" d="m95.62,88.75c-1.66.86-3.81,2.19-13.47.28-.6-.12-1.21-.27-1.82-.45-9.06-2.72-19.93-13.38-20.54-14.13,0,0,14.39-23.34,32.8-30.67,2.28-.91,6.04.84,8.13,3.02.74.78,2.36,6.5,1.74,11.14-.63,4.63-5.16,29.96-6.84,30.81Z"/>
            </g>
            <g>
              <g>
                <path class="cls-1" d="m97.34,53c-2.35-.44-4.56-5.29-4.84-8.56-.02-.22,1.1-2,2.35-4.23.76-1.35,1.57-2.88,2.2-4.32.13-.3.9.69.9.69l1.67,1.28,5.52,4.23s-2.23,2.64-3.33,5.16c-.09.21-.16.42-.2.62,0,.03-.02.06-.03.1-.31,1.21-1.99,5.44-4.25,5.02h.01Z"/>
                <path class="cls-8" d="m101.62,47.88s-.02.06-.03.1c-.3-.09-.62-.2-.95-.36-6.04-2.83-3.38-10.93-3.38-10.93l2.37,1.17,5.52,4.23s-2.23,2.64-3.33,5.16c-.09.21-.16.42-.2.62h0Z"/>
              </g>
              <g>
                <path class="cls-8" d="m111.49,24.84s2.76,1.75,2.78,4.87-1.22,6.17-1.51,6.27-1.27-11.14-1.27-11.14Z"/>
                <path class="cls-1" d="m97.78,26.46c-1.66,3.28-1.58,13.59.5,16.25,3,3.85,8.79,5.18,12.29,1.37,3.39-3.69,3.04-17.14.64-19.64-3.53-3.69-10.97-2.82-13.43,2.02Z"/>
                <g>
                  <g>
                    <path class="cls-8" d="m106.59,34.73s-.05.03-.05.06c.04.7-.04,1.51-.67,1.76-.02,0-.02.04,0,.04.77-.13.86-1.2.71-1.86h.01Z"/>
                    <path class="cls-8" d="m105.94,34.01c-1.13-.06-1.17,2.21-.12,2.27,1.03.05,1.07-2.22.12-2.27Z"/>
                  </g>
                  <g>
                    <path class="cls-8" d="m110.43,34.7s.05.03.05.06c-.03.7.05,1.51.68,1.76.02,0,.02.04,0,.04-.77-.12-.87-1.2-.73-1.86Z"/>
                    <path class="cls-8" d="m111.07,33.98c1.13-.07,1.18,2.2.14,2.26-1.03.06-1.09-2.21-.14-2.26Z"/>
                  </g>
                  <path class="cls-8" d="m105.23,32.28c.31-.07.58-.19.88-.3.34-.12.62-.18.84-.47.12-.16.08-.45-.07-.58-.34-.31-.79-.27-1.2-.14-.45.14-.76.35-1.02.74-.25.37.15.85.56.75h.01Z"/>
                  <path class="cls-8" d="m111.86,33.28c-.31-.06-.59-.16-.9-.25-.34-.1-.63-.14-.87-.43-.13-.15-.1-.45.04-.59.32-.32.77-.31,1.19-.2.45.11.78.31,1.06.69.27.36-.1.86-.52.78Z"/>
                  <path class="cls-8" d="m104.99,41.39c.17.17.33.4.58.42.24.02.53-.08.76-.16.02,0,.04.02.03.04-.19.27-.57.43-.9.37-.32-.06-.47-.34-.54-.63,0-.04.04-.06.07-.03h0Z"/>
                  <path class="cls-8" d="m109.07,38.38s.03,1.05-.02,1.54c0,.05-1.38-.22-2.87.1-.22.05-.2-.13.06-.25.51-.24,1.17-.46,2.44-.32.05-.13-.08-1.62,0-1.62.27,0,.78.25,1.08.37,0-2.19-.35-4.37-.32-6.55,0-.08.12-.09.13-.02.53,2.25.58,4.78.64,7.05,0,.28-.96-.19-1.14-.3Z"/>
                  <g>
                    <path class="cls-8" d="m107.67,39.55s-.49,1.23-1.31,1.56c-.94.38-1.27-.47-.3-1.23.5-.4,1.61-.34,1.61-.34h0Z"/>
                    <path class="cls-7" d="m106.69,40.92c-.11.08-.21.15-.33.19-.87.35-1.21-.34-.51-1.04.47.04.99.21.84.85Z"/>
                  </g>
                </g>
                <g>
                  <path class="cls-8" d="m97.31,35.29c1.14.35,2.45-3.08,2.82-4.4.33-1.16.7-4.85.76-5.1.06-.25,4.97,3.26,7.84,2.42,2.87-.84,4.79-3.42,4.83-4.62s-3.53-4.26-6.62-4.42c-3.09-.16-7.27,3.77-7.27,3.77,0,0,1.42-1.7,1.37-1.83-.05-.14-2.04.66-2.41,2.08,0,0,.39-1.78.24-1.82-.15-.03-1.7,1.49-1.35,2.65,0,0-1.79,1.55-1.96,3.26-.17,1.7.39,7.6,1.73,8.01h.02Z"/>
                  <path class="cls-8" d="m110.78,27.61c-.87.4-1.75.84-2.71.97-1.04.14-2.13-.12-3.1-.5-.99-.38-1.9-.93-2.72-1.61-.72-.59-1.36-1.31-2.12-1.83-.19-.13-.41.14-.3.32,1.17,1.75,3.23,3.21,5.21,3.84,2.09.66,4.06.2,5.75-1.17.01,0,0-.03,0-.02Z"/>
                </g>
                <g>
                  <path class="cls-1" d="m98.5,34.98s-1.77-3.59-3.37-3.01c-1.6.58-.61,5.55,1.02,6.46s2.5-.58,2.5-.58l-.15-2.86h0Z"/>
                  <path class="cls-8" d="m95.45,33.39s-.04.03-.02.04c1.14.68,1.6,1.9,1.87,3.13-.29-.5-.74-.82-1.41-.49-.03.02-.01.07.02.07.51-.03.86.11,1.13.56.19.32.3.7.42,1.05.04.12.24.09.22-.04v-.03c.27-1.54-.6-3.89-2.23-4.3h0Z"/>
                </g>
              </g>
            </g>
            <g>
              <g>
                <path class="cls-1" d="m86.81,51.02c-1.22,7.06,6.41,30.86,11.32,35.31,7.3,6.61,20.8,10.96,25.69,12.37,2.13.62,8.03-14.39,5.87-15.37-4.62-2.12-18.97-6.59-20.32-7.74s-9.6-13.02-13.26-19.86c-4.92-9.18-8.68-8.28-9.3-4.7h0Z"/>
                <g>
                  <path class="cls-1" d="m126.06,82s6.37,1.62,10.48,2.88c2.29.7,6.12,2.25,7.57,3.54,2.17,1.92,10.01,11.36,7.77,13.31-2.03,1.77-7.74-7.19-7.74-7.19,0,0,6.56,8.53,3.72,10.21s-7.94-9.3-7.94-9.3c0,0,6.54,8.92,3.34,10.18-2.42.96-7.6-8.73-7.6-8.73,0,0,5.57,7.7,3.13,8.79-2.7,1.21-8.05-7.43-8.05-7.43-6.68,1.73-10.57-.18-13.17-1.87-.63-.41,8.5-14.38,8.5-14.38h0Z"/>
                  <g>
                    <path class="cls-8" d="m142.06,91.44c.81.97,1.63,1.95,2.35,3,.72,1.04,1.4,2.11,2.02,3.22,1.51,2.71,2.04,4.64,1.99,4.53-1.07-2.74-3.58-6.51-4.3-7.56-.72-1.04-1.38-2.12-2.1-3.16-.02-.03.02-.05.04-.03Z"/>
                    <path class="cls-8" d="m138.24,93.96c1.38,1.1,4.28,5.18,5.4,7.91.05.11,0,.11-.08,0-.88-1.35-4.42-6.59-5.35-7.89,0-.02,0-.04.03-.02h0Z"/>
                    <path class="cls-8" d="m134.58,95.54c1.6,1.58,2.95,3.75,4,6.25.05.11-.04.1-.11-.01-1.29-2.1-2.29-3.76-3.96-6.18-.03-.04.03-.09.07-.06Z"/>
                  </g>
                </g>
              </g>
              <g>
                <path class="cls-2" d="m93.75,51.53c-5.69-8.05-9.09-5.07-7.95,3.67,1.07,8.17,3.93,17.91,3.93,17.91l14.37-6.96s-6.7-9.47-10.35-14.62Z"/>
                <path class="cls-8" d="m95.66,53.96c.76,1.05,1.56,2.08,2.35,3.12-.2-.52-.37-1.05-.53-1.59,0-.02.03-.04.04,0,.16.41.34.82.49,1.24.07.2.15.4.23.6.02.04.03.09.05.13.61.81,1.23,1.61,1.82,2.44.71.98,1.39,1.98,2.07,2.98.71,1.03,1.38,2.24,2.12,3.24.06.09-1.27.63-1.4.7-.13.07-.21-.05-.08-.09.13-.04,1.18-.69,1.2-.7-.68-1.01-1.48-1.93-2.19-2.92-.71-.98-1.43-1.95-2.12-2.95-1.4-2.02-2.69-4.11-4.08-6.14-.02-.03.02-.05.04-.03v-.02Z"/>
                <path class="cls-8" d="m86.15,60.99c.22.43.45.85.65,1.28.08.18.16.36.24.54-.33-1.56-.65-3.11-.97-4.67,0-.02.02-.03.03,0,.66,2.52,1.32,5.04,1.93,7.58.58,2.42,1.29,4.86,1.62,7.33.2-.07,1.32-.53,1.35-.46s-1.46.78-1.48.72c-.81-2.41-1.32-5.15-1.87-7.63-.16-.7-.3-1.4-.45-2.1-.16-.42-.36-.83-.55-1.24-.2-.43-.37-.89-.54-1.33-.01-.03.03-.05.04-.02Z"/>
                <path class="cls-8" d="m89.96,70.71c2-1.13,10.33-5.44,12.2-6.26.13-.06.2,0,.07.09-5.9,3.51-10.21,5.24-12.22,6.25-.05.03-.1-.05-.05-.08Z"/>
              </g>
            </g>
          </g>
        </g>
        <g>
          <g>
            <g>
              <polygon class="cls-2" points="318.42 234.62 128.46 234.62 155.92 78.85 345.88 78.85 318.42 234.62"/>
              <polygon class="cls-2" points="220.94 62.72 158.77 62.72 155.92 78.85 222.46 78.85 220.94 62.72"/>
            </g>
            <g class="cls-16">
              <polygon class="cls-3" points="318.42 234.62 128.46 234.62 155.92 78.85 345.88 78.85 318.42 234.62"/>
              <polygon class="cls-3" points="220.94 62.72 158.77 62.72 155.92 78.85 222.46 78.85 220.94 62.72"/>
            </g>
          </g>
          <g>
            <path class="cls-8" d="m152.06,69.3c-.43-1.8-.43-3.62,0-5.43.43,1.8.43,3.62,0,5.43h0Z"/>
            <path class="cls-8" d="m146.54,70.89c-1.27-1.35-2.18-2.92-2.71-4.7,1.27,1.35,2.18,2.92,2.71,4.7h0Z"/>
            <path class="cls-8" d="m142.55,75.04c-1.78-.53-3.35-1.44-4.7-2.71,1.78.53,3.35,1.44,4.7,2.71h0Z"/>
            <path class="cls-8" d="m141.17,80.62c-1.8.43-3.62.43-5.43,0,1.8-.43,3.62-.43,5.43,0h0Z"/>
            <path class="cls-8" d="m142.77,86.15c-1.35,1.27-2.92,2.18-4.7,2.71,1.35-1.27,2.92-2.18,4.7-2.71h0Z"/>
            <path class="cls-8" d="m146.92,90.13c-.53,1.78-1.44,3.35-2.71,4.7.53-1.78,1.44-3.35,2.71-4.7h0Z"/>
            <path class="cls-8" d="m152.5,91.51c.43,1.8.43,3.62,0,5.43-.43-1.8-.43-3.62,0-5.43h0Z"/>
            <path class="cls-8" d="m158.02,89.91c1.27,1.35,2.18,2.92,2.71,4.7-1.27-1.35-2.18-2.92-2.71-4.7h0Z"/>
            <path class="cls-8" d="m162.01,85.77c1.78.53,3.35,1.44,4.7,2.71-1.78-.53-3.35-1.44-4.7-2.71h0Z"/>
            <path class="cls-8" d="m163.39,80.19c1.8-.43,3.62-.43,5.43,0-1.8.43-3.62.43-5.43,0h0Z"/>
            <path class="cls-8" d="m161.79,74.66c1.35-1.27,2.92-2.18,4.7-2.71-1.35,1.27-2.92,2.18-4.7,2.71h0Z"/>
            <path class="cls-8" d="m157.64,70.68c.53-1.78,1.44-3.35,2.71-4.7-.53,1.78-1.44,3.35-2.71,4.7h0Z"/>
          </g>
          <polygon class="cls-2" points="318.14 234.62 127.77 234.62 100.74 84.5 291.11 84.5 318.14 234.62"/>
          <g>
            <circle class="cls-8" cx="166.71" cy="168.36" r="7.91"/>
            <circle class="cls-8" cx="229.26" cy="168.36" r="7.91"/>
            <path class="cls-8" d="m209.35,177.54l-.43-.83c-.04-.07-4.13-7.63-12.35-7.63-7.5,0-9.33,7.11-9.4,7.42l-.22.91-1.81-.44.22-.91c.02-.09,2.23-8.85,11.22-8.85s13.82,8.28,14.01,8.63l.43.83-1.66.87h0Z"/>
          </g>
        </g>
        <g>
          <g>
            <path class="cls-14" d="m305.5,167.45c.41-.09.81-.18,1.21-.29"/>
            <path class="cls-15" d="m309.11,166.46c9.54-3.22,17.52-10.72,18.27-19.49,1.66-19.33-21.88-30-19.45-52.34,2.32-21.3,24.67-22.83,33.62-19.88,9.89,3.25,6.5,12.76-2.45,11.54-15.53-2.13-25.29-19.01-17.92-38.16,5.51-14.32,19.26-19.71,24.84-21.35"/>
            <path class="cls-14" d="m347.22,26.44c.77-.2,1.21-.28,1.21-.28"/>
          </g>
          <g>
            <path class="cls-8" d="m358.32,22.71c-1.59-4.93-12.24-3.16-10.16,3.28s11.75,1.65,10.16-3.28Z"/>
            <g>
              <path class="cls-12" d="m342.37,20.73c.08-2.16,3.09-3.82,7.34-3.06,4.25.77,8.25,3.63,8.25,3.63,0,0-4.2,2.57-8.5,3.02-4.29.45-7.17-1.43-7.09-3.6h0Z"/>
              <g>
                <path class="cls-8" d="m357.95,21.3c-2.21.02-4.41-.06-6.61-.13-2.2-.09-4.41-.18-6.61-.36,2.21-.02,4.41.06,6.61.13,2.2.09,4.41.18,6.61.36Z"/>
                <path class="cls-8" d="m346.64,18.81c.64.29,1.23.65,1.82,1,.58.38,1.16.75,1.7,1.2-.64-.29-1.23-.65-1.82-1-.58-.38-1.16-.75-1.7-1.2Z"/>
                <path class="cls-8" d="m352.41,21.1c-.56.47-1.17.87-1.77,1.28-.62.38-1.23.77-1.9,1.08.56-.47,1.17-.87,1.77-1.28.62-.38,1.23-.77,1.9-1.08Z"/>
                <path class="cls-8" d="m353.06,19.88c.33.14.6.35.88.56.26.23.52.45.73.74-.33-.14-.6-.35-.88-.56-.26-.23-.52-.45-.73-.74Z"/>
              </g>
            </g>
            <g>
              <path class="cls-12" d="m346.42,33.55c1.33,1.71,4.74,1.3,7.74-1.81,3-3.11,4.57-7.77,4.57-7.77,0,0-4.91.37-8.66,2.52-3.75,2.14-4.98,5.35-3.65,7.06Z"/>
              <g>
                <path class="cls-8" d="m358.72,23.97c-1.8,1.28-3.54,2.63-5.29,3.97-1.73,1.36-3.47,2.72-5.15,4.15,1.8-1.28,3.54-2.63,5.29-3.97,1.73-1.36,3.47-2.72,5.15-4.15Z"/>
                <path class="cls-8" d="m351,32.61c.35-.61.62-1.24.89-1.88.25-.65.5-1.29.68-1.97-.35.6-.62,1.24-.89,1.88-.25.65-.5,1.29-.68,1.97Z"/>
                <path class="cls-8" d="m354.35,27.38c-.73-.06-1.46-.03-2.18,0-.72.05-1.45.1-2.17.23.73.06,1.46.03,2.18,0,.72-.05,1.45-.1,2.17-.23Z"/>
                <path class="cls-8" d="m355.58,27.99c.18-.31.28-.64.39-.97.08-.34.16-.67.16-1.03-.18.31-.28.64-.39.97-.08.34-.16.67-.16,1.03Z"/>
              </g>
            </g>
            <path class="cls-13" d="m358.32,22.71c-.98.32-2.03-.22-2.35-1.2-.32-.98.22-2.03,1.2-2.35s2.03.22,2.35,1.2c.32.98-.22,2.03-1.2,2.35Z"/>
            <path class="cls-13" d="m359.47,26.27c-.98.32-2.03-.22-2.35-1.2-.32-.98.22-2.03,1.2-2.35s2.03.22,2.35,1.2c.32.98-.22,2.03-1.2,2.35Z"/>
          </g>
        </g>
        <g>
          <g>
            <path class="cls-6" d="m155.06,24.68c-.89,8.53-8.54,14.73-17.07,13.84-3.45-.36-6.52-1.82-8.89-4.01l-7.77,1.14,3.89-6.72c-.94-2.3-1.34-4.85-1.07-7.48.89-8.53,8.54-14.73,17.07-13.84,8.53.89,14.73,8.54,13.84,17.07h0Z"/>
            <path class="cls-8" d="m155.06,24.68c-.32,2.84-1.36,5.62-3.14,7.88-.41.59-.93,1.09-1.41,1.62-.54.47-1.04.99-1.64,1.39-1.14.88-2.41,1.56-3.75,2.09-1.33.56-2.76.83-4.18,1-.72.04-1.44.1-2.16.04-.72-.02-1.44-.09-2.15-.22-2.84-.51-5.54-1.85-7.69-3.8l.18.06-7.77,1.19-.56.09.29-.5,3.87-6.73-.02.27c-1.88-4.44-1.46-9.72.96-13.85,1.2-2.07,2.88-3.85,4.87-5.18,1.98-1.33,4.28-2.17,6.63-2.49,2.35-.31,4.78-.1,7.03.65,2.25.76,4.31,2.03,5.99,3.67,3.43,3.26,5.16,8.15,4.65,12.83h0Zm0,0c.47-4.68-1.29-9.55-4.72-12.76-1.7-1.61-3.77-2.83-5.99-3.54-2.23-.7-4.61-.86-6.91-.52-2.3.35-4.52,1.21-6.42,2.54s-3.49,3.07-4.65,5.07c-1.18,1.99-1.79,4.28-1.97,6.58-.15,2.3.23,4.63,1.09,6.77l.06.14-.07.13-3.91,6.71-.28-.41,7.78-1.09.11-.02.08.07c2.06,1.93,4.66,3.28,7.44,3.83.69.14,1.4.23,2.11.26.71.07,1.42.02,2.13,0,1.41-.14,2.83-.38,4.15-.91,1.33-.5,2.62-1.15,3.75-2.02.6-.4,1.1-.91,1.64-1.37.48-.53,1-1.02,1.41-1.61,1.78-2.24,2.84-5.01,3.18-7.84h0Z"/>
          </g>
          <g>
            <path class="cls-2" d="m132.01,30.31c0-.93.64-1.6,1.52-1.6.93,0,1.52.67,1.52,1.6s-.59,1.6-1.52,1.6-1.52-.7-1.52-1.6Zm.64-3.69l-.36-12.37h2.47l-.36,12.37h-1.75Z"/>
            <path class="cls-2" d="m137.94,30.31c0-.93.64-1.6,1.52-1.6.93,0,1.52.67,1.52,1.6s-.59,1.6-1.52,1.6-1.52-.7-1.52-1.6Zm.64-3.69l-.36-12.37h2.47l-.36,12.37h-1.75Z"/>
            <path class="cls-2" d="m143.87,30.31c0-.93.64-1.6,1.52-1.6.93,0,1.52.67,1.52,1.6s-.59,1.6-1.52,1.6-1.52-.7-1.52-1.6Zm.64-3.69l-.36-12.37h2.47l-.36,12.37h-1.75Z"/>
          </g>
        </g>
      </g>
    </g>
  </g>
</svg>