<?xml version="1.0" encoding="UTF-8"?>
<svg id="Layer_2" data-name="Layer 2" xmlns="http://www.w3.org/2000/svg" width="542.44" height="387.4" xmlns:xlink="http://www.w3.org/1999/xlink" viewBox="0 0 542.44 387.4">
  <defs>
    <style>
      .cls-1 {
        fill: #717a91;
      }

      .cls-1, .cls-2, .cls-3, .cls-4, .cls-5, .cls-6, .cls-7, .cls-8, .cls-9, .cls-10, .cls-11, .cls-12, .cls-13, .cls-14, .cls-15, .cls-16, .cls-17, .cls-18, .cls-19 {
        stroke-width: 0px;
      }

      .cls-2 {
        fill: #f2f5f9;
      }

      .cls-3 {
        fill: url(#linear-gradient);
      }

      .cls-20 {
        opacity: .65;
      }

      .cls-21 {
        stroke: #475577;
        stroke-width: 2px;
      }

      .cls-21, .cls-22, .cls-23, .cls-24, .cls-25, .cls-26, .cls-27, .cls-28, .cls-29, .cls-30 {
        fill: none;
      }

      .cls-21, .cls-22, .cls-23, .cls-24, .cls-25, .cls-26, .cls-28, .cls-29 {
        stroke-miterlimit: 10;
      }

      .cls-4 {
        fill: #597f6e;
      }

      .cls-5 {
        fill: #00b2e3;
      }

      .cls-22, .cls-31, .cls-26, .cls-27, .cls-30 {
        stroke: #c0ccd8;
      }

      .cls-6, .cls-32 {
        fill: #e6e8ef;
      }

      .cls-7 {
        fill: #363644;
      }

      .cls-8 {
        fill: #8ebca2;
      }

      .cls-9 {
        fill: #c6d2e0;
      }

      .cls-10 {
        isolation: isolate;
      }

      .cls-10, .cls-18 {
        fill: #8e9db2;
      }

      .cls-10, .cls-33 {
        opacity: .45;
      }

      .cls-11, .cls-31 {
        fill: #fff;
      }

      .cls-32, .cls-31, .cls-27, .cls-30 {
        stroke-linejoin: round;
      }

      .cls-32, .cls-28 {
        stroke: #846a6a;
      }

      .cls-12 {
        fill: #ffcbbb;
      }

      .cls-23 {
        stroke: #544943;
        stroke-width: 1.5px;
      }

      .cls-13 {
        fill: #e7eaf2;
      }

      .cls-14 {
        fill: #0055b8;
      }

      .cls-15 {
        fill: #c0ccd8;
      }

      .cls-24 {
        stroke-dasharray: 0 0 0 0 0 0 3 2;
      }

      .cls-24, .cls-29 {
        stroke: #1a94a8;
      }

      .cls-25 {
        stroke: #ef977f;
      }

      .cls-16 {
        fill: #a2ccb6;
      }

      .cls-17 {
        fill: #b9b5b2;
      }

      .cls-26 {
        stroke-width: 3px;
      }

      .cls-34 {
        opacity: .55;
      }

      .cls-27 {
        stroke-linecap: round;
      }

      .cls-19 {
        fill: #e8eaef;
      }
    </style>
    <linearGradient id="linear-gradient" x1="201.63" y1="186.72" x2="201.63" y2="214.33" gradientTransform="translate(0 385.91) scale(1 -1)" gradientUnits="userSpaceOnUse">
      <stop offset="0" stop-color="#fff" stop-opacity=".1"/>
      <stop offset="1" stop-color="#fff" stop-opacity=".4"/>
    </linearGradient>
  </defs>
  <g id="Layer_2-2" data-name="Layer 2">
    <g id="OBJECTS">
      <g>
        <g>
          <g>
            <rect class="cls-22" x="157.41" y="22.33" width="123.75" height="74.75" rx="3.21" ry="3.21"/>
            <line class="cls-22" x1="157.41" y1="35.87" x2="281.16" y2="35.87"/>
            <circle class="cls-22" cx="165.4" cy="29.18" r="1.98"/>
            <path class="cls-22" d="m175.51,29.18c0,1.09-.89,1.98-1.98,1.98s-1.98-.89-1.98-1.98.89-1.98,1.98-1.98,1.98.89,1.98,1.98Z"/>
            <path class="cls-22" d="m183.65,29.18c0,1.09-.89,1.98-1.98,1.98s-1.98-.89-1.98-1.98.89-1.98,1.98-1.98,1.98.89,1.98,1.98Z"/>
          </g>
          <g>
            <rect class="cls-30" x="87.37" y="65.4" width="39.5" height="39.5" rx="5.12" ry="5.12"/>
            <g>
              <circle class="cls-26" cx="107.12" cy="85.15" r="11.31"/>
              <line class="cls-26" x1="114.76" y1="77.16" x2="98.78" y2="93.13"/>
            </g>
          </g>
          <path class="cls-31" d="m388.75,95.91l-8.19-8.49h-126.09c-5.9,0-10.68-4.78-10.68-10.68V11.18c0-5.9,4.78-10.68,10.68-10.68h126.65c5.9,0,10.68,4.78,10.68,10.68v83.5c0,1.6-1.95,2.38-3.06,1.23h.01Z"/>
          <g>
            <path class="cls-14" d="m294.47,58.11h-5.42v9.53h-13.14v-9.53h-19.64v-9.77l20.48-29.95h12.3v29.78h5.42v9.94h0Zm-18.56-9.94v-5.73c0-1.08.04-2.53.12-4.36s.14-2.79.19-2.88h-.37c-.76,1.73-1.63,3.35-2.59,4.85l-5.46,8.12h8.12-.01Z"/>
            <path class="cls-14" d="m335.52,43.09c0,8.71-1.46,15.1-4.38,19.15-2.92,4.05-7.39,6.08-13.41,6.08s-10.32-2.12-13.31-6.35c-2.99-4.23-4.48-10.53-4.48-18.88s1.46-15.18,4.38-19.27,7.39-6.13,13.41-6.13,10.29,2.13,13.29,6.38c3,4.26,4.5,10.6,4.5,19.02Zm-22.34,0c0,5.57.35,9.4,1.04,11.49.7,2.09,1.86,3.13,3.5,3.13s2.83-1.08,3.52-3.23c.68-2.16,1.03-5.95,1.03-11.39s-.35-9.28-1.04-11.47c-.7-2.19-1.87-3.28-3.5-3.28s-2.81,1.06-3.5,3.17c-.7,2.11-1.04,5.98-1.04,11.59h0Z"/>
            <path class="cls-14" d="m379.33,58.11h-5.42v9.53h-13.14v-9.53h-19.64v-9.77l20.48-29.95h12.3v29.78h5.42v9.94h0Zm-18.56-9.94v-5.73c0-1.08.04-2.53.12-4.36s.14-2.79.18-2.88h-.37c-.76,1.73-1.63,3.35-2.59,4.85l-5.46,8.12s8.12,0,8.12,0Z"/>
          </g>
          <g>
            <rect class="cls-30" x="502.44" y="180.41" width="39.5" height="39.5" rx="5.12" ry="5.12"/>
            <g>
              <path class="cls-15" d="m534.93,211.25c-.15.05-.31.08-.47.08h-24.52c-.51,0-.99-.27-1.25-.71s-.26-.99,0-1.44l12.25-21.24c.25-.44.73-.72,1.24-.72s.99.27,1.25.72l12.27,21.23c.26.44.26.99,0,1.44-.17.3-.45.53-.77.64h0Zm-24.32-1.74h23.17l-11.59-20.07-11.58,20.07h0Z"/>
              <path class="cls-15" d="m522.19,205.29h0c-.46,0-.85-.36-.87-.83l-.5-8.36c-.03-.78.58-1.42,1.36-1.42h0c.78,0,1.4.65,1.36,1.42l-.49,8.36c-.02.46-.4.83-.87.83h.01Z"/>
              <path class="cls-15" d="m523.08,207.31c0,.49-.4.88-.88.88s-.88-.4-.88-.88.4-.88.88-.88.88.4.88.88Z"/>
            </g>
          </g>
          <path class="cls-27" d="m4.96,149.33c0,1.23-1,2.23-2.23,2.23s-2.23-1-2.23-2.23,1-2.23,2.23-2.23,2.23,1,2.23,2.23Z"/>
          <path class="cls-27" d="m379.33,268.14c0,1.23-1,2.23-2.23,2.23s-2.23-1-2.23-2.23,1-2.23,2.23-2.23,2.23,1,2.23,2.23Z"/>
          <path class="cls-27" d="m532.46,85.15c0,1.23-1,2.23-2.23,2.23s-2.23-1-2.23-2.23,1-2.23,2.23-2.23,2.23,1,2.23,2.23Z"/>
          <path class="cls-27" d="m412.18,16.23c0,1.23-1,2.23-2.23,2.23s-2.23-1-2.23-2.23,1-2.23,2.23-2.23,2.23,1,2.23,2.23Z"/>
          <g>
            <line class="cls-27" x1="528" y1="158.03" x2="528" y2="164.93"/>
            <line class="cls-27" x1="531.45" y1="161.48" x2="524.55" y2="161.48"/>
          </g>
          <g>
            <line class="cls-27" x1="347.62" y1="290.96" x2="347.62" y2="297.86"/>
            <line class="cls-27" x1="351.07" y1="294.41" x2="344.16" y2="294.41"/>
          </g>
          <g>
            <line class="cls-27" x1="201.68" y1="3.5" x2="201.68" y2="10.4"/>
            <line class="cls-27" x1="205.13" y1="6.95" x2="198.23" y2="6.95"/>
          </g>
          <g>
            <line class="cls-27" x1="47.21" y1="70.2" x2="47.21" y2="77.1"/>
            <line class="cls-27" x1="50.66" y1="73.65" x2="43.76" y2="73.65"/>
          </g>
          <g>
            <line class="cls-27" x1="35.98" y1="229.07" x2="35.98" y2="235.97"/>
            <line class="cls-27" x1="39.43" y1="232.52" x2="32.53" y2="232.52"/>
          </g>
          <g>
            <line class="cls-27" x1="427.13" y1="42.57" x2="427.13" y2="49.47"/>
            <line class="cls-27" x1="430.58" y1="46.02" x2="423.68" y2="46.02"/>
          </g>
          <path class="cls-22" d="m87.32,189.78H18.27c-1.21,0-2.18-.98-2.18-2.18h0c0-1.21.98-2.18,2.18-2.18h69.05c1.21,0,2.18.98,2.18,2.18h0c0,1.21-.98,2.18-2.18,2.18Z"/>
          <path class="cls-22" d="m493.88,134.64h-69.05c-1.21,0-2.18-.98-2.18-2.18h0c0-1.21.98-2.18,2.18-2.18h69.05c1.21,0,2.18.98,2.18,2.18h0c0,1.21-.98,2.18-2.18,2.18Z"/>
          <path class="cls-15" d="m503.99,149.33h-25.53c-.6,0-1.09-.49-1.09-1.09h0c0-.6.49-1.09,1.09-1.09h25.53c.6,0,1.09.49,1.09,1.09h0c0,.6-.49,1.09-1.09,1.09Z"/>
          <path class="cls-15" d="m436.44,97.29h-25.53c-.6,0-1.09-.49-1.09-1.09h0c0-.6.49-1.09,1.09-1.09h25.53c.6,0,1.09.49,1.09,1.09h0c0,.6-.49,1.09-1.09,1.09Z"/>
          <path class="cls-15" d="m61.65,170.48h-19.53c-.6,0-1.09-.49-1.09-1.09h0c0-.6.49-1.09,1.09-1.09h19.53c.6,0,1.09.49,1.09,1.09h0c0,.6-.49,1.09-1.09,1.09Z"/>
          <g>
            <path class="cls-30" d="m476.91,74.1h-21.14c-2.04,0-3.7-1.66-3.7-3.7v-21.14c0-2.04,1.66-3.7,3.7-3.7h21.14c2.04,0,3.7,1.66,3.7,3.7v21.14c0,2.04-1.66,3.7-3.7,3.7Z"/>
            <path class="cls-15" d="m470.38,58.63l-.5,2.45h2.73v2.18h-3.14l-.81,4.29h-2.32l.82-4.29h-3l-.8,4.29h-2.27l.78-4.29h-2.51v-2.18h2.93l.5-2.45h-2.66v-2.21h3.05l.81-4.3h2.31l-.81,4.3h3.05l.82-4.3h2.27l-.82,4.3h2.54v2.21h-2.97Zm-5.81,2.45h3.02l.5-2.45h-3.02l-.5,2.45Z"/>
          </g>
        </g>
        <g>
          <g>
            <path class="cls-7" d="m226.01,271.54l-20.05-131.49h-90.29l21.64,139.34c1.47,9.44,9.34,16.09,19.06,16.09h151.83l1.12-12.77h-70.12c-6.73,0-12.18-4.62-13.18-11.16h-.01Z"/>
            <path class="cls-1" d="m140.55,271.54l-19.31-126.63c-.44-2.85-2.81-4.87-5.75-4.87h-.18c-4.11,0-7.48,3.85-6.86,7.85l20.43,131.49c1.47,9.44,9.34,16.09,19.06,16.09h97.79l1.12-12.77h-93.12c-6.73,0-12.18-4.62-13.18-11.16h0Z"/>
            <g>
              <line class="cls-23" x1="201.68" y1="295.48" x2="201.68" y2="367.25"/>
              <g>
                <path class="cls-23" d="m161.44,373.59h0c0-3.5,2.84-6.34,6.34-6.34h67.79c3.5,0,6.34,2.84,6.34,6.34h0"/>
                <path class="cls-23" d="m194.74,373.59h0c0-3.5,2.84-6.34,6.34-6.34"/>
                <g>
                  <path class="cls-1" d="m167.84,379.99c0,3.54-2.87,6.4-6.4,6.4s-6.4-2.87-6.4-6.4,2.87-6.4,6.4-6.4,6.4,2.87,6.4,6.4Z"/>
                  <g class="cls-33">
                    <path class="cls-18" d="m163.79,379.99c0,1.3-1.05,2.35-2.35,2.35s-2.35-1.05-2.35-2.35,1.05-2.35,2.35-2.35,2.35,1.05,2.35,2.35Z"/>
                  </g>
                </g>
                <path class="cls-1" d="m201.14,379.99c0,3.54-2.87,6.4-6.4,6.4s-6.4-2.87-6.4-6.4,2.87-6.4,6.4-6.4,6.4,2.87,6.4,6.4Z"/>
                <g class="cls-33">
                  <path class="cls-18" d="m197.09,379.99c0,1.3-1.05,2.35-2.35,2.35s-2.35-1.05-2.35-2.35,1.05-2.35,2.35-2.35,2.35,1.05,2.35,2.35Z"/>
                </g>
                <g>
                  <path class="cls-1" d="m248.31,379.99c0,3.54-2.87,6.4-6.4,6.4s-6.4-2.87-6.4-6.4,2.87-6.4,6.4-6.4,6.4,2.87,6.4,6.4Z"/>
                  <g class="cls-33">
                    <path class="cls-18" d="m244.26,379.99c0,1.3-1.05,2.35-2.35,2.35s-2.35-1.05-2.35-2.35,1.05-2.35,2.35-2.35,2.35,1.05,2.35,2.35Z"/>
                  </g>
                </g>
              </g>
            </g>
          </g>
          <g>
            <g>
              <path class="cls-12" d="m272.25,154.16l22.89-34.19,7.09,1.48c-5.42,18.25-9,25.47-9,25.47"/>
              <path class="cls-12" d="m298.58,127.11l3.65-5.66s6.79-1.56,9.26-2.82,4.11-3.49,4.8-5.38c.53-1.45.3-5.69-.32-5.76-1.46-.16-4.37,5.28-5.74,5.6-1.36.32-5.78-.01-8.22.31-4.09.54-5.82,4.37-5.82,4.37l-3.74,6.79"/>
              <polyline class="cls-6" points="287.21 129.98 291.23 124.16 301.62 128.82 298.32 137.67"/>
              <path class="cls-17" d="m203.71,117.79s16.95-7.8,31.87,5.48c14.93,13.28,25.03,25.61,30.51,29.61l22.49-25.87,12.56,5.9c-3.31,18.73-12.61,48.61-35.35,51.69-24.61,3.33-60.7-27.01-60.7-27.01"/>
              <line class="cls-28" x1="258.79" y1="161.48" x2="266.09" y2="152.88"/>
            </g>
            <path class="cls-7" d="m294.74,375.58l-1.9,7.31c-.46,1.77.88,3.51,2.71,3.51h22.14c1.33,0,2.41-1.08,2.41-2.41h0c0-1.05-.68-1.98-1.68-2.3l-15.13-6.11"/>
            <path class="cls-12" d="m281.98,261.44c-3.53,37.15,12.76,114.14,12.76,114.14,0,0,3.87,4.68,8.55,0,0,0,3.93-73.41,8.06-106.41"/>
            <path class="cls-5" d="m229.17,217.93l25.41,13.33v.26s51.85-3.48,59.7,15.03c12.28,28.99,14.37,123.27,14.37,123.27h-37.95s-14.12-79.19-18.95-84.02c-4.83-4.83-24.74-4.47-61.36-4.47-41.13,0-21.05-53.03-5.74-57.58"/>
            <path class="cls-29" d="m293.32,369.81s-11.28-81.72-19.57-87.71c-10.12-7.32-57.92-2.54-57.92-2.54"/>
            <path class="cls-7" d="m215.16,375.58l-1.9,7.31c-.46,1.77.88,3.51,2.71,3.51h22.14c1.33,0,2.41-1.08,2.41-2.41h0c0-1.05-.68-1.98-1.68-2.3l-15.13-6.11"/>
            <path class="cls-12" d="m218.85,261.44c-3.54,37.15-3.69,114.14-3.69,114.14,0,0,3.87,4.68,8.55,0,0,0,13.32-73.41,17.46-106.41"/>
            <g>
              <path class="cls-5" d="m184.35,229.59s66.65,1.07,75.37,21.27c10.72,24.83-6.95,118.95-6.95,118.95h-40.17v-84.2c0-1.63-1.28-3.1-2.91-3.05-5.56.15-17.98.15-33.74.15-41.13,0-21.05-64.01-5.74-68.56"/>
              <path class="cls-29" d="m184.35,229.59s66.65,1.07,75.37,21.27c2.91,6.73,4.42,18.19,3.64,31.85"/>
              <path class="cls-29" d="m218.19,369.81s.41-84.52-1.53-89.04c-2.7-6.27-11.91-3.19-33.27-3.19-41.13,0-24.37-58.88-9.06-63.43"/>
              <path class="cls-29" d="m158.74,239.88s21.12.51,24.31-2.69,0-17.7,0-17.7"/>
              <path class="cls-24" d="m158.22,242.72s24.11.51,27.76-2.69,0-17.73,0-17.73"/>
            </g>
            <g>
              <path class="cls-17" d="m154.15,141.61s-5.06,89.9,2.6,89.9,92.83-.26,97.82-.26-6.69-76.88-23.51-93.12c0,0-24.95-27.07-35.94-24.48s-40.96,27.96-40.96,27.96h-.01Z"/>
              <line class="cls-28" x1="249.17" y1="182.5" x2="238.59" y2="139.15"/>
            </g>
            <g>
              <path class="cls-12" d="m111.07,157.89l-22.89-34.19-7.09,1.48c5.42,18.25,9,25.47,9,25.47"/>
              <path class="cls-12" d="m84.74,130.84l-3.65-5.66s-6.79-1.56-9.26-2.82-4.11-3.49-4.8-5.38c-.53-1.45-.3-5.69.32-5.76,1.46-.16,4.37,5.28,5.74,5.6,1.36.32,5.78-.01,8.22.31,4.09.54,5.82,4.37,5.82,4.37l3.74,6.79"/>
              <polyline class="cls-6" points="96.11 133.71 92.09 127.89 81.7 132.55 85 141.4"/>
              <path class="cls-17" d="m185.63,118.31s-16.75-11.91-34.04,2.72c-16.12,13.63-26.86,41.14-30.46,41.14-2.5,0-18.01-19.78-27.27-31.88l-11.01,5.89c6.94,21.19,22.07,57.24,44.71,57.24,17.76,0,54.24-41.61,54.24-41.61"/>
              <line class="cls-28" x1="152.69" y1="180.1" x2="179.69" y2="157.59"/>
            </g>
            <g>
              <polyline class="cls-32" points="187.24 120.43 203.33 137.67 205.44 117.74"/>
              <path class="cls-12" d="m200.16,103.02l4.53,9.92s1.82,5.68-5.72,8.26c-8.27,2.82-13.34-2.9-13.34-2.9l-1.19-15.57"/>
              <path class="cls-11" d="m185.19,112.64s5.96,7.46,13.78,8.57l-5.68,8.43c-4.6-2.59-10.23-12.65-10.23-12.65l2.13-4.34h0Z"/>
              <path class="cls-11" d="m204.22,111.58s-.95,5.33-5.25,9.62l6.47,4.89c1.49-3.66,1.32-9.36,1.32-9.36l-2.54-5.15h0Z"/>
              <path class="cls-12" d="m206.87,87s4.27,16.36-2.14,20.5c-6.42,4.14-17.58-2.16-18.22-4.21-.64-2.05-3.56-19.52.63-20.83,7.44-2.33,17.55-2.43,19.74,4.55h-.01Z"/>
              <g>
                <g>
                  <path class="cls-7" d="m206.73,92.31c.11.45-.17.9-.62,1-.45.11-.9-.17-1-.62-.11-.45.17-.9.62-1,.45-.11.9.17,1,.62Z"/>
                  <path class="cls-7" d="m205.3,87.44c.28.04,1.54.17,1.27.79-.12.28-.56.27-.8.25-.26-.01-.52-.05-.76.03.07.07.12.16.16.25.08.19-.54.21-.61.21-.62,0-1.36-.11-2.11.39.48-1.77,2.39-1.99,2.85-1.93h0Z"/>
                  <path class="cls-7" d="m196.45,94.58c.03.46.42.81.88.79.46-.03.81-.42.79-.88-.03-.46-.42-.81-.88-.79-.46.03-.81.42-.79.88Z"/>
                  <path class="cls-7" d="m193.98,91.27c-.6.32-1.11.76-.97,1.26.11.4.5.3.75.1.41-.32.87-.57,1.37-.73-.22.18-.35.47-.33.75,1.56-.15,2.92-1.5,3.09-3.06,0,.11-1.02.73-1.17.8-.88.41-1.85.4-2.73.87h0Z"/>
                </g>
                <path class="cls-25" d="m202.58,93.29s2.28,5.74,1.47,6.24-3.67.43-3.67.43"/>
              </g>
              <path class="cls-25" d="m202.66,108.45s-6.5,2.51-12.21-2.05"/>
              <path class="cls-25" d="m198.97,104.61s.58-2.53,4.74-2.53"/>
              <path class="cls-7" d="m210.49,78.22c-.07-.78-.19-1.61-.73-2.17-.61-.65-1.6-.78-2.49-.79-3.14-.02-6.27.98-8.82,2.81.7-.61,1.39-1.21,2.09-1.82.55-.48,1.79-1.24,1.19-2.14-.52-.79-2.01-.34-2.77-.35-3.58-.04-7.03,1.23-10.33,2.5-1.63.62-3.26,1.26-4.73,2.19s-2.78,2.2-3.49,3.79c-.62,1.39-.74,2.96-.73,4.48.02,2.74.45,5.46.88,8.17.47,2.95,1.18,8.77,5.14,9.13.77.07,1.61.12,2.24-.34.62-.45.83-1.26.93-2.02.15-1.23.06-2.49-.23-3.69.74.4,1.45,1.08,2.28.95.28-.04.56-.19.65-.45.06-.17.04-.35.02-.53-.31-2.83-.48-5.64-.66-8.48,4.06-.86,8.14-1.6,12.25-2.22,1.82-.27,3.75-.57,5.16-1.75,2.02-1.69,2.37-4.66,2.14-7.28h0Z"/>
              <path class="cls-12" d="m189.51,99.07c-.67-1.66-1.85-3.67-3.7-2.54-.65.4-1.02,1.25-1.27,2.08-.85,2.75,1.13,6.99,3.82,6.59,1.31-.19,2.04-1.75,2.58-3.04"/>
            </g>
          </g>
        </g>
        <g>
          <path class="cls-8" d="m434.67,277.72c-.01-8.91,3.8-17.75,10.28-23.86,3.2-3.01,7.02-5.34,11.14-6.85,2.32-.86,13.45-1.7,13.45-1.7,0,0-1.3,8.49-3.51,12.77-5.17,9.98-15.39,18.36-31.36,19.64"/>
          <path class="cls-16" d="m467.39,303.06c4.02-4.93,9.84-8.37,16.1-9.52s12.92,0,18.43,3.18c.18.1.37.23.42.43.06.24-.11.47-.28.65-5.17,5.79-13.19,8.91-20.91,8.14-3.39-.34-10.51-1.83-13.76-2.88"/>
          <path class="cls-8" d="m476.33,289.52c0-7.77,2.59-14.74,7.15-19.3s11.06-6.68,17.99-5.86c.23.03.48.07.66.28.22.25.23.6.21.89-.39,9.35-5.08,17.09-12.23,20.2-3.14,1.36-10.27,3.33-13.78,3.79"/>
          <path class="cls-16" d="m488.39,275.62c3.08-4.96,6.82-9.5,11.1-13.46,1.72-1.59,3.54-3.11,5.61-4.22,6.69-3.59,14.94-2.48,22.13-.05-2.86,5.43-6.59,10.75-12.08,13.5-2.43,1.22-5.09,1.88-7.74,2.47-5.26,1.17-13.67,1.06-19.01,1.75"/>
          <path class="cls-8" d="m484.57,262.66c-13.38-7.01-15.36-21.63-15.7-27.04-.21-3.39,0-7.16,2.83-9.6,16.58,5.84,20.82,17.06,12.86,36.63"/>
          <path class="cls-8" d="m426.9,260.55c1.04-7.12,2-14.77-1.24-21.2-1.16-2.3-2.81-4.33-4.61-6.18-4.35-4.48-10.05-8.18-16.29-8.19-1.12,6.67.23,13.73,3.75,19.51,3.51,5.78,9.15,10.24,15.59,12.31"/>
          <path class="cls-16" d="m465.82,307.12c-7.46-2.49-13.8-8.17-17.09-15.32-3.29-7.14-3.5-15.65-.55-22.94.13-.32.3-.68.64-.79.32-.1.65.06.94.23,11.54,6.63,19.44,25.94,16.07,38.82"/>
          <path class="cls-16" d="m434.45,267.79c-2.15-6.23-2.04-13.21.32-19.37,2.36-6.15,6.94-11.43,12.7-14.62,2.35-1.3,4.9-2.28,6.99-3.98.71,3.13,1.18,6.31,1.42,9.51.24,3.16.23,6.39-.61,9.45-2.17,7.91-9.46,13.29-16.78,16.98"/>
          <path class="cls-16" d="m424.78,266.59c-12.02,1.46-26.81-3.39-33.24-14.71,20.55-10.44,33.24,5.53,33.24,14.71"/>
          <path class="cls-16" d="m431.8,293.41c-2.69-9.23-9.79-16.8-18.33-19.56-8.54-2.77-18.29-.65-25.2,5.47-.29.25-.6.58-.57.98.02.24.15.45.28.64,4.59,6.64,11.92,10.56,19.41,12.21s15.23,1.26,22.86.69"/>
          <path class="cls-4" d="m416.35,244.2c4.69,4.61,8.09,10.32,10.69,16.33,2.77,6.42,4.78,13.19,6.51,19.95,3.69,14.37,5.79,29.08,7.27,43.82.83,8.28,1.38,16.59,2.32,24.86.03.27.44.28.43,0-.32-7.51-.99-15.02-1.73-22.5s-1.59-14.87-2.72-22.26c-1.13-7.41-2.53-14.78-4.35-22.06-1.7-6.81-3.68-13.63-6.37-20.12-2.79-6.74-6.47-13.21-11.84-18.23-.14-.13-.34.07-.2.2h0Z"/>
          <path class="cls-4" d="m438.45,301.15c-3.54-5.86-9.13-9.86-15.17-12.85-6.69-3.31-13.88-5.63-21.26-6.77-4.05-.63-8.26-1.05-12.36-.72-.23.02-.24.36,0,.37,3.71.18,7.39.29,11.07.81s7.08,1.27,10.52,2.29,6.95,2.33,10.27,3.88c3.06,1.43,6.07,3.03,8.78,5.06,3.04,2.28,5.55,5.07,7.72,8.18.18.26.59.03.42-.25h.01Z"/>
          <path class="cls-4" d="m434.81,283.6c.04-5.53-.56-11.03-.07-16.55.46-5.14,1.81-10.3,4.01-14.97,1.21-2.58,2.76-4.9,4.39-7.23.11-.16-.13-.34-.26-.2-1.73,1.81-3.1,4.05-4.22,6.28s-2.06,4.66-2.78,7.1c-1.52,5.16-1.99,10.46-1.87,15.82.07,3.25.23,6.53.58,9.77.02.14.23.15.23,0h0v-.02Z"/>
          <path class="cls-4" d="m406.92,255.74c3.66.38,7.02,2.44,9.97,4.52,3.52,2.49,6.72,5.4,9.88,8.32,1.62,1.5,3.2,3.07,4.91,4.47.16.13.38-.08.23-.23-2.97-2.98-6.16-5.82-9.36-8.54s-6.51-5.34-10.29-7.11c-1.69-.79-3.47-1.39-5.34-1.53-.07,0-.06.09,0,.1h0Z"/>
          <path class="cls-4" d="m461.14,324.73c1.07-5.67,2.45-11.2,4.59-16.57,2.12-5.31,4.83-10.39,8.02-15.14,6.4-9.49,14.78-17.65,24.49-23.72,2.72-1.7,5.53-3.23,8.44-4.58s5.99-2.44,9.04-3.58c.29-.11.18-.55-.13-.47-2.76.71-5.47,1.81-8.07,2.97s-5.23,2.51-7.73,3.98c-4.97,2.93-9.62,6.4-13.86,10.32-8.5,7.86-15.38,17.51-19.92,28.16-2.51,5.89-4.48,12.19-5.23,18.57-.02.21.33.26.37.05h0Z"/>
          <path class="cls-4" d="m477.39,237.35c5.35,11.16,8.54,24.29,6.07,36.62-.72,3.57-1.99,6.91-3.56,10.19-.14.3.27.56.45.26,3.38-5.51,4.63-12.34,4.65-18.73s-1.22-12.97-3.29-19.12c-1.09-3.24-2.42-6.4-3.97-9.45-.12-.24-.47-.03-.36.21h0v.02Z"/>
          <path class="cls-2" d="m486.55,315.01v11.72c0,46.46-12.23,59.67-12.23,59.67h-37.87s-12.23-13.21-12.23-59.67v-11.72h62.34,0Z"/>
        </g>
        <g>
          <g>
            <line class="cls-23" x1="79.87" y1="386.4" x2="111.98" y2="232.41"/>
            <line class="cls-23" x1="144.1" y1="386.4" x2="111.98" y2="232.41"/>
          </g>
          <g>
            <line class="cls-23" x1="404.24" y1="386.4" x2="436.36" y2="232.41"/>
            <line class="cls-23" x1="468.47" y1="386.4" x2="436.36" y2="232.41"/>
          </g>
          <rect class="cls-13" x="80.91" y="223.19" width="383.62" height="9.21"/>
          <g>
            <path class="cls-7" d="m446.04,205.63h-135.57c-2.42,0-4.25-2.19-3.83-4.57l15.58-87.61c.49-2.78,2.91-4.8,5.73-4.8h135.57c2.42,0,4.25,2.19,3.83,4.57l-15.58,87.61c-.49,2.78-2.91,4.8-5.73,4.8h0Z"/>
            <path class="cls-15" d="m449.19,205.63h-135.57c-2.42,0-4.25-2.19-3.83-4.57l15.58-87.61c.49-2.78,2.91-4.8,5.73-4.8h135.57c2.42,0,4.25,2.19,3.83,4.57l-15.58,87.61c-.49,2.78-2.91,4.8-5.73,4.8h0Z"/>
            <path class="cls-10" d="m424.25,205.63h-78.3c-1.4,0-2.45-1.26-2.21-2.64l9-50.6c.28-1.6,1.68-2.77,3.31-2.77h78.3c1.4,0,2.45,1.26,2.21,2.64l-9,50.6c-.28,1.6-1.68,2.77-3.31,2.77h0Z"/>
            <path class="cls-9" d="m426.12,205.63h-78.3c-1.4,0-2.45-1.26-2.21-2.64l9-50.6c.28-1.6,1.68-2.77,3.31-2.77h78.3c1.4,0,2.45,1.26,2.21,2.64l-9,50.6c-.28,1.6-1.68,2.77-3.31,2.77h0Z"/>
            <rect class="cls-18" x="376.99" y="175.87" width="31.78" height="29.76"/>
            <path class="cls-7" d="m406.95,175.87h-29.96v8.55l8.18,33.94h31.8l-10.02-42.49Zm-7.69,33.43c-3.56,0-7.33-4.15-8.41-9.28s.93-9.28,4.49-9.28,7.33,4.15,8.41,9.28-.93,9.28-4.49,9.28Z"/>
            <path class="cls-7" d="m359.46,218.36h71.18v4.83h-76.02c0-2.67,2.16-4.83,4.83-4.83h.01Z"/>
            <rect class="cls-15" x="373.74" y="218.36" width="56.91" height="4.83"/>
            <path class="cls-15" d="m408.79,175.87h-31.8l10.02,42.49h31.8l-10.02-42.49Zm-7.8,33.43c-3.56,0-7.33-4.15-8.41-9.28-1.08-5.12.93-9.28,4.49-9.28s7.33,4.15,8.41,9.28-.93,9.28-4.49,9.28Z"/>
            <g class="cls-20">
              <polygon class="cls-18" points="334.54 117.28 332.65 127.88 334.54 127.88 336.42 117.28 334.54 117.28"/>
              <polygon class="cls-18" points="339.99 117.28 338.1 127.88 339.99 127.88 341.87 117.28 339.99 117.28"/>
              <polygon class="cls-18" points="345.44 117.28 343.55 127.88 345.44 127.88 347.32 117.28 345.44 117.28"/>
              <polygon class="cls-18" points="350.89 117.28 349 127.88 350.89 127.88 352.77 117.28 350.89 117.28"/>
              <polygon class="cls-18" points="356.34 117.28 354.45 127.88 356.34 127.88 358.22 117.28 356.34 117.28"/>
            </g>
            <g class="cls-20">
              <polygon class="cls-18" points="406.07 117.28 404.18 127.88 406.07 127.88 407.95 117.28 406.07 117.28"/>
              <polygon class="cls-18" points="411.79 117.28 409.91 127.88 411.79 127.88 413.68 117.28 411.79 117.28"/>
              <polygon class="cls-18" points="417.52 117.28 415.64 127.88 417.52 127.88 419.4 117.28 417.52 117.28"/>
              <polygon class="cls-18" points="423.25 117.28 421.36 127.88 423.25 127.88 425.13 117.28 423.25 117.28"/>
              <polygon class="cls-18" points="428.97 117.28 427.09 127.88 428.97 127.88 430.86 117.28 428.97 117.28"/>
              <polygon class="cls-18" points="434.7 117.28 432.82 127.88 434.7 127.88 436.58 117.28 434.7 117.28"/>
              <polygon class="cls-18" points="440.43 117.28 438.54 127.88 440.43 127.88 442.31 117.28 440.43 117.28"/>
              <polygon class="cls-18" points="446.15 117.28 444.27 127.88 446.15 127.88 448.04 117.28 446.15 117.28"/>
              <polygon class="cls-18" points="451.88 117.28 450 127.88 451.88 127.88 453.76 117.28 451.88 117.28"/>
              <polygon class="cls-18" points="457.61 117.28 455.73 127.88 457.61 127.88 459.49 117.28 457.61 117.28"/>
            </g>
          </g>
          <g>
            <g class="cls-34">
              <path class="cls-3" d="m188.97,199.19s.88-.16,1.24-.66c.74-1.03-.49-2.12-1.29-2.64-1.03-.66-2.44-.88-2.94-2.14-.56-1.42.41-3,1.58-3.78.99-.65,2.15-.98,3.26-1.4,1.24-.46,2.49-1.21,3.21-2.37.9-1.45.72-3.31.84-4.94.46-6.38,6.99-9.55,12.48-9.68,2.75-.06,6.95.92,8.77,3.05.61.72,1.08,1.57,1.25,2.5.27,1.44-.29,2.77-1.22,3.84-.94,1.08-2.24,1.71-3.27,2.68-1.07,1-.31,2.06-.55,3.26-.27,1.33-1.16,1.9-2.32,2.54-2.44,1.36-5.31,1.7-7.96,2.44-.83.23-1.66.51-2.33,1.05-.87.7-1.36,1.74-2.01,2.64-1.2,1.63-3.01,2.8-4.99,3.2"/>
            </g>
            <path class="cls-19" d="m204.25,215.25h-5.21v-2.49h5.21c1.68,0,3.05-1.37,3.05-3.05v-4.28c0-1.68-1.37-3.05-3.05-3.05h-5.21v-2.49h5.21c3.05,0,5.53,2.48,5.53,5.53v4.28c0,3.05-2.48,5.53-5.53,5.53v.02Z"/>
            <path class="cls-19" d="m181.91,196.38h21.04v19.29c0,3.38-2.74,6.12-6.12,6.12h-8.79c-3.38,0-6.12-2.74-6.12-6.12v-19.29h-.01Z"/>
            <path class="cls-9" d="m178.51,218.25s.2,4.95,7.89,4.95h12.06c7.69,0,7.89-4.95,7.89-4.95h-27.84Z"/>
          </g>
          <g>
            <g>
              <rect class="cls-7" x="236.27" y="221.22" width="111.28" height="1.98"/>
              <rect class="cls-7" x="240.07" y="219.62" width="7.97" height="1.59"/>
              <rect class="cls-7" x="252.14" y="219.62" width="7.97" height="1.59"/>
              <rect class="cls-7" x="264.21" y="219.62" width="7.97" height="1.59"/>
              <rect class="cls-7" x="276.28" y="219.62" width="7.97" height="1.59"/>
              <rect class="cls-7" x="288.36" y="219.62" width="7.97" height="1.59"/>
              <rect class="cls-7" x="300.43" y="219.62" width="7.97" height="1.59"/>
              <rect class="cls-7" x="312.5" y="219.62" width="7.97" height="1.59"/>
              <rect class="cls-7" x="324.57" y="219.62" width="7.97" height="1.59"/>
              <rect class="cls-7" x="336.64" y="219.62" width="7.97" height="1.59"/>
            </g>
            <g>
              <rect class="cls-15" x="237.72" y="221.22" width="111.28" height="1.98"/>
              <rect class="cls-15" x="241.53" y="219.62" width="7.97" height="1.59"/>
              <rect class="cls-15" x="253.6" y="219.62" width="7.97" height="1.59"/>
              <rect class="cls-15" x="265.67" y="219.62" width="7.97" height="1.59"/>
              <rect class="cls-15" x="277.74" y="219.62" width="7.97" height="1.59"/>
              <rect class="cls-15" x="289.81" y="219.62" width="7.97" height="1.59"/>
              <rect class="cls-15" x="301.88" y="219.62" width="7.97" height="1.59"/>
              <rect class="cls-15" x="313.95" y="219.62" width="7.97" height="1.59"/>
              <rect class="cls-15" x="326.03" y="219.62" width="7.97" height="1.59"/>
              <rect class="cls-15" x="338.1" y="219.62" width="7.97" height="1.59"/>
            </g>
          </g>
        </g>
        <g>
          <path class="cls-8" d="m79.38,297.84c1.38-5.49.77-11.46-1.7-16.55-2.47-5.09-6.78-9.27-11.95-11.57-2.11-.94-4.37-1.59-6.27-2.89-.37,2.73-.54,5.49-.51,8.24.03,2.73.27,5.49,1.22,8.04,2.44,6.61,9.08,10.67,15.62,13.29"/>
          <path class="cls-4" d="m80.18,315.56c.13-5.02.05-10.11-.33-15.11-.17-2.2-.4-4.43-.96-6.58-.68-2.61-1.66-5.18-2.87-7.59-1.39-2.77-3.17-5.57-5.53-7.63-.16-.14-.38.07-.24.24,1.78,2.14,3.44,4.3,4.77,6.76s2.35,5.1,3.13,7.8c1.32,4.56,1.34,9.48,1.48,14.19.08,2.64.06,5.29.31,7.92.01.14.22.15.23,0h.01Z"/>
          <path class="cls-8" d="m63.83,332.33c-.96-7.59-5.17-14.71-11.36-19.21-3.05-2.22-6.56-3.78-10.24-4.63-2.07-.48-11.64.02-11.64.02,0,0,2.03,7.09,4.38,10.5,5.49,7.94,15.11,13.97,28.86,13.32"/>
          <path class="cls-16" d="m55.46,307.89c-.25-4.59-1.09-9.15-2.5-13.51-.57-1.75-1.23-3.49-2.21-5.04-3.16-5.02-9.07-7.36-14.76-8.39-.07,4.84.48,9.93,3.15,13.91,1.18,1.76,2.72,3.22,4.27,4.63,3.09,2.8,8.74,5.9,12.06,8.4"/>
          <path class="cls-16" d="m87.76,291.16c-.89-6.12-1.72-12.69,1.07-18.21,1-1.98,2.42-3.72,3.96-5.31,3.74-3.85,8.63-7.03,13.99-7.04.96,5.73-.2,11.79-3.22,16.76-3.02,4.97-10.27,12.01-15.8,13.79"/>
          <path class="cls-16" d="m77.94,326.7c5.69,1.18,11.84-.09,16.6-3.43s8.04-8.69,8.87-14.44c.04-.25.06-.55-.11-.74-.16-.18-.44-.2-.68-.2-9.83-.05-22.04,9.34-24.67,18.81"/>
          <path class="cls-16" d="m57.71,304.58c8.1-4.56,13.31-13.7,13.46-23.62-5.85-.32-10.25,3.27-12.8,6.38-3.55,4.32-3.85,11.91-.66,17.25"/>
          <path class="cls-16" d="m63.59,320.61c-2.16-5.39-1.48-11.83,1.76-16.65s8.95-7.88,14.76-7.9c.24,0,.52.02.66.22.08.12.09.27.1.41.22,4.98-1.97,9.83-5.11,13.7-3.14,3.87-7.18,6.89-11.23,9.78"/>
          <path class="cls-4" d="m96.64,276.93c-4.14,3.86-7.13,8.73-9.43,13.88-2.42,5.42-4.16,11.14-5.68,16.87-3.28,12.39-5.09,25.13-6.41,37.86-.74,7.22-1.43,14.49-1.7,21.74-.01.28.4.27.43,0,.76-6.36,1.18-12.77,1.8-19.15s1.33-12.67,2.28-18.96,2.1-12.43,3.6-18.56,3.09-11.72,5.3-17.35c2.32-5.92,5.46-11.62,10.02-16.13.13-.13-.07-.33-.2-.2h-.01Z"/>
          <path class="cls-4" d="m63.58,329.18c0-1.12-.1-2.24-.06-3.36.04-1.28.15-2.57.33-3.84.17-1.2.39-2.39.67-3.57.25-1.06.68-2.13.83-3.22.03-.2-.25-.22-.34-.09-.63.91-.88,2.17-1.14,3.23-.29,1.21-.5,2.44-.67,3.67s-.27,2.55-.3,3.83c-.03,1.12-.06,2.33.21,3.43.07.27.48.21.48-.07h-.01Z"/>
          <path class="cls-4" d="m64.26,287.82c-2.42,2.11-3.89,5.19-4.89,8.2-1.22,3.69-1.79,7.64-1.65,11.52.08,2.15.33,4.39,1.05,6.43.07.19.36.12.31-.09-.87-3.75-1.2-7.47-.78-11.31.4-3.63,1.35-7.29,3.03-10.54.78-1.51,1.75-2.96,3-4.13.05-.05-.02-.11-.07-.07h0Z"/>
          <path class="cls-4" d="m66.62,357.36c.14-4.28-.22-8.61-.65-12.86-.45-4.46-1.12-8.9-2.04-13.28-1.87-8.91-4.76-17.7-9.19-25.68-1.22-2.2-2.55-4.33-4.01-6.37s-3.01-4.11-4.84-5.82c-.23-.22-.53.1-.34.34,1.42,1.76,2.91,3.44,4.24,5.27s2.53,3.67,3.65,5.59c2.29,3.92,4.19,8.05,5.77,12.3,3.13,8.42,5.02,17.28,6.05,26.18.55,4.77.7,9.54.97,14.33.01.24.37.24.38,0h.01Z"/>
          <path class="cls-2" d="m99.7,337.7v7.99c0,31.69-10.51,40.7-10.51,40.7h-32.53s-10.51-9.01-10.51-40.7v-7.99h53.55Z"/>
        </g>
        <line class="cls-21" x1="28.29" y1="386.4" x2="538.74" y2="386.4"/>
      </g>
    </g>
  </g>
</svg>