<?xml version="1.0" encoding="UTF-8"?>
<svg id="Layer_2" data-name="Layer 2" xmlns="http://www.w3.org/2000/svg" width="422.37" height="399.53" viewBox="0 0 422.37 399.53">
  <defs>
    <style>
      .cls-1 {
        opacity: .3;
      }

      .cls-1, .cls-2, .cls-3, .cls-4, .cls-5, .cls-6, .cls-7, .cls-8, .cls-9, .cls-10, .cls-11, .cls-12, .cls-13, .cls-14, .cls-15, .cls-16, .cls-17 {
        stroke-width: 0px;
      }

      .cls-1, .cls-2, .cls-6, .cls-10 {
        isolation: isolate;
      }

      .cls-2, .cls-3 {
        fill: #00b2e3;
      }

      .cls-2, .cls-6, .cls-10 {
        opacity: .2;
      }

      .cls-4 {
        fill: #ff8b7b;
      }

      .cls-5 {
        fill: #ff5652;
      }

      .cls-7 {
        fill: #6c757d;
      }

      .cls-8 {
        fill: #c7c7c7;
      }

      .cls-9, .cls-10 {
        fill: #fff;
      }

      .cls-11 {
        fill: #0055b8;
      }

      .cls-12 {
        fill: #263238;
      }

      .cls-13 {
        fill: #82898e;
        opacity: .2;
      }

      .cls-14 {
        fill: #a6a6a6;
      }

      .cls-15 {
        fill: #dbdbdb;
      }

      .cls-16 {
        fill: #ebebeb;
      }

      .cls-17 {
        fill: #455a64;
      }
    </style>
  </defs>
  <g id="Layer_2-2" data-name="Layer 2">
    <g id="Layer_2-2" data-name="Layer 2-2">
      <g id="Lines">
        <g>
          <g>
            <path class="cls-16" d="m392.99,263.54c-7.69.14-18.89.45-26.48.45h-.44v-.45l-.06-11.19v-.5h.5c7.93.04,18.94.08,26.76.23-.02,3.39-.22,8.04-.28,11.46h0Zm0,0c-.1-3.27-.2-7.98-.27-11.19l.27.27c-7.66.14-18.71.21-26.48.23l.5-.5-.05,11.19-.45-.45c7.49.02,18.89.29,26.48.45h0Z"/>
            <path class="cls-16" d="m378.22,277.65c-7.69.14-18.89.45-26.48.45h-.44v-.45l-.05-11.19v-.5h.5c7.93.04,18.94.07,26.76.23-.02,3.39-.22,8.04-.28,11.46h-.01Zm0,0c-.1-3.27-.2-7.98-.27-11.19l.27.27c-7.66.14-18.71.21-26.48.23l.5-.5-.05,11.19-.45-.45c7.49.02,18.89.29,26.48.45h0Z"/>
            <path class="cls-16" d="m43.16,263.54c-7.69.14-18.89.45-26.48.45h-.44v-.45l-.06-11.19v-.5h.5c7.93.04,18.94.07,26.76.23-.02,3.39-.22,8.04-.28,11.46h0Zm0,0c-.1-3.27-.2-7.98-.27-11.19l.27.27c-7.66.14-18.71.21-26.48.23l.5-.5-.05,11.19-.45-.45c7.49.02,18.89.29,26.48.45h0Z"/>
            <path class="cls-16" d="m28.39,277.65c-7.69.14-18.89.45-26.48.45h-.44v-.45l-.05-11.19v-.5h.5c7.93.04,18.94.07,26.76.23-.02,3.39-.22,8.04-.28,11.46h-.01Zm0,0c-.1-3.27-.2-7.98-.27-11.19l.27.27c-7.66.14-18.71.21-26.48.23l.5-.5-.05,11.19-.45-.45c7.49.02,18.89.29,26.48.45h0Z"/>
            <path class="cls-16" d="m407.76,277.65c-7.69.14-18.89.45-26.48.45h-.44v-.45l-.05-11.19v-.5h.5c7.93.04,18.94.07,26.76.23-.02,3.39-.22,8.04-.28,11.46h-.01Zm0,0c-.1-3.27-.2-7.98-.27-11.19l.27.27c-7.66.14-18.71.21-26.48.23l.5-.5-.05,11.19-.45-.45c7.49.02,18.89.29,26.48.45h0Z"/>
            <path class="cls-16" d="m105.41,84.66c-7.69.14-18.89.45-26.48.45h-.44v-.45l-.06-11.19v-.5h.5c7.93.04,18.94.07,26.76.23-.02,3.39-.22,8.04-.28,11.46h0Zm0,0c-.1-3.27-.2-7.98-.27-11.19l.27.27c-7.66.14-18.71.21-26.48.23l.5-.5-.05,11.19-.45-.45c7.49.02,18.89.29,26.48.45h0Z"/>
            <path class="cls-16" d="m90.64,98.77c-7.69.14-18.89.45-26.48.45h-.44v-.45l-.05-11.19v-.5h.5c7.93.04,18.94.08,26.76.23-.02,3.39-.22,8.04-.28,11.46h-.01Zm0,0c-.1-3.27-.2-7.98-.27-11.19l.27.27c-7.66.14-18.71.21-26.48.23l.5-.5-.05,11.19-.45-.45c7.49.02,18.89.29,26.48.45h0Z"/>
            <path class="cls-16" d="m120.18,98.77c-7.69.14-18.89.45-26.48.45h-.44v-.45l-.06-11.19v-.5h.5c7.93.04,18.94.07,26.76.23-.02,3.39-.22,8.04-.28,11.46h0Zm0,0c-.1-3.27-.2-7.98-.27-11.19l.27.27c-7.66.14-18.71.21-26.48.23l.5-.5-.05,11.19-.45-.45c7.49.02,18.89.29,26.48.45h0Z"/>
            <path class="cls-16" d="m262.14,163.04c-7.69.14-18.89.45-26.48.45h-.44v-.45l-.06-11.19v-.5h.5c7.93.04,18.94.07,26.76.23-.02,3.39-.22,8.04-.28,11.46h0Zm0,0c-.1-3.27-.2-7.98-.27-11.19l.27.27c-7.66.14-18.71.21-26.48.23l.5-.5-.05,11.19-.45-.45c7.49.02,18.89.29,26.48.45h0Z"/>
            <path class="cls-16" d="m391.46,11.69c-7.69.14-18.89.45-26.48.45h-.44v-.45l-.06-11.19v-.5h.5c7.93.04,18.94.07,26.76.23-.02,3.39-.22,8.04-.28,11.46h0Zm0,0c-.1-3.27-.2-7.98-.27-11.19l.27.27c-7.66.14-18.71.21-26.48.23l.5-.5-.05,11.19-.45-.45c7.49.02,18.89.29,26.48.45h0Z"/>
            <path class="cls-16" d="m406.23,25.8c-7.69.14-18.89.45-26.48.45h-.44v-.45l-.06-11.19v-.5h.5c7.93.04,18.94.07,26.76.23-.02,3.39-.22,8.04-.28,11.46h0Zm0,0c-.1-3.27-.2-7.98-.27-11.19l.27.27c-7.66.14-18.71.21-26.48.23l.5-.5-.05,11.19-.45-.45c7.49.02,18.89.29,26.48.45h0Z"/>
            <path class="cls-16" d="m28.39,11.7c-7.69.14-18.89.45-26.48.45h-.44v-.45l-.06-11.19V0h.5c7.93.04,18.94.08,26.76.23-.02,3.39-.22,8.04-.28,11.46h0Zm0,0c-.1-3.27-.2-7.98-.27-11.19l.27.27c-7.66.14-18.71.21-26.48.23l.5-.5-.05,11.19-.45-.45c7.49.02,18.89.29,26.48.45h0Z"/>
          </g>
          <g>
            <g>
              <rect class="cls-15" x="124.66" y="201.03" width="12.87" height="171.16" transform="translate(-174.28 364.56) rotate(-79.74)"/>
              <g>
                <polygon class="cls-8" points="58.14 266.86 46.21 275.14 48.04 265.04 58.14 266.86"/>
                <polygon class="cls-8" points="77.31 270.33 62.35 280.7 52.11 278.85 67.07 268.48 77.31 270.33"/>
                <polygon class="cls-8" points="96.46 273.8 81.51 284.17 71.27 282.32 86.23 271.95 96.46 273.8"/>
                <polygon class="cls-8" points="115.63 277.27 100.67 287.64 90.43 285.79 105.39 275.42 115.63 277.27"/>
                <polygon class="cls-8" points="134.78 280.74 119.83 291.11 109.59 289.26 124.54 278.89 134.78 280.74"/>
                <polygon class="cls-8" points="153.95 284.21 138.98 294.58 128.75 292.73 143.71 282.36 153.95 284.21"/>
                <polygon class="cls-8" points="173.1 287.68 158.15 298.05 147.91 296.19 162.86 285.82 173.1 287.68"/>
                <polygon class="cls-8" points="192.26 291.15 177.3 301.52 167.07 299.66 182.03 289.29 192.26 291.15"/>
                <polygon class="cls-8" points="211.42 294.62 196.47 304.99 186.23 303.13 201.19 292.76 211.42 294.62"/>
                <polygon class="cls-8" points="215.76 299.41 214.17 308.19 205.39 306.6 215.76 299.41"/>
              </g>
            </g>
            <g>
              <rect class="cls-15" x="45.52" y="280.19" width="171.16" height="12.87" transform="translate(-31.27 16.49) rotate(-6.43)"/>
              <g>
                <path class="cls-8" d="m49.47,295.4c0,.11,0,.22-.03.32-.04.1-.09.2-.16.28s-.15.15-.25.21-.2.09-.3.1c-.16.02-.3-.02-.41-.12s-.18-.23-.19-.39c0-.11,0-.22.04-.32s.09-.2.16-.28.15-.15.24-.21c.09-.05.19-.09.3-.1.16-.02.3.02.41.12s.18.23.19.39Z"/>
                <path class="cls-8" d="m53.5,292.78l1.6-.18c.29-.03.55-.02.78.05s.42.17.58.31c.16.14.28.31.38.52.09.2.15.43.18.67.04.39.02.77-.08,1.12-.1.35-.25.66-.46.93s-.47.49-.78.67c-.31.17-.65.28-1.03.32l-1.6.18.45-4.58h-.02Zm1.24,3.47c.21-.02.4-.09.56-.2.16-.11.3-.25.4-.42.11-.17.18-.36.23-.57.04-.21.05-.43.03-.65-.03-.29-.13-.52-.29-.69-.16-.16-.38-.23-.66-.2l-.57.06-.27,2.73.57-.06h0Z"/>
                <path class="cls-8" d="m59.29,296.7c-.27.03-.52,0-.74-.07-.22-.08-.41-.2-.58-.36-.16-.16-.29-.35-.39-.56-.1-.22-.16-.45-.19-.69-.03-.23-.02-.45.03-.68.04-.23.11-.44.21-.66.1-.21.22-.41.36-.6.15-.19.31-.35.5-.5s.39-.26.6-.36c.21-.09.44-.15.68-.18.27-.03.51,0,.74.08.22.08.41.2.57.36.16.16.29.34.39.56s.16.45.19.69c.04.34,0,.67-.11,1.01s-.27.64-.49.92-.48.51-.78.7-.63.3-.98.34h0Zm.1-.94c.22-.02.41-.1.57-.22s.29-.27.39-.45c.1-.18.17-.37.22-.57.04-.21.05-.4.03-.59-.02-.14-.05-.27-.09-.39-.05-.12-.11-.22-.19-.31-.08-.09-.17-.15-.28-.19s-.24-.06-.38-.04c-.21.02-.4.1-.57.22-.16.12-.3.27-.4.44s-.17.36-.22.57c-.04.21-.05.4-.03.59.02.14.05.27.09.39.05.12.11.22.19.31.08.09.17.15.28.2.11.05.24.06.38.04h.01Z"/>
                <path class="cls-8" d="m63.94,291.6l.81-.09,1.64,2.48.26-2.69,1.03-.12-.45,4.58-.82.09-1.63-2.41-.25,2.62-1.03.12.45-4.58h-.01Z"/>
                <path class="cls-8" d="m69.95,295.5c-.27.03-.52,0-.74-.07-.22-.08-.41-.2-.58-.36-.16-.16-.29-.35-.39-.56-.1-.22-.16-.45-.19-.69-.03-.23-.02-.45.03-.68.04-.23.11-.44.21-.66.1-.21.22-.41.36-.6.15-.19.31-.35.5-.5.19-.14.39-.26.6-.36.21-.09.44-.15.68-.18.27-.03.51,0,.74.08.22.08.41.2.57.36.16.16.29.34.39.56s.16.45.19.69c.04.34,0,.67-.11,1.01s-.27.64-.49.92-.48.51-.78.7c-.3.19-.63.3-.98.34h0Zm.1-.94c.22-.02.41-.1.57-.22.16-.12.29-.27.39-.45.1-.18.17-.37.22-.57.04-.21.05-.4.03-.59-.02-.14-.05-.27-.09-.39-.05-.12-.11-.22-.19-.31s-.17-.15-.28-.19-.24-.06-.38-.04c-.21.02-.4.1-.57.22-.16.12-.3.27-.4.44s-.17.36-.22.57c-.04.21-.05.4-.03.59.02.14.05.27.09.39.05.12.11.22.19.31s.17.15.28.2c.11.05.24.06.38.04h.01Z"/>
                <path class="cls-8" d="m73.6,291.44l-1.28.14.09-.93,3.59-.4-.09.93-1.27.14-.36,3.65-1.03.12.36-3.65h-.01Z"/>
                <path class="cls-8" d="m79.26,294.45c-.26.03-.51,0-.72-.08-.22-.08-.41-.21-.57-.37-.16-.16-.29-.35-.39-.58-.1-.22-.16-.45-.19-.7-.02-.21-.02-.42.02-.63.04-.22.1-.43.19-.64.09-.21.2-.4.35-.59.14-.19.3-.35.49-.5.18-.15.39-.27.61-.37s.46-.16.72-.19c.4-.05.74,0,1.02.16.28.15.47.37.59.65l-.85.66c-.03-.12-.08-.21-.14-.28s-.13-.13-.21-.17-.17-.07-.26-.07h-.26c-.22.02-.41.1-.57.22-.16.12-.29.27-.39.45-.1.17-.17.36-.21.56s-.05.39-.03.57c.02.14.05.28.1.4.05.12.11.23.2.32.08.09.18.16.29.2s.23.06.37.04c.09-.01.18-.03.27-.07.09-.03.18-.08.27-.14.09-.06.17-.13.25-.22s.14-.19.19-.31l.8.41c-.08.18-.19.34-.33.48-.14.15-.3.28-.47.39-.17.11-.35.2-.54.27-.19.07-.37.11-.55.13h-.05,0Z"/>
                <path class="cls-8" d="m81.59,294.15l.45-4.58,1.92-.22c.18-.02.34,0,.48.05.14.06.27.14.38.24.11.11.2.23.26.38.07.15.11.3.13.46.02.15.01.31-.02.47s-.08.31-.15.46-.16.28-.27.41c-.11.13-.23.24-.36.33l.76,1.6-1.17.13-.65-1.39-.59.07-.14,1.48-1.03.12h0Zm2.13-2.61c.06,0,.12-.03.18-.08s.11-.11.15-.18.07-.16.1-.26c.02-.1.03-.2.01-.3-.02-.14-.06-.25-.13-.32-.07-.08-.14-.11-.23-.1l-.83.09-.12,1.25.86-.1h.01Z"/>
                <path class="cls-8" d="m87.53,293.52c-.27.03-.52,0-.74-.07-.22-.08-.41-.2-.58-.36-.16-.16-.29-.35-.39-.56-.1-.22-.16-.45-.19-.69-.03-.23-.02-.45.03-.68.04-.23.11-.44.21-.66.1-.21.22-.41.36-.6.15-.19.31-.35.5-.5.19-.14.39-.26.6-.36.21-.09.44-.15.68-.18.27-.03.51,0,.74.08.22.08.41.2.57.36.16.16.29.34.39.56s.16.45.19.69c.04.34,0,.67-.11,1.01s-.27.64-.49.92-.48.51-.78.7c-.3.19-.63.3-.98.34h0Zm.1-.94c.22-.02.41-.1.57-.22.16-.12.29-.27.39-.45.1-.18.17-.37.22-.57.04-.21.05-.4.03-.59-.02-.14-.05-.27-.09-.39-.05-.12-.11-.22-.19-.31s-.17-.15-.28-.19-.24-.06-.38-.04c-.21.02-.4.1-.57.22-.16.12-.3.27-.4.44s-.17.36-.22.57c-.04.21-.05.4-.03.59.02.14.05.27.1.39.05.12.11.22.19.31s.17.15.28.2c.11.05.24.06.38.04Z"/>
                <path class="cls-8" d="m91.81,293.05c-.31.04-.63.02-.94-.04-.31-.06-.59-.17-.83-.32l.54-.97s.06.06.14.11.18.1.3.14c.12.05.26.08.42.11.16.03.32.04.48.02.2-.02.34-.08.42-.16.08-.08.11-.18.09-.3,0-.07-.04-.13-.09-.17-.05-.04-.12-.08-.21-.11s-.19-.06-.3-.08-.23-.05-.36-.08c-.31-.08-.56-.18-.72-.31-.17-.13-.26-.32-.29-.57-.03-.27,0-.52.08-.74.08-.23.21-.42.37-.59.16-.17.35-.3.58-.4.22-.1.46-.17.7-.2.15-.02.3-.02.44,0,.14.01.28.04.4.07.13.03.25.07.36.12s.21.1.3.14l-.53.93s-.05-.04-.11-.08c-.07-.04-.15-.08-.25-.12s-.22-.07-.34-.1c-.13-.02-.25-.03-.38-.02-.18.02-.31.07-.4.16-.09.09-.13.2-.11.34.01.12.09.21.23.25.14.05.33.09.58.14.17.03.32.07.46.12s.26.11.37.18c.1.07.19.16.25.27s.1.24.12.39c.03.3,0,.56-.08.78-.09.22-.22.41-.39.56s-.37.27-.59.35c-.22.08-.45.14-.68.17h-.03Z"/>
                <path class="cls-8" d="m95.55,292.63c-.31.04-.63.02-.94-.04-.31-.06-.59-.17-.83-.32l.54-.97s.06.06.14.11.18.1.3.14c.12.05.26.08.42.11.16.03.32.04.48.02.2-.02.34-.08.42-.16.08-.08.11-.18.09-.3,0-.07-.04-.13-.09-.17-.05-.04-.12-.08-.21-.11s-.19-.06-.3-.08-.23-.05-.36-.08c-.31-.08-.56-.18-.72-.31-.17-.13-.26-.32-.29-.57-.03-.27,0-.52.08-.74.08-.23.21-.42.37-.59.16-.17.35-.3.58-.4.22-.1.46-.17.7-.2.15-.02.3-.02.44,0,.14.01.28.04.4.07.13.03.25.07.36.12s.21.1.3.14l-.53.93s-.05-.04-.11-.08c-.07-.04-.15-.08-.25-.12s-.22-.07-.34-.09c-.13-.02-.25-.03-.38-.02-.18.02-.31.07-.4.16-.09.09-.13.2-.11.34.01.12.09.21.23.25.14.05.33.09.58.14.17.03.32.07.46.12s.26.11.36.18.19.16.25.27.1.24.12.39c.03.3,0,.56-.08.78-.09.22-.22.41-.39.56s-.37.27-.59.35c-.22.08-.45.14-.68.17h-.02Z"/>
                <path class="cls-8" d="m100.83,289.61c.01.11,0,.22-.03.32-.04.1-.09.2-.16.28-.07.08-.15.15-.25.21s-.2.09-.3.1c-.16.02-.3-.02-.41-.12s-.18-.23-.19-.39c-.01-.11,0-.22.04-.32s.09-.2.16-.28c.07-.08.15-.15.25-.21.09-.05.19-.09.3-.1.16-.02.3.02.41.12s.18.23.19.39h-.01Z"/>
                <path class="cls-8" d="m104.85,287l1.6-.18c.29-.03.55-.02.78.05.23.07.42.17.58.31.16.14.28.31.38.52.09.2.15.43.18.67.04.39.02.77-.08,1.12s-.25.66-.46.93-.47.49-.78.67c-.31.17-.65.28-1.03.32l-1.6.18.45-4.58h-.02Zm1.24,3.47c.21-.02.4-.09.56-.2.16-.11.3-.25.4-.42.11-.17.18-.36.23-.57.04-.21.05-.43.03-.65-.03-.29-.13-.52-.29-.69-.16-.16-.38-.23-.66-.2l-.57.06-.27,2.73.57-.06h0Z"/>
                <path class="cls-8" d="m110.67,290.91c-.27.03-.52,0-.74-.07-.22-.08-.41-.2-.58-.36-.16-.16-.29-.35-.39-.56-.1-.22-.16-.45-.19-.69-.03-.23-.02-.45.03-.68.04-.23.11-.44.21-.66.1-.21.22-.41.36-.6.15-.19.31-.35.5-.5.19-.14.39-.26.6-.36.21-.09.44-.15.68-.18.27-.03.51,0,.74.08.22.08.41.2.57.36.16.16.29.34.39.56s.16.45.19.69c.04.34,0,.67-.11,1.01s-.27.64-.49.92-.48.51-.78.7c-.3.19-.63.3-.98.34h0Zm.1-.94c.22-.02.41-.1.57-.22.16-.12.29-.27.39-.45s.17-.37.22-.57c.04-.21.05-.4.03-.59-.02-.14-.05-.27-.09-.39-.05-.12-.11-.22-.19-.31s-.17-.15-.28-.19-.24-.06-.38-.04c-.21.02-.4.1-.57.22-.16.12-.3.27-.4.44s-.17.36-.22.57c-.04.21-.05.4-.03.59.02.14.05.27.1.39.05.12.11.22.19.31s.17.15.28.2c.11.05.24.06.38.04Z"/>
                <path class="cls-8" d="m115.31,285.82l.81-.09,1.64,2.48.26-2.69,1.03-.12-.45,4.58-.82.09-1.63-2.41-.25,2.62-1.03.12.45-4.58h-.01Z"/>
                <path class="cls-8" d="m121.33,289.71c-.27.03-.52,0-.74-.07-.22-.08-.41-.2-.58-.36-.16-.16-.29-.35-.39-.56-.1-.22-.16-.45-.19-.69-.03-.23-.02-.45.03-.68.04-.23.11-.44.21-.66.1-.21.22-.41.36-.6.15-.19.31-.35.5-.5.19-.14.39-.26.6-.36.21-.09.44-.15.68-.18.27-.03.51,0,.74.08.22.08.41.2.57.36.16.16.29.34.39.56s.16.45.19.69c.04.34,0,.67-.11,1.01s-.27.64-.49.92-.48.51-.78.7c-.3.19-.63.3-.98.34h0Zm.1-.94c.22-.02.41-.1.57-.22.16-.12.29-.27.39-.45.1-.18.17-.37.22-.57.04-.21.05-.4.03-.59-.02-.14-.05-.27-.09-.39-.05-.12-.11-.22-.19-.31s-.17-.15-.28-.19-.24-.06-.38-.04c-.21.02-.4.1-.57.22-.16.12-.3.27-.4.44s-.17.36-.22.57c-.04.21-.05.4-.03.59.02.14.05.27.09.39.05.12.11.22.19.31s.17.15.28.2c.11.05.24.06.38.04h.01Z"/>
                <path class="cls-8" d="m125,285.65l-1.28.14.09-.93,3.59-.4-.09.93-1.27.14-.36,3.66-1.03.12.36-3.65h-.01Z"/>
                <path class="cls-8" d="m130.64,288.66c-.26.03-.51,0-.72-.08-.22-.08-.41-.21-.57-.37s-.29-.35-.39-.58c-.1-.22-.16-.45-.19-.7-.02-.21-.02-.42.02-.63.04-.22.1-.43.19-.64.09-.21.2-.4.35-.59.14-.19.3-.35.49-.5s.39-.27.61-.37.46-.16.72-.19c.4-.05.74,0,1.02.16.28.15.47.37.59.65l-.85.66c-.03-.12-.08-.21-.14-.28s-.13-.13-.21-.17-.17-.07-.26-.07h-.26c-.22.02-.41.1-.57.22s-.29.27-.39.45c-.1.17-.17.36-.21.56-.04.2-.05.39-.03.57.02.14.05.28.1.4s.11.23.2.32c.08.09.18.16.29.2s.23.06.37.04c.09-.01.18-.03.27-.07.09-.03.18-.08.27-.14.09-.06.17-.13.25-.22s.14-.19.19-.31l.8.41c-.08.18-.19.34-.33.48-.14.15-.3.28-.47.39-.17.11-.35.2-.54.27-.19.07-.37.11-.55.13h-.05Z"/>
                <path class="cls-8" d="m132.95,288.36l.45-4.58,1.92-.22c.18-.02.34,0,.48.05.14.06.27.14.38.24.11.11.2.23.26.38.07.15.11.3.13.46s0,.31-.02.47-.08.31-.15.46c-.07.15-.16.28-.27.41s-.23.24-.36.33l.76,1.6-1.17.13-.65-1.39-.59.07-.14,1.48-1.03.12h0Zm2.13-2.61c.06,0,.12-.03.18-.08s.11-.11.15-.18.07-.16.1-.26c.02-.1.03-.2,0-.3-.02-.14-.06-.25-.13-.32-.07-.08-.14-.11-.23-.1l-.83.09-.12,1.25.86-.1h.02Z"/>
                <path class="cls-8" d="m138.94,287.73c-.27.03-.52,0-.74-.07-.22-.08-.41-.2-.58-.36-.16-.16-.29-.35-.39-.56-.1-.22-.16-.45-.19-.69-.03-.23-.02-.45.03-.68.04-.23.11-.44.21-.66.1-.21.22-.41.36-.6.15-.19.31-.35.5-.5s.39-.26.6-.36c.21-.09.44-.15.68-.18.27-.03.51,0,.74.08.22.08.41.2.57.36.16.16.29.34.39.56s.16.45.19.69c.04.34,0,.67-.11,1.01s-.27.64-.49.92-.48.51-.78.7-.63.3-.98.34h-.01Zm.1-.94c.22-.02.41-.1.57-.22s.29-.27.39-.45c.1-.18.17-.37.22-.57.04-.21.05-.4.03-.59-.02-.14-.05-.27-.09-.39-.05-.12-.11-.22-.19-.31s-.17-.15-.28-.2c-.11-.04-.24-.06-.38-.04-.21.02-.4.1-.57.22-.16.12-.3.27-.4.44-.1.17-.17.36-.22.57-.04.21-.05.4-.03.59.02.14.05.27.09.39.05.12.11.22.19.31s.17.15.28.2c.11.05.24.06.38.04h0Z"/>
                <path class="cls-8" d="m143.2,287.26c-.31.04-.63.02-.94-.04s-.59-.17-.83-.32l.54-.97s.06.06.14.11.18.1.3.14c.12.05.26.08.42.11s.32.04.48.02c.2-.02.34-.08.42-.16.08-.08.11-.18.09-.3,0-.07-.04-.13-.09-.17s-.12-.08-.21-.11c-.09-.03-.19-.06-.3-.08s-.23-.05-.36-.08c-.31-.08-.56-.18-.72-.31-.17-.13-.26-.32-.29-.57-.03-.27,0-.52.08-.74.08-.23.21-.42.37-.59.16-.17.35-.3.58-.4.22-.1.46-.17.7-.2.15-.02.3-.02.44,0,.14.01.28.04.4.07.13.03.25.07.36.12s.21.09.3.14l-.53.93s-.05-.04-.11-.08c-.07-.04-.15-.08-.25-.12s-.22-.07-.34-.1c-.13-.02-.25-.03-.38-.02-.18.02-.31.07-.4.16s-.13.2-.11.34c0,.12.09.21.23.25.14.05.33.09.58.14.17.03.32.07.46.12s.26.11.36.18.19.16.25.27.1.24.12.39c.03.3,0,.56-.08.78-.09.22-.22.41-.39.56s-.37.27-.59.35c-.22.08-.45.14-.68.17h-.02,0Z"/>
                <path class="cls-8" d="m146.95,286.84c-.31.04-.63.02-.94-.04s-.59-.17-.83-.32l.54-.97s.06.06.14.11.18.1.3.14c.12.05.26.08.42.11s.32.04.48.02c.2-.02.34-.08.42-.16.08-.08.11-.18.09-.3,0-.07-.04-.13-.09-.17s-.12-.08-.21-.11c-.09-.03-.19-.06-.3-.08s-.23-.05-.36-.08c-.31-.08-.56-.18-.72-.31-.17-.13-.26-.32-.29-.57-.03-.27,0-.52.08-.74.08-.23.21-.42.37-.59.16-.17.35-.3.58-.4.22-.1.46-.17.7-.2.15-.02.3-.02.44,0,.14.01.28.04.4.07.13.03.25.07.36.12s.21.1.3.14l-.53.93s-.05-.04-.11-.08c-.07-.04-.15-.08-.25-.12s-.22-.07-.34-.1c-.13-.02-.25-.03-.38-.02-.18.02-.31.07-.4.16s-.13.2-.11.34c0,.12.09.21.23.25.14.05.33.09.58.14.17.03.32.07.46.12s.26.11.37.18c.1.07.19.16.25.27s.1.24.12.39c.03.3,0,.56-.08.78-.09.22-.22.41-.39.56s-.37.27-.59.35c-.22.08-.45.14-.68.17h-.03,0Z"/>
                <path class="cls-8" d="m152.22,283.82c0,.11,0,.22-.03.32-.04.1-.09.2-.16.28s-.15.15-.25.21-.2.09-.3.1c-.16.02-.3-.02-.41-.12s-.18-.23-.19-.39c0-.11,0-.22.04-.32s.09-.2.16-.28.15-.15.25-.21c.09-.05.19-.09.3-.1.16-.02.3.02.41.12s.18.23.19.39h0Z"/>
                <path class="cls-8" d="m156.24,281.21l1.6-.18c.29-.03.55-.02.78.05s.42.17.58.31c.16.14.28.31.38.52.09.2.15.43.18.67.04.39.02.77-.08,1.12s-.25.66-.46.93-.47.49-.78.67c-.31.17-.65.28-1.03.32l-1.6.18.45-4.58h-.02,0Zm1.24,3.47c.21-.02.4-.09.56-.2.16-.11.3-.25.4-.42.11-.17.18-.36.23-.57.04-.21.05-.43.03-.65-.03-.29-.13-.52-.29-.69-.16-.16-.38-.23-.66-.2l-.57.06-.27,2.73.57-.06h0Z"/>
                <path class="cls-8" d="m162.03,285.13c-.27.03-.52,0-.74-.07-.22-.08-.41-.2-.58-.36-.16-.16-.29-.35-.39-.56-.1-.22-.16-.45-.19-.69-.03-.23-.02-.45.03-.68.04-.23.11-.44.21-.66.1-.21.22-.41.36-.6s.31-.35.5-.5.39-.26.6-.36c.21-.09.44-.15.68-.18.27-.03.51,0,.74.08.22.08.41.2.57.36.16.16.29.34.39.56s.16.45.19.69c.04.34,0,.67-.11,1.01s-.27.64-.49.92-.48.51-.78.7-.63.3-.98.34h-.01Zm.1-.94c.22-.02.41-.1.57-.22s.29-.27.39-.45c.1-.18.17-.37.22-.57.04-.21.05-.4.03-.59-.02-.14-.05-.27-.09-.39-.05-.12-.11-.22-.19-.31s-.17-.15-.28-.19-.24-.06-.38-.04c-.21.02-.4.1-.57.22-.16.12-.3.27-.4.44-.1.17-.17.36-.22.57-.04.21-.05.4-.03.59.02.14.05.27.09.39.05.12.11.22.19.31s.17.15.28.2c.11.05.24.06.38.04h0Z"/>
                <path class="cls-8" d="m166.69,280.03l.81-.09,1.64,2.48.26-2.69,1.03-.12-.45,4.58-.82.09-1.63-2.41-.25,2.62-1.03.12.45-4.58h0Z"/>
                <path class="cls-8" d="m172.72,283.92c-.27.03-.52,0-.74-.07-.22-.08-.41-.2-.58-.36-.16-.16-.29-.35-.39-.56-.1-.22-.16-.45-.19-.69-.03-.23-.02-.45.03-.68.04-.23.11-.44.21-.66.1-.21.22-.41.36-.6.15-.19.31-.35.5-.5.19-.14.39-.26.6-.36.21-.09.44-.15.68-.18.27-.03.51,0,.74.08.22.08.41.2.57.36.16.16.29.34.39.56s.16.45.19.69c.04.34,0,.67-.11,1.01s-.27.64-.49.92-.48.51-.78.7-.63.3-.98.34h-.01Zm.1-.94c.22-.02.41-.1.57-.22s.29-.27.39-.45c.1-.18.17-.37.22-.57.04-.21.05-.4.03-.59-.02-.14-.05-.27-.09-.39-.05-.12-.11-.22-.19-.31s-.17-.15-.28-.19-.24-.06-.38-.04c-.21.02-.4.1-.57.22-.16.12-.3.27-.4.44-.1.17-.17.36-.22.57-.04.21-.05.4-.03.59.02.14.05.27.09.39.05.12.11.22.19.31s.17.15.28.2c.11.05.24.06.38.04h0Z"/>
                <path class="cls-8" d="m176.37,279.86l-1.28.14.09-.93,3.59-.4-.09.93-1.27.14-.36,3.65-1.03.12.36-3.65h0Z"/>
                <path class="cls-8" d="m182.03,282.87c-.26.03-.51,0-.72-.08-.22-.08-.41-.21-.57-.37s-.29-.35-.39-.58c-.1-.22-.16-.45-.19-.7-.02-.21-.02-.42.02-.63.04-.22.1-.43.19-.64.09-.21.2-.4.35-.59.14-.19.3-.35.49-.5s.39-.27.61-.37.46-.16.72-.19c.4-.05.74,0,1.02.16.28.15.47.37.59.65l-.85.66c-.03-.12-.08-.21-.14-.28s-.13-.13-.21-.17-.17-.07-.26-.07h-.26c-.22.02-.41.1-.57.22s-.29.27-.39.45c-.1.17-.17.36-.21.56-.04.2-.05.39-.03.57.02.14.05.28.1.4s.11.23.2.32c.08.09.18.16.29.2s.23.06.37.04c.09-.01.18-.03.27-.07.09-.03.18-.08.27-.14.09-.06.17-.13.25-.22s.14-.19.19-.31l.8.41c-.08.18-.19.34-.33.48-.14.15-.3.28-.47.39-.17.11-.35.2-.54.27-.19.07-.37.11-.55.13h-.05Z"/>
                <path class="cls-8" d="m184.34,282.57l.45-4.58,1.92-.22c.18-.02.34,0,.48.05.14.06.27.14.38.24.11.11.2.23.26.38.07.15.11.3.13.46.02.15,0,.31-.02.47s-.08.31-.15.46c-.07.15-.16.28-.27.41s-.23.24-.36.33l.76,1.6-1.17.13-.65-1.39-.59.07-.14,1.48-1.03.12h0Zm2.13-2.61c.06,0,.12-.03.18-.08s.11-.11.15-.18.07-.16.1-.26c.02-.1.03-.2,0-.3-.02-.14-.06-.25-.13-.32-.07-.08-.14-.11-.23-.1l-.83.09-.12,1.25.86-.1h.02Z"/>
                <path class="cls-8" d="m190.3,281.94c-.27.03-.52,0-.74-.07-.22-.08-.41-.2-.58-.36-.16-.16-.29-.35-.39-.56-.1-.22-.16-.45-.19-.69-.03-.23-.02-.45.03-.68.04-.23.11-.44.21-.66.1-.21.22-.41.36-.6.15-.19.31-.35.5-.5s.39-.26.6-.36c.21-.09.44-.15.68-.18.27-.03.51,0,.74.08.22.08.41.2.57.36.16.16.29.34.39.56s.16.45.19.69c.04.34,0,.67-.11,1.01s-.27.64-.49.92-.48.51-.78.7-.63.3-.98.34h-.01Zm.1-.94c.22-.02.41-.1.57-.22s.29-.27.39-.45c.1-.18.17-.37.22-.57.04-.21.05-.4.03-.59-.02-.14-.05-.27-.09-.39-.05-.12-.11-.22-.19-.31s-.17-.15-.28-.19-.24-.06-.38-.04c-.21.02-.4.1-.57.22-.16.12-.3.27-.4.44-.1.17-.17.36-.22.57-.04.21-.05.4-.03.59.02.14.05.27.09.39.05.12.11.22.19.31s.17.15.28.2c.11.05.24.06.38.04h0Z"/>
                <path class="cls-8" d="m194.57,281.47c-.31.04-.63.02-.94-.04s-.59-.17-.83-.32l.54-.97s.06.06.14.11.18.1.3.14c.12.05.26.08.42.11s.32.04.48.02c.2-.02.34-.08.42-.16.08-.08.11-.18.09-.3,0-.07-.04-.13-.09-.17s-.12-.08-.21-.11c-.09-.03-.19-.06-.3-.08s-.23-.05-.36-.08c-.31-.08-.56-.18-.72-.31-.17-.13-.26-.32-.29-.57-.03-.27,0-.52.08-.74.08-.23.21-.42.37-.59.16-.17.35-.3.58-.4.22-.1.46-.17.7-.2.15-.02.3-.02.44,0,.14.01.28.04.4.07.13.03.25.07.36.12s.21.1.3.14l-.53.93s-.05-.04-.11-.08c-.07-.04-.15-.08-.25-.12s-.22-.07-.34-.09c-.13-.02-.25-.03-.38-.02-.18.02-.31.07-.4.16s-.13.2-.11.34c0,.12.09.21.23.25.14.05.33.09.58.14.17.03.32.07.46.12s.26.11.36.18.19.16.25.27.1.24.12.39c.03.3,0,.56-.08.78-.09.22-.22.41-.39.56s-.37.27-.59.35c-.22.08-.45.14-.68.17h-.02,0Z"/>
                <path class="cls-8" d="m198.31,281.05c-.31.04-.63.02-.94-.04s-.59-.17-.83-.32l.54-.97s.06.06.14.11.18.1.3.14c.12.05.26.08.42.11s.32.04.48.02c.2-.02.34-.08.42-.16.08-.08.11-.18.09-.3,0-.07-.04-.13-.09-.17s-.12-.08-.21-.11c-.09-.03-.19-.06-.3-.08s-.23-.05-.36-.08c-.31-.08-.56-.18-.72-.31-.17-.13-.26-.32-.29-.57-.03-.27,0-.52.08-.74.08-.23.21-.42.37-.59.16-.17.35-.3.58-.4.22-.1.46-.17.7-.2.15-.02.3-.02.44,0,.14.01.28.04.4.07.13.03.25.07.36.12s.21.1.3.14l-.53.93s-.05-.04-.11-.08c-.07-.04-.15-.08-.25-.12s-.22-.07-.34-.1c-.13-.02-.25-.03-.38-.02-.18.02-.31.07-.4.16s-.13.2-.11.34c0,.12.09.21.23.25.14.05.33.09.58.14.17.03.32.07.46.12s.26.11.37.18c.1.07.19.16.25.27s.1.24.12.39c.03.3,0,.56-.08.78-.09.22-.22.41-.39.56s-.37.27-.59.35c-.22.08-.45.14-.68.17h-.03,0Z"/>
                <path class="cls-8" d="m203.59,278.03c0,.11,0,.22-.03.32-.04.1-.09.2-.16.28s-.15.15-.25.21-.2.09-.3.1c-.16.02-.3-.02-.41-.12s-.18-.23-.19-.39c0-.11,0-.22.04-.32s.09-.2.16-.28.15-.15.25-.21c.09-.05.19-.09.3-.1.16-.02.3.02.41.12s.18.23.19.39h0Z"/>
                <path class="cls-8" d="m207.61,275.42l1.6-.18c.29-.03.55-.02.77.05.23.07.42.17.58.31.16.14.28.31.38.52.09.2.15.43.18.67.04.4.02.77-.08,1.12s-.25.66-.46.93-.47.49-.78.67c-.31.17-.65.28-1.03.32l-1.6.18.45-4.58h0Zm1.24,3.47c.21-.02.4-.09.56-.2.16-.11.3-.25.4-.42.11-.17.18-.36.23-.57.04-.21.05-.43.03-.65-.03-.29-.13-.52-.29-.69-.16-.16-.38-.23-.66-.2l-.57.06-.27,2.73.57-.06h0Z"/>
                <path class="cls-8" d="m213.42,279.33c-.27.03-.52,0-.74-.07-.22-.08-.41-.2-.58-.36-.16-.16-.29-.35-.39-.56-.1-.22-.16-.45-.19-.69-.03-.23-.02-.45.03-.68.04-.23.11-.44.21-.66.1-.21.22-.41.36-.6s.31-.35.5-.5c.19-.14.39-.26.6-.36.22-.09.44-.15.68-.18.27-.03.51,0,.74.08.22.08.41.2.57.36.16.16.29.34.39.56s.16.45.19.69c.04.34,0,.67-.11,1.01s-.27.64-.49.92-.48.51-.78.7-.63.3-.98.34h-.01Zm.1-.94c.22-.02.41-.1.57-.22s.29-.27.39-.45c.1-.18.17-.37.22-.57.04-.21.05-.4.03-.59-.02-.14-.05-.27-.09-.39-.05-.12-.11-.22-.19-.31s-.17-.15-.28-.19-.24-.06-.38-.04c-.21.02-.4.1-.57.22-.16.12-.3.27-.4.44-.1.17-.17.36-.22.57-.04.21-.05.4-.03.59.02.14.05.27.09.39.05.12.11.22.19.31s.17.15.28.2c.11.05.24.06.38.04h0Z"/>
              </g>
            </g>
            <g>
              <rect class="cls-16" x="42.67" y="219.23" width="6.23" height="146.46"/>
              <polygon class="cls-16" points="71.09 370.41 20.48 370.41 42.67 365.69 48.91 365.69 71.09 370.41"/>
            </g>
            <g>
              <rect class="cls-16" x="212.15" y="219.23" width="6.23" height="146.46"/>
              <polygon class="cls-16" points="240.58 370.41 189.96 370.41 212.15 365.69 218.39 365.69 240.58 370.41"/>
            </g>
          </g>
          <ellipse class="cls-13" cx="308.36" cy="389.77" rx="110.6" ry="9.76"/>
          <g>
            <g>
              <g>
                <path class="cls-3" d="m185.17,347.26c-3.34.12-7.06.31-9.82-1.86-2.55-2-4.83-4.97-4.49-8.39.1-.97.32-1.58,1.37-1.16,1.59.63,2.82,2.39,3.92,3.62,1.43,1.6,2.92,3.08,4.63,4.39,1.19.91,2.47,1.7,3.68,2.58.15.11.3.22.45.34.06.04.12.08.17.13h.09c.06,0,.11.03.14.07l.03.06c.02.1-.03.22-.16.22h0Z"/>
                <path class="cls-9" d="m185.33,347.04c-2.93-.05-6.1.08-8.44-1.91-1.08-.92-1.99-2.1-2.72-3.31-.34-.55-1.36-2.2-.93-2.85.76-1.18,4.26,3.64,4.74,4.11,1.82,1.73,4.09,2.76,6.48,3.36.15.11.3.22.45.34-1.71-.37-3.36-.97-4.86-1.87-2.08-1.24-3.24-3.08-4.87-4.79-.35-.37-1.41-1.62-1.81-.84-.26.51.72,2.12.93,2.47.7,1.15,1.56,2.26,2.57,3.14,2.34,2.04,5.49,1.97,8.44,2.09l.03.06h-.01Z"/>
              </g>
              <g>
                <path class="cls-3" d="m187.01,349.3c-.03.13-.05.26-.08.39h0s-.03.07-.06.08c-.06.03-.15,0-.18-.07v-.08s0-.03.02-.05c0-.04.02-.08.04-.11h0v-.04c-.59-2.21-.82-4.5-1.44-6.71-.59-2.11-1.33-4.17-1.76-6.33-.27-1.36-1.21-8.16,1.79-7.31,1.33.38,2.24,2.3,2.74,3.45.68,1.54,1.02,3.21,1.1,4.89.22,4.15-1.3,7.93-2.14,11.9h-.03Z"/>
                <path class="cls-9" d="m187.97,340.82c.04-1.55-.08-3.11-.48-4.62-.13-.52-.79-3.03-1.63-2.96-.55.04-.64,1.12-.69,1.47-.19,1.52.3,3.06.59,4.53.6,3,.94,6.04,1.1,9.09-.03.19-.06.39-.08.58-.03.16-.04.32-.06.48,0,.06-.02.11-.02.17,0,.04,0,.08-.02.13.03.06.11.09.18.07.02-.12.04-.25.05-.37v.31h0c.02-.12.04-.22.06-.33,0-.03,0-.05.02-.07v-.51c.38-2.65.9-5.29.97-7.97h.01Zm-1.01,6.87c-.08-1.78-.26-3.56-.51-5.33-.2-1.43-.47-2.84-.77-4.25-.17-.8-.35-1.59-.38-2.41-.03-.62.06-2.92,1.25-1.49.85,1.03,1.06,3.23,1.16,4.5.12,1.41.06,2.82-.08,4.22-.16,1.59-.42,3.17-.66,4.76h0Z"/>
              </g>
              <g>
                <path class="cls-3" d="m188.8,358.45h0c-.06.01-.12.02-.12.01-3.05-.15-7.11.13-9.65-1.89-1.87-1.49-3.72-4.44-3.12-6.94.67-2.82,4.48.56,5.49,1.38,2.56,2.08,7.47,7.17,7.47,7.27,0,.02.03.04.04.05h0s-.04.08-.11.09v.03h0Z"/>
                <path class="cls-9" d="m188.91,358.36c-.18-.11-.35-.22-.53-.33-2.01-1.26-3.96-2.61-5.84-4.05-.48-.36-3.91-3.42-4.43-2.33-.31.66.82,2.01,1.18,2.46.65.81,1.44,1.52,2.32,2.07,2.03,1.27,4.5,1.54,6.8,2.15.11.02.22.05.33.08.02.02.04.03.06.04h0c.07-.02.13-.04.1-.09h0Zm-6.03-1.74c-.97-.43-1.86-1.04-2.63-1.78-.51-.49-2.32-2.31-1.84-3.06.25-.4.47-.19.95.05.22.11.44.24.65.37.51.34.98.73,1.46,1.11.84.67,1.69,1.32,2.55,1.95,1.42,1.03,2.87,2.01,4.36,2.93-1.83-.56-3.76-.79-5.51-1.57h0Z"/>
              </g>
              <g>
                <path class="cls-3" d="m194.38,352.17c-.78,3.49-2.64,6.68-5.23,9.13-.02.02-.04.03-.06.03-.06.02-.12,0-.16-.06-.04-.05-.04-.12.02-.18.05-.05.1-.1.15-.16.51-4.15,1.06-8.27,1.49-12.43.1-.98.87-7.22,2.78-6.2,1.18.63,1.26,3.18,1.36,4.33.16,1.84.04,3.72-.36,5.52v.02h0Z"/>
                <path class="cls-9" d="m193.27,346.61c-.1-.35-.28-.7-.67-.46-.74.47-1.04,3.4-1.16,4.21-.51,3.35-1.3,6.56-2.11,9.83-.07.27-.13.55-.2.83-.06.08-.12.17-.19.25.04.05.1.08.16.06,0-.03.02-.06.03-.08.08-.11.17-.22.25-.34h0c1.31-1.79,2.33-3.82,3.02-5.89.44-1.33.73-2.7.89-4.1.14-1.28.38-3.06,0-4.31h-.02Zm-3.91,14.07c-.04.06-.08.11-.11.17.04-.11.07-.22.1-.34.77-2.49,1.43-5.04,1.87-7.61.22-1.31.36-2.63.63-3.92.11-.55.38-2.11.84-2.37.44-.25.44.36.49.71.03.25.03.71.04.95.07,4.53-1.32,8.77-3.85,12.42h0Z"/>
              </g>
              <path class="cls-3" d="m189.65,370.24h-.61c0-.54-.02-1.08-.04-1.61-.07-2.17-.16-4.33-.29-6.5-.07-1.24-.16-2.46-.29-3.68v-.12c-.02-.1-.03-.2-.04-.3,0-.1-.03-.21-.04-.32-.33-2.73-.91-5.4-2.09-7.96-.39-.84-.81-1.66-1.26-2.48-.04-.08-.09-.16-.13-.23,0-.02-.02-.04-.04-.06-.04-.08-.09-.16-.13-.24-.04-.06-.07-.12-.1-.18-1.41-2.48-3.02-4.86-4.56-7.24-.44-.68-.88-1.37-1.31-2.06-.03-.04-.06-.08-.08-.12-.04-.05-.07-.1-.1-.15-1.92-3.04-3.82-6.1-5.81-9.07-.08-.11.1-.21.18-.1,1.35,1.98,2.75,3.92,4.13,5.87.19.26.37.52.55.78.37.52.73,1.03,1.09,1.55.72,1.03,1.44,2.07,2.14,3.12,1.96,2.94,4.02,5.91,5.62,9.09.12.24.23.48.35.72.07.15.14.3.21.45.08.17.16.35.24.52,1.35,3.11,1.84,6.31,2.05,9.61.02.23.03.46.04.69,0,.1.02.21.02.32v.39h0v.17c0,.2.02.39.03.59.09,2.17.14,4.33.19,6.49.02.69.04,1.38.07,2.07h0Z"/>
              <g>
                <path class="cls-3" d="m171.45,330.99c-1.67-2.25-3.81-6.88-1.35-9.29.99-.97,2.37-1.07,3.49-.26,1.3.94,1.88,2.72,2.3,4.19,1.13,3.93,1.88,7.93,3.28,11.78.02.02.12.33.15.41.03.08-.1.11-.13.04-.05-.13-.09-.25-.14-.38-2.66-1.93-5.63-3.84-7.61-6.5h.01Z"/>
                <path class="cls-9" d="m179.2,337.43s-.03-.05-.04-.07c-.58-.94-1.1-1.91-1.56-2.91-.96-2.07-1.7-4.25-2.4-6.43-.27-.84-1.47-4.97-2.94-3.32-.62.69-.53,1.92-.43,2.77.15,1.37.62,2.67,1.28,3.87,1.32,2.38,3.38,4.19,5.54,5.79.1.08.2.15.29.22.02.04.04.07.06.1,0,.02.03.05.04.07,0,.02.02.03.04.03.05.03.12,0,.13-.06v-.06h0Zm-.65-.45c-1.74-1.38-3.44-2.88-4.7-4.72-.65-.96-1.19-2.01-1.53-3.12-.15-.49-.26-1-.33-1.52-.05-.38-.08-.78-.07-1.16.03-.85.38-1.77.88-1.86.62-.11.83.25,1.24.96.14.24.26.49.37.74.27.64.49,1.3.69,1.95.35,1.09.7,2.18,1.09,3.25.26.73.55,1.45.86,2.16.53,1.23,1.13,2.41,1.83,3.56-.11-.08-.22-.17-.33-.26v.02Z"/>
              </g>
            </g>
            <g>
              <g>
                <g>
                  <path class="cls-3" d="m36.76,337.27c-.28,2.23-.7,4.43-1.15,6.63-.25,1.25-.52,2.49-.77,3.74-.28,1.37-.69,2.77-.31,4.16h0s.02.19,0,.19c0,.01,0,.02-.02.02-.07.09-.24.09-.29-.05,0-.03-.02-.06-.02-.09,0,0-.02-.02-.02-.03-.23-.32-.38-.92-.48-1.15-.43-1.05-.8-2.13-1.11-3.22-.64-2.23-1.02-4.54-1.08-6.86-.06-2.08.15-4.17.65-6.18.4-1.62.96-4.03,2.17-5.26,1.09-1.12,2,.67,2.32,1.58.71,2.06.37,4.43.11,6.54v-.02h0Z"/>
                  <path class="cls-9" d="m34.77,332.54c-.81,0-1.4,2.62-1.69,3.75-.46,1.78-.68,3.62-.69,5.46-.03,3.31.62,6.58,1.68,9.7.04.12.08.25.13.38,0,.01.02.02.02.03,0,.03.02.06.03.09.04.14.22.14.29.05-.05-.27-.09-.54-.12-.82-.03-.25-.06-.49-.07-.73-.22-2.66.16-5.39.5-8.03.39-3.1,1.01-9.88-.06-9.88h-.02Zm-.58,18.43c.04.36.1.72.17,1.07-.08-.26-.17-.52-.24-.78-.85-2.78-1.45-5.64-1.53-8.56-.05-1.63.06-3.28.36-4.89.16-.87.37-1.72.63-2.56.11-.35.7-2.54,1.2-2.44.35.08.43,2.05.44,2.09.02.39.02.79.02,1.19,0,.82-.07,1.63-.13,2.45-.16,1.76-.41,3.52-.62,5.28-.28,2.34-.56,4.78-.28,7.14h-.02Z"/>
                </g>
                <g>
                  <path class="cls-3" d="m49.54,343.41c-1.49,2.91-4,5.13-6.59,7.04-1.39,1.02-2.83,1.98-4.24,2.96-1.18.83-2.61,1.7-3.66,2.82-.05.05-.09.1-.14.15-.29.33-.55.67-.76,1.05-.02.03-.04.04-.07.04-.02.04-.03.09-.05.13,0,.03-.06.02-.06-.01,0-.05,0-.1.02-.14h0s-.03-.08,0-.12c0-.01.02-.03.03-.05,0-.05,0-.1.02-.14.42-3.4,2.8-6.83,4.81-9.45,2-2.6,4.49-4.93,7.59-6.12.78-.3,2.55-1.13,3.35-.49.72.58.08,1.72-.24,2.34h0Z"/>
                  <path class="cls-9" d="m47.24,343.43c-.71-.71-2.79,1.04-3.31,1.45-1.59,1.24-2.97,2.71-4.31,4.19-2.2,2.45-4.17,4.99-5.51,7.97h0s-.05.07-.07.1c0,.05-.02.1-.02.14,0,.02-.02.03-.03.05-.03.04-.02.08,0,.11.04-.04.07-.08.1-.12.26-.32.53-.63.81-.94.05-.05.09-.1.14-.15,1.94-2.09,4.24-3.86,6.45-5.69,1.53-1.28,3.02-2.63,4.29-4.17.33-.39,2.04-2.35,1.45-2.94h0Zm-.65,1.56c-1.76,2.92-4.8,5.05-7.39,7.17-1.75,1.43-3.47,2.93-4.91,4.66,1.3-2.63,3.16-5,5.09-7.17,1.11-1.25,2.25-2.49,3.5-3.6.67-.6,1.37-1.2,2.13-1.7.34-.23,1.02-.65,1.44-.78.99-.29.44.92.14,1.42Z"/>
                </g>
                <g>
                  <path class="cls-3" d="m33.68,364.36s-.09.08-.15.09c0,.02.03.04.04.05.02.03,0,.06,0,.07-.02.02-.05.02-.07,0-2.75-2.8-5.41-6.21-6.78-9.92-.58-1.57-.94-3.22-.98-4.89-.03-1.14-.09-3.45.89-4.28,1.97-1.67,3.76,5.43,4.03,6.5.49,1.95.81,3.94,1.26,5.9.49,2.15,1.14,4.25,1.79,6.36v.11h-.03Z"/>
                  <path class="cls-9" d="m33.68,364.35c-.11-.18-.21-.36-.31-.55-1.7-3-2.81-6.1-3.55-9.55-.36-1.66-.67-3.39-1.31-4.97-.16-.39-.65-1.91-1.3-1.14-.34.4-.06,3.27.08,4.01.31,1.69.89,3.32,1.6,4.88,1.18,2.6,2.71,5.1,4.51,7.33.05.07.1.13.16.2.02-.02.03-.05,0-.07,0-.02-.03-.03-.04-.05.06,0,.12-.04.15-.09h0Zm-4-6.11c-.78-1.51-1.45-3.09-1.89-4.74-.18-.65-.32-1.32-.41-1.99-.07-.53-.14-1.06-.13-1.59.01-1.3.11-1.63.33-1.68.13-.03.32.11.7.89.24.49.41,1.05.55,1.58.2.77.38,1.54.54,2.31.34,1.55.65,3.1,1.1,4.62.64,2.17,1.55,4.28,2.74,6.21-1.32-1.77-2.51-3.62-3.53-5.61h0Z"/>
                </g>
                <g>
                  <path class="cls-3" d="m42.52,357.54c-.26,1.37-1,2.63-1.81,3.76-1.63,2.26-3.72,4.13-5.51,6.27-.27.32-.53.64-.78.98-.03.04-.23.51-.23.47,0,0,.03-.19.09-.49h0c.29-1.5,1.23-6.01,2.4-8.32.72-1.42,1.56-2.88,2.61-4.08.51-.57,1.69-1.81,2.59-1.54.96.29.77,2.25.64,2.97v-.02h0Z"/>
                  <path class="cls-9" d="m41.06,356.63c-.96-.59-3.42,3.81-3.75,4.38-1.23,2.11-2.17,4.36-2.81,6.72-.08.26-.14.53-.21.8-.06.31-.09.48-.09.49.02,0,.21-.43.23-.47.04-.06.09-.11.13-.17.21-.27.43-.54.65-.8,1.07-1.6,2.17-3.19,3.21-4.82.75-1.17,1.44-2.38,1.99-3.66.12-.29,1.08-2.2.66-2.46h-.01Zm-.27,1.24c-1.36,3.83-4.14,6.85-6.26,10.25-.04.06-.07.11-.1.17.03-.1.06-.2.09-.3.58-1.93,1.32-3.81,2.25-5.59.56-1.09,1.2-2.14,1.89-3.15.37-.53.74-1.16,1.18-1.64.2-.22.76-.79.95-.69.27.13.09.71,0,.96h0Z"/>
                </g>
                <g>
                  <path class="cls-3" d="m52.12,325.92c-2.84,6.53-10.3,9.57-13.53,15.87,0,.01,0,.02-.02.03-.1.19-.19.39-.28.59-.04.1-.16.09-.21.03-.02-.03-.03-.06,0-.11s.04-.1.07-.14c.5-3.93,2.12-7.97,3.99-11.43,1.63-3.01,3.87-5.83,6.97-7.41.76-.39,2.25-1.22,3.11-.57.91.69.28,2.34-.07,3.15h-.03Z"/>
                  <path class="cls-9" d="m49.56,326.2c-.36-.27-.91.06-1.22.22-.78.39-1.5.91-2.16,1.47-1.36,1.16-2.48,2.59-3.44,4.09-1.61,2.53-3.1,5.32-4.05,8.22-.22.66-.41,1.32-.56,1.99-.02.08-.04.17-.06.25.05.06.17.06.22-.03.08-.2.18-.38.27-.57,0-.02.02-.03.03-.05.56-1.3,1.22-2.54,2.03-3.72,1.25-1.82,2.79-3.41,4.26-5.05.58-.64,5.95-5.9,4.7-6.82,0,0-.02,0-.02,0Zm-.45,1.51c-.86,1.54-2.2,2.79-3.37,4.09-1.18,1.32-2.37,2.62-3.53,3.96-.92,1.05-1.76,2.19-2.49,3.4-.61,1-1.14,2.05-1.56,3.14.29-1.11.68-2.2,1.11-3.27,0-.02,0-.03.02-.04.78-1.9,1.75-3.73,2.76-5.49,0-.02.03-.05.04-.07.89-1.56,1.9-3.08,3.14-4.39.68-.71,1.42-1.37,2.24-1.9.94-.6,1.75-1,1.99-.7.16.21-.09.82-.35,1.27h0Z"/>
                </g>
              </g>
              <path class="cls-3" d="m42.19,333.57c-.85,1.84-1.67,3.71-2.48,5.58-.38.88-.76,1.76-1.13,2.63,0,.02-.02.04-.03.05-.13.32-.27.64-.41.95-1.23,2.86-2.59,5.8-3.34,8.83-.39,1.59-.59,3.24-.68,4.91,0,.17-.02.34-.03.51h0v.44c-.05,1.43-.03,2.87,0,4.27.04,1.95.2,3.88.39,5.81,0,.06,0,.11.02.17,0,.09.02.18.02.26,0,.05,0,.09.02.13,0,.08.02.17.02.25.06.62.12,1.24.17,1.87h-.59c-.39-1.87-.61-3.82-.72-5.75v-.12c-.02-.19-.03-.38-.03-.56-.02-.23-.03-.46-.03-.69-.02-.56-.04-1.11-.05-1.66-.06-3.19-.02-6.5.68-9.63.02-.09.04-.17.06-.26,0-.04.02-.07.03-.11,0-.06.03-.12.04-.19l.08-.29c.05-.18.1-.35.15-.52l.05-.16c.82-2.73,2.11-5.37,3.28-7.93.22-.47.43-.94.66-1.4.12-.26.25-.52.37-.78.19-.39.39-.78.58-1.17,0-.02,0-.03.02-.04.91-1.84,1.86-3.65,2.76-5.49.04-.08.19-.02.14.07,0,0-.02.02-.02.02Z"/>
            </g>
          </g>
          <g>
            <g>
              <path class="cls-16" d="m205.11,24.74c1.36,0,2.71.07,4.05.17v-7.35h-8.15v7.35c1.35-.1,2.72-.17,4.1-.17Z"/>
              <path class="cls-16" d="m205.11,129.54c-1.38,0-2.75-.07-4.1-.17v241.08h8.15v-241.08c-1.34.1-2.69.17-4.05.17Z"/>
            </g>
            <path class="cls-12" d="m257.51,77.15c0,6.86-1.33,13.72-3.95,20.07-2.61,6.35-6.49,12.17-11.34,17.04-4.85,4.86-10.64,8.8-16.99,11.46-6.34,2.67-13.22,4.06-20.12,4.11-6.9.02-13.8-1.3-20.2-3.92-6.39-2.61-12.28-6.49-17.19-11.37-4.9-4.89-8.84-10.74-11.5-17.14-2.67-6.39-4.05-13.32-4.07-20.25.02-6.93,1.4-13.86,4.07-20.25,2.66-6.4,6.59-12.25,11.5-17.14,4.91-4.88,10.8-8.76,17.19-11.37,6.39-2.62,13.3-3.94,20.2-3.92,6.9.05,13.78,1.44,20.12,4.11,6.35,2.66,12.14,6.59,16.99,11.46s8.72,10.69,11.34,17.04c2.62,6.35,3.96,13.21,3.95,20.07Zm0,0c-.03-6.86-1.39-13.71-4.03-20.04-2.63-6.33-6.53-12.12-11.38-16.96-4.86-4.83-10.68-8.67-17.01-11.25-6.33-2.59-13.16-3.9-19.98-3.87-6.82.05-13.63,1.42-19.9,4.07-6.28,2.63-12.01,6.53-16.81,11.34-4.79,4.82-8.63,10.58-11.22,16.86s-3.91,13.06-3.91,19.85,1.32,13.58,3.91,19.85c2.58,6.28,6.42,12.04,11.22,16.86s10.53,8.71,16.81,11.34c6.28,2.64,13.08,4.02,19.91,4.07,6.82.02,13.66-1.29,19.98-3.88,6.33-2.58,12.15-6.42,17.01-11.25,4.85-4.84,8.74-10.63,11.38-16.96,2.64-6.32,4-13.18,4.03-20.04h-.01Z"/>
            <g>
              <path class="cls-11" d="m205.11,120.93c-24.14,0-43.79-19.64-43.79-43.79s19.64-43.78,43.79-43.78,43.78,19.64,43.78,43.78-19.64,43.79-43.78,43.79h0Zm0-78.68c-19.24,0-34.9,15.65-34.9,34.9s15.65,34.9,34.9,34.9,34.9-15.65,34.9-34.9-15.65-34.9-34.9-34.9h0Z"/>
              <rect class="cls-11" x="200.67" y="37.93" width="8.89" height="78.43" transform="translate(5.53 167.63) rotate(-45)"/>
            </g>
          </g>
          <g>
            <path class="cls-11" d="m123.31,147.22v-31.16h-58.29v-10.5L127.16,25.03h8.05v80.17h15.41v10.85h-15.41v31.16h-11.9Zm-45.69-42.01h46.91v-61.45l-46.91,61.44h0Z"/>
            <path class="cls-11" d="m332.66,114.13v10.85h-59.34v-10.85h24.86V39.21c-.94,1.4-2.54,2.92-4.81,4.55-2.28,1.64-4.79,3.15-7.53,4.55-2.74,1.4-5.57,2.57-8.49,3.5-2.92.94-5.49,1.4-7.7,1.4v-11.55c2.68,0,5.63-.76,8.84-2.28s6.24-3.27,9.1-5.25c2.86-1.98,5.28-3.85,7.26-5.6s3.09-2.92,3.33-3.5h12.25v89.1h22.23Z"/>
          </g>
          <g>
            <g>
              <path class="cls-7" d="m181.89,14.86v2.06h-10.14V2.13h9.95v2.06h-7.62v4.21h6.6v1.94h-6.6v4.52s7.81,0,7.81,0Z"/>
              <path class="cls-7" d="m184.31,16.92V2.13h6.43c.67,0,1.28.14,1.84.42s1.04.64,1.45,1.09c.4.45.72.96.95,1.54s.34,1.16.34,1.76c0,.5-.07.98-.21,1.44-.14.46-.33.88-.58,1.27s-.56.73-.92,1.01c-.36.28-.76.5-1.19.63l3.48,5.62h-2.64l-3.21-5.14h-3.41v5.14h-2.33,0Zm2.33-7.2h4.08c.33,0,.64-.07.91-.22.27-.15.5-.35.7-.6.19-.26.35-.55.46-.88s.17-.69.17-1.06-.07-.73-.2-1.06c-.13-.33-.31-.62-.52-.87-.22-.25-.47-.45-.75-.59-.28-.15-.58-.22-.89-.22h-3.96v5.52s0-.02,0-.02Z"/>
              <path class="cls-7" d="m198.07,16.92V2.13h6.43c.67,0,1.28.14,1.84.42s1.04.64,1.45,1.09c.4.45.72.96.95,1.54s.34,1.16.34,1.76c0,.5-.07.98-.21,1.44-.14.46-.33.88-.58,1.27s-.55.73-.92,1.01c-.36.28-.76.5-1.19.63l3.48,5.62h-2.64l-3.21-5.14h-3.41v5.14h-2.33,0Zm2.33-7.2h4.08c.33,0,.64-.07.91-.22.27-.15.5-.35.7-.6.19-.26.35-.55.46-.88s.17-.69.17-1.06-.07-.73-.2-1.06c-.13-.33-.31-.62-.52-.87s-.46-.45-.75-.59c-.28-.15-.58-.22-.89-.22h-3.96v5.52s0-.02,0-.02Z"/>
              <path class="cls-7" d="m217.97,17.02c-1.05,0-2.02-.21-2.88-.63-.87-.42-1.61-.99-2.24-1.69-.62-.7-1.11-1.5-1.45-2.4s-.51-1.83-.51-2.77.18-1.93.54-2.83.86-1.7,1.49-2.39c.63-.69,1.38-1.25,2.25-1.66.87-.41,1.82-.61,2.84-.61s2.02.22,2.88.66c.87.44,1.61,1.01,2.23,1.72s1.1,1.51,1.44,2.4c.34.9.51,1.81.51,2.74,0,.99-.18,1.93-.53,2.83s-.85,1.7-1.49,2.38c-.64.69-1.39,1.24-2.26,1.64-.87.41-1.81.61-2.82.61h0Zm-4.71-7.5c0,.69.11,1.37.33,2.02.22.65.54,1.23.95,1.73s.91.9,1.49,1.2,1.24.45,1.96.45,1.41-.16,1.99-.47,1.07-.73,1.47-1.24c.4-.51.71-1.09.92-1.73.21-.64.31-1.29.31-1.96,0-.71-.11-1.38-.33-2.03-.22-.64-.54-1.21-.95-1.71s-.9-.89-1.48-1.19-1.22-.45-1.93-.45c-.75,0-1.42.16-2,.47s-1.08.72-1.48,1.22-.71,1.07-.93,1.72c-.21.65-.32,1.3-.32,1.97h0Z"/>
              <path class="cls-7" d="m227.49,16.92V2.13h6.43c.67,0,1.28.14,1.84.42s1.04.64,1.45,1.09c.4.45.72.96.95,1.54s.34,1.16.34,1.76c0,.5-.07.98-.21,1.44-.14.46-.33.88-.58,1.27s-.56.73-.92,1.01c-.36.28-.76.5-1.19.63l3.48,5.62h-2.64l-3.21-5.14h-3.41v5.14h-2.33,0Zm2.33-7.2h4.08c.33,0,.63-.07.91-.22.27-.15.5-.35.7-.6.19-.26.35-.55.46-.88s.17-.69.17-1.06-.07-.73-.2-1.06-.31-.62-.52-.87c-.22-.25-.47-.45-.75-.59-.28-.15-.58-.22-.88-.22h-3.96v5.52-.02h0Z"/>
            </g>
            <g>
              <path class="cls-7" d="m148.73,145.15c.59,0,1.07-.11,1.46-.34s.7-.53.93-.9c.24-.37.4-.79.5-1.27.1-.48.15-.96.15-1.47v-5.64h1.77v5.64c0,.76-.09,1.48-.27,2.15s-.46,1.26-.85,1.77c-.39.51-.89.91-1.5,1.2s-1.34.44-2.2.44-1.64-.15-2.25-.46c-.61-.31-1.11-.72-1.48-1.24-.38-.52-.65-1.11-.81-1.78-.17-.67-.25-1.36-.25-2.08v-5.64h1.76v5.64c0,.51.05,1.01.15,1.48.1.48.27.9.5,1.27.23.37.55.67.94.89s.87.34,1.45.34h0Z"/>
              <path class="cls-7" d="m157.64,138.82v7.84h-1.76v-11.13h1.38l6.36,8.02v-8.01h1.77v11.11h-1.46l-6.3-7.84h0Z"/>
              <path class="cls-7" d="m171.18,135.53h1.54l4.39,11.13h-1.85l-1.18-3.02h-4.29l-1.16,3.02h-1.87l4.42-11.13Zm2.55,6.8l-1.79-4.78-1.85,4.78h3.64Z"/>
              <path class="cls-7" d="m182.63,145.15c.59,0,1.07-.11,1.46-.34s.7-.53.93-.9c.24-.37.4-.79.5-1.27.1-.48.15-.96.15-1.47v-5.64h1.77v5.64c0,.76-.09,1.48-.27,2.15-.18.67-.46,1.26-.85,1.77-.39.51-.89.91-1.5,1.2s-1.34.44-2.2.44-1.64-.15-2.25-.46c-.61-.31-1.11-.72-1.48-1.24-.38-.52-.65-1.11-.81-1.78-.17-.67-.25-1.36-.25-2.08v-5.64h1.76v5.64c0,.51.05,1.01.15,1.48.1.48.27.9.5,1.27.23.37.55.67.94.89s.87.34,1.45.34h0Z"/>
              <path class="cls-7" d="m197.95,137.08h-3.7v9.58h-1.77v-9.58h-3.71v-1.55h9.18v1.55h0Z"/>
              <path class="cls-7" d="m208.57,135.53v11.13h-1.77v-4.91h-5.61v4.91h-1.76v-11.13h1.76v4.66h5.61v-4.66h1.77Z"/>
              <path class="cls-7" d="m215.71,146.73c-.79,0-1.52-.16-2.17-.48-.65-.32-1.21-.74-1.69-1.27-.47-.53-.83-1.13-1.09-1.81s-.38-1.37-.38-2.08.14-1.45.41-2.13c.27-.68.65-1.28,1.12-1.8.48-.52,1.04-.94,1.69-1.25.65-.31,1.37-.46,2.14-.46s1.52.16,2.17.49,1.21.76,1.68,1.29.82,1.14,1.08,1.81.38,1.36.38,2.06c0,.74-.13,1.45-.4,2.13-.27.68-.64,1.28-1.12,1.79-.48.52-1.05.93-1.7,1.24-.65.31-1.36.46-2.12.46h0Zm-3.54-5.64c0,.52.08,1.03.25,1.52s.41.92.71,1.3c.31.38.68.68,1.12.9s.93.34,1.47.34,1.06-.12,1.5-.35c.43-.23.8-.55,1.11-.93.3-.39.53-.82.69-1.3s.24-.97.24-1.47c0-.53-.08-1.04-.25-1.53s-.41-.91-.71-1.29c-.31-.37-.68-.67-1.11-.89-.43-.22-.92-.34-1.45-.34-.56,0-1.07.12-1.5.35-.44.24-.81.54-1.11.92s-.54.81-.7,1.29c-.16.49-.24.98-.24,1.48h-.02Z"/>
              <path class="cls-7" d="m222.87,146.66v-11.13h4.84c.5,0,.96.1,1.39.31.42.21.79.48,1.09.82.3.34.54.73.71,1.16.17.43.26.87.26,1.32,0,.38-.05.74-.16,1.08s-.25.66-.44.96c-.19.29-.42.55-.69.76-.27.21-.57.37-.89.48l2.62,4.23h-1.99l-2.41-3.87h-2.57v3.87h-1.76,0Zm1.76-5.42h3.07c.25,0,.48-.06.68-.16.2-.11.38-.26.53-.45s.26-.42.34-.67.13-.52.13-.8-.05-.55-.15-.8c-.1-.25-.23-.47-.39-.66s-.35-.34-.56-.45c-.21-.11-.44-.16-.67-.16h-2.98v4.15h0Z"/>
              <path class="cls-7" d="m233.23,146.66v-11.13h1.76v11.13h-1.76Z"/>
              <path class="cls-7" d="m236.72,145.31l6.75-8.23h-6.6v-1.55h8.65v1.35l-6.6,8.23h6.61v1.55h-8.82v-1.35h.01Z"/>
              <path class="cls-7" d="m254.98,145.11v1.55h-7.63v-11.13h7.49v1.55h-5.74v3.17h4.97v1.46h-4.97v3.4h5.88Z"/>
              <path class="cls-7" d="m256.8,146.66v-11.13h3.95c.9,0,1.69.15,2.36.44.67.29,1.24.69,1.69,1.19.46.5.8,1.09,1.03,1.76s.35,1.39.35,2.15c0,.85-.13,1.61-.38,2.3-.26.68-.62,1.27-1.09,1.76-.47.49-1.04.86-1.71,1.13-.67.27-1.42.4-2.24.4h-3.96Zm7.59-5.58c0-.59-.08-1.12-.24-1.61s-.4-.91-.71-1.26c-.31-.35-.69-.62-1.14-.82-.45-.2-.96-.3-1.54-.3h-2.19v8.03h2.19c.59,0,1.1-.1,1.56-.31.45-.2.84-.49,1.14-.85.31-.36.54-.79.7-1.28s.24-1.02.24-1.6h-.01Z"/>
            </g>
          </g>
          <g>
            <g>
              <rect class="cls-3" x="104.32" y="157.87" width="12.87" height="171.16" transform="translate(-148.53 309.07) rotate(-79.74)"/>
              <g>
                <polygon class="cls-12" points="37.8 223.71 25.87 231.98 27.7 221.88 37.8 223.71"/>
                <polygon class="cls-12" points="56.97 227.18 42.01 237.55 31.77 235.7 46.73 225.33 56.97 227.18"/>
                <polygon class="cls-12" points="76.12 230.65 61.17 241.02 50.93 239.16 65.89 228.8 76.12 230.65"/>
                <polygon class="cls-12" points="95.29 234.12 80.33 244.49 70.09 242.63 85.05 232.26 95.29 234.12"/>
                <polygon class="cls-12" points="114.44 237.59 99.49 247.96 89.25 246.1 104.2 235.73 114.44 237.59"/>
                <polygon class="cls-12" points="133.61 241.06 118.64 251.42 108.41 249.57 123.37 239.2 133.61 241.06"/>
                <polygon class="cls-12" points="152.76 244.52 137.81 254.89 127.57 253.04 142.53 242.67 152.76 244.52"/>
                <polygon class="cls-12" points="171.92 247.99 156.96 258.36 146.74 256.51 161.69 246.14 171.92 247.99"/>
                <polygon class="cls-12" points="191.08 251.46 176.13 261.83 165.89 259.98 180.85 249.61 191.08 251.46"/>
                <polygon class="cls-12" points="195.42 256.25 193.83 265.04 185.05 263.45 195.42 256.25"/>
              </g>
            </g>
            <g>
              <rect class="cls-3" x="25.19" y="237.02" width="171.16" height="12.87" transform="translate(-26.57 13.94) rotate(-6.43)"/>
              <g>
                <path class="cls-12" d="m29.13,252.25c.01.11,0,.22-.03.32-.04.1-.09.2-.16.28s-.15.15-.25.21c-.1.06-.2.09-.3.1-.16.02-.3-.02-.41-.12-.11-.1-.18-.23-.19-.39-.01-.11,0-.22.04-.32s.09-.2.16-.28.15-.15.24-.21c.09-.05.19-.09.3-.1.16-.02.3.02.41.12.11.1.18.23.19.39Z"/>
                <path class="cls-12" d="m33.16,249.63l1.6-.18c.29-.03.55-.02.78.05s.42.17.58.31c.16.14.28.31.38.52.09.2.15.43.18.67.04.39.02.77-.08,1.12-.1.35-.25.66-.46.93s-.47.49-.78.67c-.31.17-.65.28-1.03.32l-1.6.18.45-4.58h-.02Zm1.24,3.47c.21-.02.4-.09.56-.2s.3-.25.4-.42c.11-.17.18-.36.23-.57.04-.21.05-.43.03-.65-.03-.29-.13-.52-.29-.69-.16-.16-.38-.23-.66-.2l-.57.06-.27,2.73.57-.06Z"/>
                <path class="cls-12" d="m38.95,253.55c-.27.03-.52,0-.74-.07-.22-.08-.41-.2-.58-.36-.16-.16-.29-.35-.39-.56-.1-.22-.16-.45-.19-.69-.03-.23-.02-.45.03-.68.04-.23.11-.44.21-.66.1-.21.22-.41.36-.6.15-.19.31-.35.5-.5s.39-.26.6-.36c.21-.09.44-.15.68-.18.27-.03.51,0,.74.08.22.08.41.2.57.36s.29.34.39.56.16.45.19.69c.04.34,0,.67-.11,1.01s-.27.64-.49.92-.48.51-.78.7-.63.3-.98.34h0Zm.1-.94c.22-.02.41-.1.57-.22s.29-.27.39-.45.17-.37.22-.57c.04-.21.05-.4.03-.59-.02-.14-.05-.27-.09-.39-.05-.12-.11-.22-.19-.31-.08-.09-.17-.15-.28-.19-.11-.04-.24-.06-.38-.04-.21.02-.4.1-.57.22-.16.12-.3.27-.4.44-.1.17-.17.36-.22.57-.04.21-.05.4-.03.59.02.14.05.27.09.39.05.12.11.22.19.31s.17.15.28.2.24.06.38.04h.01Z"/>
                <path class="cls-12" d="m43.6,248.45l.81-.09,1.64,2.48.26-2.69,1.03-.12-.45,4.58-.82.09-1.63-2.41-.25,2.62-1.03.12.45-4.58h0Z"/>
                <path class="cls-12" d="m49.61,252.35c-.27.03-.52,0-.74-.07-.22-.08-.41-.2-.58-.36-.16-.16-.29-.35-.39-.56-.1-.22-.16-.45-.19-.69-.03-.23-.02-.45.03-.68.04-.23.11-.44.21-.66.1-.21.22-.41.36-.6.15-.19.31-.35.5-.5s.39-.26.6-.36c.21-.09.44-.15.68-.18.27-.03.51,0,.74.08.22.08.41.2.57.36s.29.34.39.56.16.45.19.69c.04.34,0,.67-.11,1.01s-.27.64-.49.92-.48.51-.78.7-.63.3-.98.34h0Zm.1-.94c.22-.02.41-.1.57-.22s.29-.27.39-.45.17-.37.22-.57c.04-.21.05-.4.03-.59-.02-.14-.05-.27-.09-.39-.05-.12-.11-.22-.19-.31-.08-.09-.17-.15-.28-.19-.11-.04-.24-.06-.38-.04-.21.02-.4.1-.57.22-.16.12-.3.27-.4.44-.1.17-.17.36-.22.57-.04.21-.05.4-.03.59.02.14.05.27.09.39.05.12.11.22.19.31.08.09.17.15.28.2s.24.06.38.04h.01Z"/>
                <path class="cls-12" d="m53.26,248.28l-1.28.14.09-.93,3.59-.4-.09.93-1.27.14-.36,3.65-1.03.12.36-3.65h-.01Z"/>
                <path class="cls-12" d="m58.92,251.3c-.26.03-.51,0-.72-.08-.22-.08-.41-.21-.57-.37-.16-.16-.29-.35-.39-.58-.1-.22-.16-.45-.19-.7-.02-.21-.02-.42.02-.63.04-.22.1-.43.19-.64s.2-.4.35-.59c.14-.19.3-.35.49-.5.18-.15.39-.27.61-.37.22-.1.46-.16.72-.19.4-.05.74,0,1.02.16.28.15.47.37.59.65l-.85.66c-.03-.12-.08-.21-.14-.28-.06-.07-.13-.13-.21-.17-.08-.04-.17-.07-.26-.07h-.26c-.22.02-.41.1-.57.22s-.29.27-.39.45c-.1.17-.17.36-.21.56s-.05.39-.03.57c.02.14.05.28.1.4s.11.23.2.32c.08.09.18.16.29.2s.23.06.37.04c.09,0,.18-.03.27-.07.09-.03.18-.08.27-.14s.17-.13.25-.22.14-.19.19-.31l.8.41c-.08.18-.19.34-.33.48-.14.15-.3.28-.47.39-.17.11-.35.2-.54.27-.19.07-.37.11-.55.13h-.05Z"/>
                <path class="cls-12" d="m61.25,251l.45-4.58,1.92-.22c.18-.02.34,0,.48.05.14.06.27.14.38.24.11.11.2.23.26.38.07.15.11.3.13.46.02.15.01.31-.02.47s-.08.31-.15.46c-.07.15-.16.28-.27.41-.11.13-.23.24-.36.33l.76,1.6-1.17.13-.65-1.39-.59.07-.14,1.48-1.03.12h0Zm2.13-2.61c.06,0,.12-.03.18-.08s.11-.11.15-.18c.04-.07.07-.16.1-.26.02-.1.03-.2,0-.3-.02-.14-.06-.25-.13-.32-.07-.08-.14-.11-.23-.1l-.83.09-.12,1.25.86-.1h.02Z"/>
                <path class="cls-12" d="m67.19,250.37c-.27.03-.52,0-.74-.07-.22-.08-.41-.2-.58-.36-.16-.16-.29-.35-.39-.56-.1-.22-.16-.45-.19-.69-.03-.23-.02-.45.03-.68.04-.23.11-.44.21-.66.1-.21.22-.41.36-.6.15-.19.31-.35.5-.5s.39-.26.6-.36c.21-.09.44-.16.68-.18.27-.03.51,0,.74.08.22.08.41.2.57.36.16.16.29.34.39.56s.16.45.19.69c.04.34,0,.67-.11,1.01s-.27.64-.49.92-.48.51-.78.7c-.3.19-.63.3-.98.34h0Zm.1-.94c.22-.02.41-.1.57-.22.16-.12.29-.27.39-.45s.17-.37.22-.57c.04-.21.05-.4.03-.59-.02-.14-.05-.27-.09-.39-.05-.12-.11-.22-.19-.31s-.17-.15-.28-.19c-.11-.04-.24-.06-.38-.04-.21.02-.4.1-.57.22-.16.12-.3.27-.4.44s-.17.36-.22.57c-.04.21-.05.4-.03.59.02.14.05.27.1.39.05.12.11.22.19.31s.17.15.28.2.24.06.38.04Z"/>
                <path class="cls-12" d="m71.47,249.89c-.31.04-.63.02-.94-.04-.31-.06-.59-.17-.83-.32l.54-.97s.06.06.14.11.18.1.3.14c.12.05.26.08.42.11.16.03.32.04.48.02.2-.02.34-.08.42-.16s.11-.18.09-.3c0-.07-.04-.13-.09-.17-.05-.04-.12-.08-.21-.11s-.19-.06-.3-.08-.23-.05-.36-.08c-.31-.08-.56-.18-.72-.31-.17-.13-.26-.32-.29-.57-.03-.27,0-.52.08-.74.08-.23.21-.42.37-.59s.35-.3.58-.4c.22-.1.46-.17.7-.2.15-.02.3-.02.44,0,.14,0,.28.04.4.07.13.03.25.07.36.12.11.05.21.09.3.14l-.53.93s-.05-.04-.11-.08c-.07-.04-.15-.08-.25-.12s-.22-.07-.34-.1c-.13-.02-.25-.03-.38-.02-.18.02-.31.07-.4.16-.09.09-.13.2-.11.34.01.12.09.21.23.25.14.05.33.09.58.14.17.03.32.07.46.12.14.05.26.11.37.18.1.07.19.16.25.27s.1.24.12.39c.03.3,0,.56-.08.78-.09.22-.22.41-.39.56s-.37.27-.59.35-.45.14-.68.17h-.03Z"/>
                <path class="cls-12" d="m75.21,249.47c-.31.04-.63.02-.94-.04-.31-.06-.59-.17-.83-.32l.54-.97s.06.06.14.11.18.1.3.14c.12.05.26.08.42.11.16.03.32.04.48.02.2-.02.34-.08.42-.16s.11-.18.09-.3c0-.07-.04-.13-.09-.17-.05-.04-.12-.08-.21-.11s-.19-.06-.3-.08-.23-.05-.36-.08c-.31-.08-.56-.18-.72-.31-.17-.13-.26-.32-.29-.57-.03-.27,0-.52.08-.74.08-.23.21-.42.37-.59s.35-.3.58-.4c.22-.1.46-.17.7-.2.15-.02.3-.02.44,0,.14,0,.28.04.4.07.13.03.25.07.36.12.11.05.21.1.3.14l-.53.93s-.05-.04-.11-.08c-.07-.04-.15-.08-.25-.12s-.22-.07-.34-.09c-.13-.02-.25-.03-.38-.02-.18.02-.31.07-.4.16-.09.09-.13.2-.11.34.01.12.09.21.23.25.14.05.33.09.58.14.17.03.32.07.46.12.14.05.26.11.37.18.1.07.19.16.25.27s.1.24.12.39c.03.3,0,.56-.08.78-.09.22-.22.41-.39.56s-.37.27-.59.35c-.22.08-.45.14-.68.17h-.03Z"/>
                <path class="cls-12" d="m80.49,246.46c.01.11,0,.22-.03.32-.04.1-.09.2-.16.28-.07.08-.15.15-.25.21-.1.06-.2.09-.3.1-.16.02-.3-.02-.41-.12-.11-.1-.18-.23-.19-.39-.01-.11,0-.22.04-.32s.09-.2.16-.28c.07-.08.15-.15.25-.21.09-.05.19-.09.3-.1.16-.02.3.02.41.12.11.1.18.23.19.39h-.01Z"/>
                <path class="cls-12" d="m84.51,243.84l1.6-.18c.29-.03.55-.02.78.05s.42.17.58.31.28.31.38.52c.09.2.15.43.18.67.04.39.02.77-.08,1.12-.1.35-.25.66-.46.93-.21.27-.47.49-.78.67-.31.17-.65.28-1.03.32l-1.6.18.45-4.58h-.02Zm1.24,3.47c.21-.02.4-.09.56-.2.16-.11.3-.25.4-.42.11-.17.18-.36.23-.57.04-.21.05-.43.03-.65-.03-.29-.13-.52-.29-.69-.16-.16-.38-.23-.66-.2l-.57.06-.27,2.73.57-.06Z"/>
                <path class="cls-12" d="m90.33,247.76c-.27.03-.52,0-.74-.07-.22-.08-.41-.2-.58-.36-.16-.16-.29-.35-.39-.56-.1-.22-.16-.45-.19-.69-.03-.23-.02-.45.03-.68.04-.23.11-.44.21-.66.1-.21.22-.41.36-.6.15-.19.31-.35.5-.5s.39-.26.6-.36c.21-.09.44-.15.68-.18.27-.03.51,0,.74.08.22.08.41.2.57.36.16.16.29.34.39.56s.16.45.19.69c.04.34,0,.67-.11,1.01s-.27.64-.49.92-.48.51-.78.7c-.3.19-.63.3-.98.34h0Zm.1-.94c.22-.02.41-.1.57-.22.16-.12.29-.27.39-.45s.17-.37.22-.57c.04-.21.05-.4.03-.59-.02-.14-.05-.27-.09-.39-.05-.12-.11-.22-.19-.31s-.17-.15-.28-.19c-.11-.04-.24-.06-.38-.04-.21.02-.4.1-.57.22-.16.12-.3.27-.4.44s-.17.36-.22.57c-.04.21-.05.4-.03.59.02.14.05.27.09.39.05.12.11.22.19.31s.17.15.28.2.24.06.38.04h.01Z"/>
                <path class="cls-12" d="m94.97,242.66l.81-.09,1.64,2.48.26-2.69,1.03-.12-.45,4.58-.82.09-1.63-2.41-.25,2.62-1.03.12.45-4.58h-.01Z"/>
                <path class="cls-12" d="m100.99,246.56c-.27.03-.52,0-.74-.07-.22-.08-.41-.2-.58-.36-.16-.16-.29-.35-.39-.56-.1-.22-.16-.45-.19-.69-.03-.23-.02-.45.03-.68.04-.23.11-.44.21-.66.1-.21.22-.41.36-.6.15-.19.31-.35.5-.5s.39-.26.6-.36c.21-.09.44-.15.68-.18.27-.03.51,0,.74.08.22.08.41.2.57.36.16.16.29.34.39.56s.16.45.19.69c.04.34,0,.67-.11,1.01s-.27.64-.49.92-.48.51-.78.7c-.3.19-.63.3-.98.34h0Zm.1-.94c.22-.02.41-.1.57-.22.16-.12.29-.27.39-.45s.17-.37.22-.57c.04-.21.05-.4.03-.59-.02-.14-.05-.27-.09-.39-.05-.12-.11-.22-.19-.31s-.17-.15-.28-.19c-.11-.04-.24-.06-.38-.04-.21.02-.4.1-.57.22-.16.12-.3.27-.4.44s-.17.36-.22.57c-.04.21-.05.4-.03.59.02.14.05.27.1.39.05.12.11.22.19.31s.17.15.28.2.24.06.38.04Z"/>
                <path class="cls-12" d="m104.66,242.49l-1.28.14.09-.93,3.59-.4-.09.93-1.27.14-.36,3.66-1.03.12.36-3.65h-.01Z"/>
                <path class="cls-12" d="m110.3,245.51c-.26.03-.51,0-.72-.08-.22-.08-.41-.21-.57-.37-.16-.16-.29-.35-.39-.58-.1-.22-.16-.45-.19-.7-.02-.21-.02-.42.02-.63.04-.22.1-.43.19-.64.09-.21.2-.4.35-.59.14-.19.3-.35.49-.5.18-.15.39-.27.61-.37.22-.1.46-.16.72-.19.4-.05.74,0,1.02.16.28.15.47.37.59.65l-.85.66c-.03-.12-.08-.21-.14-.28-.06-.07-.13-.13-.21-.17s-.17-.07-.26-.07h-.26c-.22.02-.41.1-.57.22-.16.12-.29.27-.39.45-.1.17-.17.36-.21.56s-.05.39-.03.57c.02.14.05.28.1.4.05.12.11.23.2.32.08.09.18.16.29.2s.23.06.37.04c.09,0,.18-.03.27-.07.09-.03.18-.08.27-.14s.17-.13.25-.22.14-.19.19-.31l.8.41c-.08.18-.19.34-.33.48-.14.15-.3.28-.47.39s-.35.2-.54.27-.37.11-.55.13h-.05,0Z"/>
                <path class="cls-12" d="m112.61,245.21l.45-4.58,1.92-.22c.18-.02.34,0,.48.05.14.06.27.14.38.24.11.11.2.23.26.38.07.15.11.3.13.46.02.15.01.31-.02.47s-.08.31-.15.46c-.07.15-.16.28-.27.41-.11.13-.23.24-.36.33l.76,1.6-1.17.13-.65-1.39-.59.07-.14,1.48-1.03.12h0Zm2.13-2.61c.06,0,.12-.03.18-.08s.11-.11.15-.18c.04-.07.07-.16.1-.26.02-.1.03-.2.01-.3-.02-.14-.06-.25-.13-.32-.07-.08-.14-.11-.23-.1l-.83.09-.12,1.25.86-.1h.01Z"/>
                <path class="cls-12" d="m118.6,244.57c-.27.03-.52,0-.74-.07-.22-.08-.41-.2-.58-.36-.16-.16-.29-.35-.39-.56-.1-.22-.16-.45-.19-.69-.03-.23-.02-.45.03-.68.04-.23.11-.44.21-.66.1-.21.22-.41.36-.6.15-.19.31-.35.5-.5.19-.14.39-.26.6-.36.21-.09.44-.15.68-.18.27-.03.51,0,.74.08.22.08.41.2.57.36.16.16.29.34.39.56s.16.45.19.69c.04.34,0,.67-.11,1.01s-.27.64-.49.92-.48.51-.78.7c-.3.19-.63.3-.98.34h0Zm.1-.94c.22-.02.41-.1.57-.22.16-.12.29-.27.39-.45s.17-.37.22-.57c.04-.21.05-.4.03-.59-.02-.14-.05-.27-.09-.39-.05-.12-.11-.22-.19-.31s-.17-.15-.28-.2c-.11-.04-.24-.06-.38-.04-.21.02-.4.1-.57.22-.16.12-.3.27-.4.44s-.17.36-.22.57c-.04.21-.05.4-.03.59.02.14.05.27.09.39.05.12.11.22.19.31s.17.15.28.2.24.06.38.04h.01Z"/>
                <path class="cls-12" d="m122.86,244.11c-.31.04-.63.02-.94-.04-.31-.06-.59-.17-.83-.32l.54-.97s.06.06.14.11.18.1.3.14c.12.05.26.08.42.11.16.03.32.04.48.02.2-.02.34-.08.42-.16s.11-.18.09-.3c0-.07-.04-.13-.09-.17-.05-.04-.12-.08-.21-.11s-.19-.06-.3-.08-.23-.05-.36-.08c-.31-.08-.56-.18-.72-.31-.17-.13-.26-.32-.29-.57-.03-.27,0-.52.08-.74.08-.23.21-.42.37-.59s.35-.3.58-.4c.22-.1.46-.17.7-.2.15-.02.3-.02.44,0,.14,0,.28.04.4.07.13.03.25.07.36.12.11.05.21.1.3.14l-.53.93s-.05-.04-.11-.08c-.07-.04-.15-.08-.25-.12s-.22-.07-.34-.1c-.13-.02-.25-.03-.38-.02-.18.02-.31.07-.4.16-.09.09-.13.2-.11.34.01.12.09.21.23.25.14.05.33.09.58.14.17.03.32.07.46.12.14.05.26.11.37.18.1.07.19.16.25.27s.1.24.12.39c.03.3,0,.56-.08.78-.09.22-.22.41-.39.56s-.37.27-.59.35-.45.14-.68.17h-.03Z"/>
                <path class="cls-12" d="m126.61,243.68c-.31.04-.63.02-.94-.04-.31-.06-.59-.17-.83-.32l.54-.97s.06.06.14.11.18.1.3.14c.12.05.26.08.42.11.16.03.32.04.48.02.2-.02.34-.08.42-.16s.11-.18.09-.3c0-.07-.04-.13-.09-.17-.05-.04-.12-.08-.21-.11s-.19-.06-.3-.08-.23-.05-.36-.08c-.31-.08-.56-.18-.72-.31-.17-.13-.26-.32-.29-.57-.03-.27,0-.52.08-.74.08-.23.21-.42.37-.59s.35-.3.58-.4c.22-.1.46-.17.7-.2.15-.02.3-.02.44,0,.14,0,.28.04.4.07.13.03.25.07.36.12.11.05.21.09.3.14l-.53.93s-.05-.04-.11-.08c-.07-.04-.15-.08-.25-.12s-.22-.07-.34-.1c-.13-.02-.25-.03-.38-.02-.18.02-.31.07-.4.16-.09.09-.13.2-.11.34.01.12.09.21.23.25.14.05.33.09.58.14.17.03.32.07.46.12.14.05.26.11.37.18.1.07.19.16.25.27s.1.24.12.39c.03.3,0,.56-.08.78-.09.22-.22.41-.39.56s-.37.27-.59.35-.45.14-.68.17h-.03Z"/>
                <path class="cls-12" d="m131.88,240.67c0,.11,0,.22-.03.32-.04.1-.09.2-.16.28s-.15.15-.25.21c-.1.06-.2.09-.3.1-.16.02-.3-.02-.41-.12-.11-.1-.18-.23-.19-.39,0-.11,0-.22.04-.32s.09-.2.16-.28.15-.15.25-.21c.09-.05.19-.09.3-.1.16-.02.3.02.41.12s.18.23.19.39h0Z"/>
                <path class="cls-12" d="m135.9,238.05l1.6-.18c.29-.03.55-.02.78.05s.42.17.58.31.28.31.38.52c.09.2.15.43.18.67.04.39.02.77-.08,1.12-.1.35-.25.66-.46.93-.21.27-.47.49-.78.67-.31.17-.65.28-1.03.32l-1.6.18.45-4.58h-.02,0Zm1.24,3.47c.21-.02.4-.09.56-.2s.3-.25.4-.42c.11-.17.18-.36.23-.57.04-.21.05-.43.03-.65-.03-.29-.13-.52-.29-.69-.16-.16-.38-.23-.66-.2l-.57.06-.27,2.73.57-.06h0Z"/>
                <path class="cls-12" d="m141.69,241.97c-.27.03-.52,0-.74-.07-.22-.08-.41-.2-.58-.36-.16-.16-.29-.35-.39-.56-.1-.22-.16-.45-.19-.69-.03-.23-.02-.45.03-.68.04-.23.11-.44.21-.66.1-.21.22-.41.36-.6s.31-.35.5-.5c.19-.14.39-.26.6-.36.21-.09.44-.15.68-.18.27-.03.51,0,.74.08.22.08.41.2.57.36s.29.34.39.56.16.45.19.69c.04.34,0,.67-.11,1.01s-.27.64-.49.92-.48.51-.78.7-.63.3-.98.34h-.01Zm.1-.94c.22-.02.41-.1.57-.22s.29-.27.39-.45.17-.37.22-.57c.04-.21.05-.4.03-.59-.02-.14-.05-.27-.09-.39-.05-.12-.11-.22-.19-.31s-.17-.15-.28-.19c-.11-.04-.24-.06-.38-.04-.21.02-.4.1-.57.22-.16.12-.3.27-.4.44-.1.17-.17.36-.22.57-.04.21-.05.4-.03.59.02.14.05.27.09.39.05.12.11.22.19.31s.17.15.28.2.24.06.38.04h0Z"/>
                <path class="cls-12" d="m146.35,236.87l.81-.09,1.64,2.48.26-2.69,1.03-.12-.45,4.58-.82.09-1.63-2.41-.25,2.62-1.03.12.45-4.58h0Z"/>
                <path class="cls-12" d="m152.38,240.77c-.27.03-.52,0-.74-.07-.22-.08-.41-.2-.58-.36-.16-.16-.29-.35-.39-.56-.1-.22-.16-.45-.19-.69-.03-.23-.02-.45.03-.68.04-.23.11-.44.21-.66.1-.21.22-.41.36-.6.15-.19.31-.35.5-.5s.39-.26.6-.36c.21-.09.44-.15.68-.18.27-.03.51,0,.74.08.22.08.41.2.57.36s.29.34.39.56.16.45.19.69c.04.34,0,.67-.11,1.01s-.27.64-.49.92-.48.51-.78.7-.63.3-.98.34h-.01Zm.1-.94c.22-.02.41-.1.57-.22s.29-.27.39-.45.17-.37.22-.57c.04-.21.05-.4.03-.59-.02-.14-.05-.27-.09-.39-.05-.12-.11-.22-.19-.31s-.17-.15-.28-.19c-.11-.04-.24-.06-.38-.04-.21.02-.4.1-.57.22-.16.12-.3.27-.4.44-.1.17-.17.36-.22.57-.04.21-.05.4-.03.59.02.14.05.27.09.39.05.12.11.22.19.31s.17.15.28.2.24.06.38.04h0Z"/>
                <path class="cls-12" d="m156.03,236.7l-1.28.14.09-.93,3.59-.4-.09.93-1.27.14-.36,3.65-1.03.12.36-3.65h0Z"/>
                <path class="cls-12" d="m161.69,239.72c-.26.03-.51,0-.72-.08-.22-.08-.41-.21-.57-.37-.16-.16-.29-.35-.39-.58-.1-.22-.16-.45-.19-.7-.02-.21-.02-.42.02-.63.04-.22.1-.43.19-.64s.2-.4.35-.59c.14-.19.3-.35.49-.5s.39-.27.61-.37c.22-.1.46-.16.72-.19.4-.05.74,0,1.02.16.28.15.47.37.59.65l-.85.66c-.03-.12-.08-.21-.14-.28-.06-.07-.13-.13-.21-.17s-.17-.07-.26-.07h-.26c-.22.02-.41.1-.57.22s-.29.27-.39.45c-.1.17-.17.36-.21.56-.04.2-.05.39-.03.57.02.14.05.28.1.4s.11.23.2.32c.08.09.18.16.29.2s.23.06.37.04c.09,0,.18-.03.27-.07.09-.03.18-.08.27-.14.09-.06.17-.13.25-.22s.14-.19.19-.31l.8.41c-.08.18-.19.34-.33.48-.14.15-.3.28-.47.39s-.35.2-.54.27c-.19.07-.37.11-.55.13h-.05Z"/>
                <path class="cls-12" d="m164.01,239.42l.45-4.58,1.92-.22c.18-.02.34,0,.48.05.14.06.27.14.38.24.11.11.2.23.26.38.07.15.11.3.13.46s0,.31-.02.47-.08.31-.15.46c-.07.15-.16.28-.27.41s-.23.24-.36.33l.76,1.6-1.17.13-.65-1.39-.59.07-.14,1.48-1.03.12h0Zm2.13-2.61c.06,0,.12-.03.18-.08s.11-.11.15-.18c.04-.07.07-.16.1-.26.02-.1.03-.2,0-.3-.02-.14-.06-.25-.13-.32-.07-.08-.14-.11-.23-.1l-.83.09-.12,1.25.86-.1h.02Z"/>
                <path class="cls-12" d="m169.96,238.79c-.27.03-.52,0-.74-.07-.22-.08-.41-.2-.58-.36-.16-.16-.29-.35-.39-.56-.1-.22-.16-.45-.19-.69-.03-.23-.02-.45.03-.68.04-.23.11-.44.21-.66.1-.21.22-.41.36-.6s.31-.35.5-.5c.19-.14.39-.26.6-.36.21-.09.44-.16.68-.18.27-.03.51,0,.74.08.22.08.41.2.57.36s.29.34.39.56.16.45.19.69c.04.34,0,.67-.11,1.01s-.27.64-.49.92-.48.51-.78.7-.63.3-.98.34h-.01Zm.1-.94c.22-.02.41-.1.57-.22s.29-.27.39-.45.17-.37.22-.57c.04-.21.05-.4.03-.59-.02-.14-.05-.27-.09-.39-.05-.12-.11-.22-.19-.31s-.17-.15-.28-.19c-.11-.04-.24-.06-.38-.04-.21.02-.4.1-.57.22-.16.12-.3.27-.4.44-.1.17-.17.36-.22.57-.04.21-.05.4-.03.59.02.14.05.27.09.39.05.12.11.22.19.31s.17.15.28.2.24.06.38.04h0Z"/>
                <path class="cls-12" d="m174.23,238.32c-.31.04-.63.02-.94-.04s-.59-.17-.83-.32l.54-.97s.06.06.14.11.18.1.3.14c.12.05.26.08.42.11s.32.04.48.02c.2-.02.34-.08.42-.16s.11-.18.09-.3c0-.07-.04-.13-.09-.17s-.12-.08-.21-.11c-.09-.03-.19-.06-.3-.08s-.23-.05-.36-.08c-.31-.08-.56-.18-.72-.31-.17-.13-.26-.32-.29-.57-.03-.27,0-.52.08-.74.08-.23.21-.42.37-.59.16-.17.35-.3.58-.4.22-.1.46-.17.7-.2.15-.02.3-.02.44,0,.14,0,.28.04.4.07.13.03.25.07.36.12.11.05.21.1.3.14l-.53.93s-.05-.04-.11-.08c-.07-.04-.15-.08-.25-.12s-.22-.07-.34-.1c-.13-.02-.25-.03-.38-.02-.18.02-.31.07-.4.16s-.13.2-.11.34c0,.12.09.21.23.25.14.05.33.09.58.14.17.03.32.07.46.12.14.05.26.11.37.18.1.07.19.16.25.27s.1.24.12.39c.03.3,0,.56-.08.78-.09.22-.22.41-.39.56s-.37.27-.59.35-.45.14-.68.17h-.03,0Z"/>
                <path class="cls-12" d="m177.97,237.9c-.31.04-.63.02-.94-.04s-.59-.17-.83-.32l.54-.97s.06.06.14.11.18.1.3.14c.12.05.26.08.42.11s.32.04.48.02c.2-.02.34-.08.42-.16s.11-.18.09-.3c0-.07-.04-.13-.09-.17s-.12-.08-.21-.11-.19-.06-.3-.08-.23-.05-.36-.08c-.31-.08-.56-.18-.72-.31-.17-.13-.26-.32-.29-.57-.03-.27,0-.52.08-.74.08-.23.21-.42.37-.59.16-.17.35-.3.58-.4.22-.1.46-.17.7-.2.15-.02.3-.02.44,0,.14,0,.28.04.4.07.13.03.25.07.36.12.11.05.21.1.3.14l-.53.93s-.05-.04-.11-.08c-.07-.04-.15-.08-.25-.12s-.22-.07-.34-.09c-.13-.02-.25-.03-.38-.02-.18.02-.31.07-.4.16s-.13.2-.11.34c0,.12.09.21.23.25.14.05.33.09.58.14.17.03.32.07.46.12.14.05.26.11.37.18.1.07.19.16.25.27s.1.24.12.39c.03.3,0,.56-.08.78-.09.22-.22.41-.39.56s-.37.27-.59.35-.45.14-.68.17h-.03,0Z"/>
                <path class="cls-12" d="m183.25,234.88c0,.11,0,.22-.03.32-.04.1-.09.2-.16.28s-.15.15-.25.21c-.1.06-.2.09-.3.1-.16.02-.3-.02-.41-.12-.11-.1-.18-.23-.19-.39,0-.11,0-.22.04-.32s.09-.2.16-.28.15-.15.25-.21c.09-.05.19-.09.3-.1.16-.02.3.02.41.12s.18.23.19.39h0Z"/>
                <path class="cls-12" d="m187.27,232.26l1.6-.18c.29-.03.55-.02.77.05s.42.17.58.31.28.31.38.52c.09.2.15.43.18.67.04.4.02.77-.08,1.12-.1.35-.25.66-.46.93-.21.27-.47.49-.78.67-.31.17-.65.28-1.03.32l-1.6.18.45-4.58h0Zm1.24,3.47c.21-.02.4-.09.56-.2s.3-.25.4-.42c.11-.17.18-.36.23-.57.04-.21.05-.43.03-.65-.03-.29-.13-.52-.29-.69-.16-.16-.38-.23-.66-.2l-.57.06-.27,2.73.57-.06h0Z"/>
                <path class="cls-12" d="m193.08,236.18c-.27.03-.52,0-.74-.07-.22-.08-.41-.2-.58-.36-.16-.16-.29-.35-.39-.56-.1-.22-.16-.45-.19-.69-.03-.23-.02-.45.03-.68.04-.23.11-.44.21-.66.1-.21.22-.41.36-.6s.31-.35.5-.5.39-.26.6-.36c.22-.09.44-.15.68-.18.27-.03.51,0,.74.08.22.08.41.2.57.36s.29.34.39.56.16.45.19.69c.04.34,0,.67-.11,1.01s-.27.64-.49.92-.48.51-.78.7-.63.3-.98.34h-.01Zm.1-.94c.22-.02.41-.1.57-.22s.29-.27.39-.45.17-.37.22-.57c.04-.21.05-.4.03-.59-.02-.14-.05-.27-.09-.39-.05-.12-.11-.22-.19-.31s-.17-.15-.28-.19c-.11-.04-.24-.06-.38-.04-.21.02-.4.1-.57.22-.16.12-.3.27-.4.44-.1.17-.17.36-.22.57-.04.21-.05.4-.03.59.02.14.05.27.09.39.05.12.11.22.19.31s.17.15.28.2.24.06.38.04h0Z"/>
              </g>
            </g>
            <g>
              <rect class="cls-14" x="22.33" y="219.23" width="6.23" height="146.46"/>
              <polygon class="cls-14" points="50.75 370.41 .14 370.41 22.33 365.69 28.57 365.69 50.75 370.41"/>
            </g>
            <g>
              <rect class="cls-14" x="191.82" y="219.23" width="6.23" height="146.46"/>
              <polygon class="cls-14" points="220.24 370.41 169.62 370.41 191.81 365.69 198.05 365.69 220.24 370.41"/>
            </g>
          </g>
          <path class="cls-12" d="m0,370.4c131.23-.61,278.44-.62,409.67,0-131.23.62-278.44.61-409.67,0h0Z"/>
          <circle class="cls-2" cx="317.14" cy="191.35" r="105.23"/>
          <g>
            <path class="cls-4" d="m316.7,142.84c-.45.8-.79,1.38-1.19,2.04-.39.64-.79,1.26-1.19,1.89-.8,1.24-1.65,2.45-2.52,3.65-1.74,2.38-3.59,4.7-5.61,6.92-2.01,2.22-4.15,4.37-6.52,6.36-2.35,2.01-4.91,3.88-7.8,5.47-.59.34-1.75.96-2.74,1.32-1.02.38-2.03.67-3.03.85-1.99.36-3.86.39-5.62.27-3.52-.25-6.6-1.16-9.5-2.2-2.88-1.1-5.57-2.39-8.12-3.86-2.57-1.49-4.93-3.04-7.33-4.94-1.53-1.22-1.79-3.46-.56-4.99.99-1.24,2.63-1.64,4.03-1.11l.19.07c4.82,1.83,9.96,3.58,14.78,4.48,2.4.48,4.77.67,6.77.57.99-.07,1.9-.23,2.6-.48.35-.12.66-.25.91-.4.29-.16.34-.22.91-.61,3.67-2.57,7.15-6.15,10.35-10.03,1.59-1.96,3.15-3.98,4.63-6.07.75-1.04,1.46-2.11,2.18-3.16l1.05-1.59.96-1.49.16-.25c2.12-3.31,6.52-4.27,9.83-2.15,3.18,2.04,4.19,6.21,2.37,9.47v-.03h0Z"/>
            <path class="cls-4" d="m260.68,155.32l-7.8-5.16-3.3,10.37s5.04,2.91,10.02-.51l1.08-4.7h0Z"/>
            <path class="cls-4" d="m245.71,151.71l-.61,3.3c-.22,1.2.26,2.42,1.24,3.14l3.23,2.38,3.3-10.37-3.14-.92c-1.81-.53-3.69.62-4.03,2.48h0Z"/>
            <g>
              <path class="cls-3" d="m316.95,126.31c-7.94,1.26-15.98,10.59-20.81,19.28,5.31,9.25,13.77,12.63,13.77,12.63,0,0,9.42-8.91,13.23-15.5,3.82-6.58,1.28-17.6-6.19-16.41Z"/>
              <path class="cls-6" d="m316.95,126.31c-7.94,1.26-15.98,10.59-20.81,19.28,5.31,9.25,13.77,12.63,13.77,12.63,0,0,9.42-8.91,13.23-15.5,3.82-6.58,1.28-17.6-6.19-16.41Z"/>
            </g>
            <path class="cls-12" d="m296.44,143.59s-1.5,1.75-1.7,2.84c1.98,3.05,6.69,11.22,15.48,12.92,1.49-.9,1.83-2.17,1.83-2.17,0,0-10.11-4.99-15.62-13.59h.01Z"/>
            <path class="cls-3" d="m348.95,126.03c-9.35-1.52-20.12-1.98-29.05-.83-7.22.93-12.62,7.56-12.56,14.84.05,6.37.48,14.23,2,22.62-2.65,13.99-3.61,32.99-.81,37.18l50.04.71c2.14-5.99-.55-31.86,2.3-58.89.8-7.56-4.42-14.42-11.92-15.64h0Z"/>
            <path class="cls-6" d="m330.07,199.92c-2.86-22.51-.03-60.15,0-60.53l1.01.08c-.03.38-2.84,37.92,0,60.33l-1.01.13h0Z"/>
            <path class="cls-12" d="m324.66,125.91c1.72-.64,1.08-1.6,1.08-1.6,0,0-7.81,0-13.21,1.46-.83.88.06,1.99.06,1.99,0,0,6.96.06,12.07-1.85Z"/>
            <path class="cls-6" d="m327.86,124.34s-3.22,5.96,1.09,11.38c-3.42.02-5.63,5.82-5.63,5.82,0,0-6.67-9.28,1.86-16.69.47-.73,2.67-.51,2.67-.51,0,0,.01,0,.01,0Z"/>
            <path class="cls-9" d="m324.42,127.23c-.84,3.64,6.49,10.51,6.49,10.51,0,0,12.97-6.26,13.79-9.86l-20.28-.65Z"/>
            <path class="cls-6" d="m353.68,148.54c-1.38,2.67.46,14.27,5.8,19.13.06-4.78.2-9.86.51-15.07l-6.31-4.06h0Z"/>
            <path class="cls-4" d="m342,106.28l-13.39,8.79c1.59,3.89,2.33,7.94-2.25,9.81-2.65,1.08-2.7,4.85-.03,5.89,1.07.42,2.45.73,4.19.89,4.6.42,9.43-.44,12.59-2,1.78-.88,2.29-3.11,1.15-4.74-3.47-5.01-3.05-13.63-2.27-18.63h.01Z"/>
            <path class="cls-6" d="m336.54,109.87l-7.92,5.2c.45,1.1.83,2.22,1.03,3.29,3.16-.18,7.29-2.69,7.37-5.3.04-1.3-.15-2.57-.48-3.19h0Z"/>
            <g>
              <path class="cls-12" d="m327.13,89.52c3.41-.07,4.34,4.82,3.09,6.47,2.58.56,3.83,3.58,3.09,5.12-.74,1.53-3.77,3.21-6.44,2.54-4.56-1.15-5.35-4.94-4.11-6.66-2.48-2.05-1.24-8.22,4.37-7.46h0Z"/>
              <path class="cls-10" d="m327.13,89.52c3.41-.07,4.34,4.82,3.09,6.47,2.58.56,3.83,3.58,3.09,5.12-.74,1.53-3.77,3.21-6.44,2.54-4.56-1.15-5.35-4.94-4.11-6.66-2.48-2.05-1.24-8.22,4.37-7.46h0Z"/>
            </g>
            <path class="cls-4" d="m346.34,97.58c-1.02,8.03-1.21,12.78-5.56,16.62-6.54,5.77-16.26,1.34-17.66-6.86-1.26-7.38.62-19.27,8.73-21.89,7.99-2.58,15.51,4.1,14.48,12.13h0Z"/>
            <g>
              <path class="cls-12" d="m345.42,103.73c-3.41-.05-4.17-4.97-2.86-6.58-2.56-.65-3.7-3.72-2.91-5.22s3.88-3.07,6.52-2.31c4.52,1.31,5.18,5.12,3.87,6.8,2.41,2.13.95,8.26-4.62,7.31Z"/>
              <path class="cls-10" d="m345.42,103.73c-3.41-.05-4.17-4.97-2.86-6.58-2.56-.65-3.7-3.72-2.91-5.22s3.88-3.07,6.52-2.31c4.52,1.31,5.18,5.12,3.87,6.8,2.41,2.13.95,8.26-4.62,7.31Z"/>
            </g>
            <path class="cls-6" d="m337.23,98.87s1.44-.4,2.46.32c-1.37.1-2.46-.32-2.46-.32Z"/>
            <path class="cls-6" d="m337.19,99.46s1.36-.09,2.08.83c-1.22-.2-2.08-.83-2.08-.83Z"/>
            <path class="cls-6" d="m324.48,98.29s-.65-.4-1.12.32c.62.1,1.12-.32,1.12-.32Z"/>
            <path class="cls-6" d="m324.5,98.88s-.62-.09-.95.83c.56-.2.95-.83.95-.83Z"/>
            <path class="cls-4" d="m348.81,105.76c-1.07,1.88-2.76,3.09-4.3,3.54-2.31.67-3.24-1.64-2.4-4.05.75-2.17,2.87-5.13,5.1-4.74,2.2.39,2.83,3.1,1.61,5.25h-.01Z"/>
            <path class="cls-12" d="m335.6,98.93c-.04.66-.43,1.16-.86,1.13s-.74-.59-.7-1.25c.04-.66.43-1.16.86-1.13.43.03.74.59.7,1.25Z"/>
            <path class="cls-12" d="m332.35,110.86c-.84.16-1.6-.16-1.7-.71-.1-.55.5-1.12,1.34-1.28.84-.16,1.6.16,1.7.71s-.5,1.12-1.34,1.28Z"/>
            <path class="cls-12" d="m326.7,98.21c-.04.66-.43,1.16-.86,1.13-.43-.03-.74-.59-.7-1.25.04-.66.43-1.16.86-1.13s.74.59.7,1.25Z"/>
            <g>
              <path class="cls-12" d="m328.73,104.76c-4.76.33-5.67,2.65-4.84,3.67.83,1.02,2.87.02,2.87.02,0,0,3.85.82,4.98-.4,1.82.77,4.59-.67,3.81-1.77s-2.75-1.79-6.82-1.51h0Z"/>
              <path class="cls-10" d="m328.73,104.76c-4.76.33-5.67,2.65-4.84,3.67.83,1.02,2.87.02,2.87.02,0,0,3.85.82,4.98-.4,1.82.77,4.59-.67,3.81-1.77s-2.75-1.79-6.82-1.51h0Z"/>
            </g>
            <path class="cls-5" d="m328.87,98.88s-1.74,3.68-3.51,5.38c1.09,1.17,3.1.82,3.1.82l.41-6.21h0Z"/>
            <path class="cls-12" d="m337.04,95.49c.06,0,.13-.02.19-.06.18-.12.23-.36.11-.53-1.18-1.8-2.96-1.83-3.04-1.83-.21,0-.39.17-.38.39,0,.21.17.39.39.39h0c.06,0,1.45.04,2.39,1.47.08.12.22.18.35.18h-.01Z"/>
            <path class="cls-12" d="m323.78,94.73c.13,0,.25-.06.32-.17.95-1.41,2.34-1.41,2.4-1.41.21,0,.39-.17.39-.38s-.17-.39-.38-.39c-.08,0-1.86-.02-3.05,1.75-.12.18-.07.42.11.54.07.04.14.07.21.07h0Z"/>
            <g>
              <path class="cls-12" d="m336.91,282.81c2.27-36.7,1.77-74.35-2.19-82.55l-26.19-.4s3.25,61.36,4.28,85.8c1.07,25.42,3.34,91.5,3.34,91.5l15.15.19s8.91-66.15,5.61-94.54h0Z"/>
              <path class="cls-6" d="m338.04,226.71c-8.94,9.76-4.76,36.8-.86,51.69,1.04-18.62,1.35-37.16.86-51.69h0Z"/>
              <path class="cls-12" d="m331.1,379.29l-13.33-.17c-.81-.01-1.69.17-2.36.7-3.86,3.04-6.8,3.14-11.19,3.93-5.26.94-2.66,6.23,1.22,6.29,6.41.1,5.88-.13,11.34-.05,1.23.02,3.79.05,3.79.05l1.71-1.74,1.51,1.74h6.99c.77,0,1.39-.64,1.31-1.41l-.99-9.34h0Z"/>
              <path class="cls-3" d="m332.17,380.61c-.24-.04-17.48-.55-17.48-.55l-.71-6.19,19.13.42-.94,6.31h0Z"/>
            </g>
            <g>
              <path class="cls-12" d="m367.67,282.81c-2.81-36.7-4-74.05-9.1-82.24l-31.59-.41s12.56,61.06,16.98,85.5c4.59,25.42,16.94,91.5,16.94,91.5l15.18.19s-1.18-66.15-8.41-94.54Z"/>
              <path class="cls-12" d="m376.82,379.29l-13.33-.17c-.81-.01-1.69.17-2.36.7-3.86,3.04-2.09,3.14-6.48,3.93-5.26.94-2.66,6.23,1.22,6.29,6.41.1,5.88-.13,11.34-.05,1.23.02,5.93.05,5.93.05l.79-1.74,1.05,1.74h1.56c.76,0,1.35-.66,1.27-1.41l-.99-9.33h0Z"/>
              <path class="cls-3" d="m377.83,380.61c-.24-.04-17.56-.55-17.56-.55l-1.63-6.19,19.19.42v6.31h0Z"/>
            </g>
            <path class="cls-3" d="m328.39,123.62s-3.76,6.68.56,12.1c-3.42.02-5.65,3.71-5.65,3.71,0,0-4.55-9.13,2.17-15.21.47-.73,2.93-.59,2.93-.59h-.01Z"/>
            <g>
              <path class="cls-12" d="m359.94,203.35c-17.87.74-38.37.97-51.19,0-.14,0-.27-.08-.35-.19-.8-1.14-1.2-3.09-1.1-4.72.01-.25.23-.44.49-.43,16.92.45,33.73.43,51.4,0,.2,0,.38.11.46.3.56,1.43.87,2.98.76,4.61-.02.24-.22.43-.46.44h0Z"/>
              <path class="cls-6" d="m359.94,203.35c-17.87.74-38.37.97-51.19,0-.14,0-.27-.08-.35-.19-.8-1.14-1.2-3.09-1.1-4.72.01-.25.23-.44.49-.43,16.92.45,33.73.43,51.4,0,.2,0,.38.11.46.3.56,1.43.87,2.98.76,4.61-.02.24-.22.43-.46.44h0Z"/>
            </g>
            <path class="cls-9" d="m325.02,197.72s-.38,4.09.54,6.7c3.88.6,11.83.15,11.83.15,0,0,.21-3.79-.25-6.76-6.1-.28-12.12-.09-12.12-.09Z"/>
            <g>
              <path class="cls-4" d="m360.76,136.26l.58.51.46.43.86.83c.56.55,1.07,1.11,1.59,1.66,1.02,1.11,1.98,2.25,2.9,3.41,1.83,2.32,3.53,4.71,5.05,7.19,1.53,2.48,2.96,5,4.21,7.6,1.3,2.58,2.44,5.22,3.45,7.9.27.72.48,1.15.87,2.39.33,1.05.53,2.08.64,3.06.22,1.97.13,3.76-.07,5.45-.41,3.36-1.38,6.28-2.43,9.06-1.11,2.76-2.38,5.36-3.81,7.83-1.44,2.49-2.94,4.81-4.75,7.15-1.2,1.55-3.44,1.84-4.99.63-1.24-.96-1.67-2.58-1.18-3.98l.06-.17c1.68-4.81,3.36-9.86,4.31-14.64.5-2.37.79-4.74.77-6.76-.02-1.01-.13-1.92-.33-2.62-.22-.81-.27-.75-.99-2.21-2.28-4.52-4.78-8.89-7.61-12.98-1.4-2.06-2.89-4.03-4.41-5.93-.76-.96-1.55-1.86-2.33-2.76l-1.18-1.29-.57-.6-.27-.27c-.07-.07-.2-.19-.17-.17-2.97-2.58-3.28-7.08-.7-10.04,2.58-2.97,7.08-3.28,10.04-.7v.02h0Z"/>
              <path class="cls-3" d="m351.98,127.45c7.92,1.37,15.82,10.82,20.53,19.58-5.44,9.17-13.95,12.43-13.95,12.43,0,0-9.29-9.05-13.01-15.69s-1.03-17.61,6.43-16.32h0Z"/>
              <path class="cls-12" d="m372.23,145.03s1.47,1.78,1.66,2.86c-2.03,3.02-6.85,11.12-15.67,12.7-1.48-.92-1.8-2.19-1.8-2.19,0,0,10.18-4.84,15.81-13.36h0Z"/>
              <path class="cls-12" d="m346.25,126.74c-1.64-.7-.99-1.64-.99-1.64,0,0,7.54.27,12.69,1.91.77.9-.13,1.99-.13,1.99,0,0-6.71-.18-11.58-2.26h0Z"/>
              <path class="cls-6" d="m344.27,124.91s-1.71,5.96-9.52,10.82c3.42.02,5.71,6.24,5.71,6.24,0,0,7.08-8.36,5.47-16.61-.47-.73-1.66-.45-1.66-.45h0Z"/>
              <path class="cls-3" d="m344.05,123.83s-2.03,6.45-9.29,11.9c3.42.02,5.79,3.7,5.79,3.7,0,0,7-5.82,5.39-14.07-.47-.73-1.89-1.53-1.89-1.53Z"/>
              <path class="cls-9" d="m351.38,148.31c-.47,8.79-6.03,10.88-6.81,10.88s-6.11-2.09-5.64-10.88l6.36-2.5,6.09,2.5h0Z"/>
              <path class="cls-4" d="m365.07,196.66l-6.26,5.39,8.31,5.4s5.08-5.57,2.56-8.74l-4.6-2.04h0Z"/>
              <path class="cls-4" d="m358.1,210.6l3.23,1.4c1.29.56,2.79.1,3.55-1.08l2.24-3.48-8.31-5.4-2.17,4.73c-.67,1.46,0,3.18,1.46,3.82h0Z"/>
            </g>
            <g>
              <path class="cls-12" d="m322.68,87.86c-5.58.75-3.71,2.53,8.74,4.12,12.45,1.59,15.56.34,15.56.34,0,0-14.29-4.49-24.31-4.45h.01Z"/>
              <path class="cls-3" d="m350.84,94.73s-10.93-4.45-28.17-6.87c-.21-2.53,1.88-5.22,1.88-5.22,0,0-3.84-1.93-2.65-5.6,1.19-3.68,6.68-3.19,13.1-6.14,2.35,2.59,8.81,6.79,13.22,7.32,1.09,2.24,3.94,7.87,8.55,10.04-.07,2.45-4.66,3.09-4.66,3.09,0,0,.22,1.65-1.28,3.38,0,0,.01,0,.01,0Z"/>
              <path class="cls-1" d="m352.12,91.35c-4-3.63-18.2-10.26-27.57-8.71,0,0-2.09,2.69-1.88,5.22,17.23,2.42,28.17,6.87,28.17,6.87,1.49-1.73,1.28-3.38,1.28-3.38Z"/>
              <path class="cls-9" d="m336.66,78.41c-1.23,6.27-5.51,7.39-6.08,7.34-.57-.05-4.27-1.91-3.04-8.18l4.91-1.36,4.21,2.21h0Z"/>
            </g>
          </g>
          <g>
            <polygon class="cls-17" points="361.36 75.37 370.37 62.46 374.8 66.97 382.92 57.24 387.56 62.1 374.39 70.59 370.87 66.19 361.36 75.37"/>
            <polygon class="cls-17" points="358.49 82.55 370.92 79.78 370.92 83.74 379.95 84.35 380.04 88.59 367.93 86.4 368.88 82.52 358.49 82.55"/>
            <polygon class="cls-17" points="354.33 75.37 353.41 63.41 357.67 63.93 357.58 54.19 362.32 53.67 359.63 66.3 355.84 65.58 354.33 75.37"/>
          </g>
        </g>
      </g>
    </g>
  </g>
</svg>