<?xml version="1.0" encoding="UTF-8"?>
<svg id="Layer_2" data-name="Layer 2" xmlns="http://www.w3.org/2000/svg" width="426.29" height="460.4" viewBox="0 0 426.29 460.4">
  <defs>
    <style>
      .cls-1, .cls-2, .cls-3 {
        fill: none;
        stroke-miterlimit: 10;
      }

      .cls-1, .cls-3 {
        stroke: #ebebeb;
      }

      .cls-4 {
        fill: #00b2e3;
      }

      .cls-4, .cls-5, .cls-6, .cls-7, .cls-8, .cls-9, .cls-10, .cls-11, .cls-12, .cls-13, .cls-14, .cls-15 {
        stroke-width: 0px;
      }

      .cls-2 {
        stroke: #c7c7c7;
      }

      .cls-5 {
        fill: #37474f;
      }

      .cls-6 {
        fill: #c7c7c7;
      }

      .cls-7 {
        fill: #fff;
      }

      .cls-8 {
        fill: #0055b8;
      }

      .cls-9 {
        fill: #263238;
      }

      .cls-10 {
        fill: #82898e;
        opacity: .2;
      }

      .cls-11 {
        fill: #a6a6a6;
      }

      .cls-12 {
        fill: #dbdbdb;
      }

      .cls-13 {
        fill: #ebebeb;
      }

      .cls-14 {
        fill: #455a64;
      }

      .cls-3 {
        stroke-width: .75px;
      }

      .cls-15 {
        isolation: isolate;
        opacity: .1;
      }
    </style>
  </defs>
  <g id="Layer_2-2" data-name="Layer 2">
    <g id="Layer_2-2" data-name="Layer 2-2">
      <g id="Device">
        <g>
          <g>
            <rect class="cls-3" x="380.56" y="60.84" width="26.48" height="11.19"/>
            <rect class="cls-3" x="395.32" y="46.73" width="26.48" height="11.19"/>
            <rect class="cls-3" x="213.15" y="170.97" width="26.48" height="11.19"/>
            <rect class="cls-3" x="227.92" y="156.86" width="26.48" height="11.19"/>
            <rect class="cls-3" x="242.64" y="170.97" width="26.48" height="11.19"/>
            <rect class="cls-3" x="4.49" y="46.73" width="26.48" height="11.19"/>
            <rect class="cls-3" x="19.26" y="309.85" width="26.48" height="11.19"/>
            <rect class="cls-3" x="4.49" y="295.74" width="26.48" height="11.19"/>
            <rect class="cls-3" x="380.56" y="309.85" width="26.48" height="11.19"/>
          </g>
          <g>
            <g>
              <polyline class="cls-1" points="171.97 421.54 171.97 295.88 198.7 259.39 198.7 191.06"/>
              <path class="cls-1" d="m196.32,188.73c0,1.31,1.06,2.38,2.37,2.38s2.37-1.06,2.37-2.38-1.06-2.38-2.37-2.38-2.37,1.06-2.37,2.38Z"/>
            </g>
            <g>
              <polyline class="cls-1" points="178.85 421.54 178.85 300.28 205.58 263.8 205.58 216.06"/>
              <path class="cls-1" d="m203.21,213.72c0,1.31,1.06,2.38,2.38,2.38s2.37-1.06,2.37-2.38-1.06-2.38-2.37-2.38-2.38,1.06-2.38,2.38Z"/>
            </g>
            <g>
              <line class="cls-1" x1="165.34" y1="421.54" x2="165.34" y2="255.13"/>
              <path class="cls-1" d="m162.96,252.75c0,1.31,1.06,2.38,2.37,2.38s2.38-1.06,2.38-2.38-1.06-2.38-2.38-2.38-2.37,1.06-2.37,2.38Z"/>
            </g>
            <g>
              <polyline class="cls-1" points="158.95 421.54 158.95 336.97 140.8 302.74 140.8 241.37"/>
              <path class="cls-1" d="m138.43,239c0,1.31,1.06,2.38,2.38,2.38s2.37-1.06,2.37-2.38-1.06-2.38-2.37-2.38-2.38,1.06-2.38,2.38Z"/>
            </g>
            <g>
              <polyline class="cls-1" points="152.6 421.54 152.6 340.62 131.21 302.78 131.21 262.37"/>
              <path class="cls-1" d="m128.83,259.99c0,1.31,1.06,2.38,2.37,2.38s2.37-1.06,2.37-2.38-1.06-2.38-2.37-2.38-2.37,1.06-2.37,2.38Z"/>
            </g>
          </g>
          <g>
            <g>
              <line class="cls-2" x1="73.87" y1="37.56" x2="73.87"/>
              <g>
                <polygon class="cls-13" points="97.08 59.93 95.21 64.03 52.53 64.03 50.66 59.93 68.84 47.35 78.9 47.35 97.08 59.93"/>
                <polygon class="cls-12" points="80.17 35.23 78.9 47.35 68.84 47.35 67.58 35.23 80.17 35.23"/>
                <polygon class="cls-12" points="97.07 59.93 95.21 64.03 52.52 64.03 50.66 59.93 97.07 59.93"/>
              </g>
            </g>
            <g>
              <line class="cls-2" x1="166.72" y1="37.56" x2="166.72"/>
              <g>
                <polygon class="cls-13" points="189.93 59.93 188.06 64.03 145.38 64.03 143.52 59.93 161.69 47.35 171.76 47.35 189.93 59.93"/>
                <polygon class="cls-12" points="173.02 35.23 171.76 47.35 161.69 47.35 160.43 35.23 173.02 35.23"/>
                <polygon class="cls-12" points="189.93 59.93 188.06 64.03 145.38 64.03 143.51 59.93 189.93 59.93"/>
              </g>
            </g>
            <g>
              <line class="cls-2" x1="259.57" y1="37.56" x2="259.57"/>
              <g>
                <polygon class="cls-13" points="282.78 59.93 280.91 64.03 238.23 64.03 236.37 59.93 254.54 47.35 264.61 47.35 282.78 59.93"/>
                <polygon class="cls-12" points="265.87 35.23 264.61 47.35 254.54 47.35 253.28 35.23 265.87 35.23"/>
                <polygon class="cls-12" points="282.78 59.93 280.91 64.03 238.23 64.03 236.37 59.93 282.78 59.93"/>
              </g>
            </g>
            <g>
              <line class="cls-2" x1="352.43" y1="37.56" x2="352.43"/>
              <g>
                <polygon class="cls-13" points="375.63 59.93 373.77 64.03 331.08 64.03 329.22 59.93 347.39 47.35 357.46 47.35 375.63 59.93"/>
                <polygon class="cls-12" points="358.72 35.23 357.46 47.35 347.39 47.35 346.13 35.23 358.72 35.23"/>
                <polygon class="cls-12" points="375.63 59.93 373.76 64.03 331.08 64.03 329.22 59.93 375.63 59.93"/>
              </g>
            </g>
          </g>
          <ellipse class="cls-10" cx="146.94" cy="443.41" rx="106.41" ry="16.99"/>
          <g>
            <rect class="cls-5" x="230.52" y="176.42" width="65.02" height="245.17"/>
            <rect class="cls-14" x="295.54" y="176.42" width="119.66" height="245.17"/>
            <g>
              <rect class="cls-5" x="304.51" y="389.79" width="103.21" height="23.84"/>
              <g>
                <rect class="cls-14" x="308.86" y="393.73" width="58.75" height="2.01"/>
                <rect class="cls-14" x="308.86" y="397.22" width="58.75" height="2.01"/>
                <rect class="cls-14" x="308.86" y="400.71" width="58.75" height="2.01"/>
                <rect class="cls-14" x="308.86" y="404.19" width="58.75" height="2.01"/>
                <rect class="cls-14" x="308.86" y="407.68" width="58.75" height="2.01"/>
              </g>
              <g>
                <path class="cls-4" d="m378.32,395.73c0,1.1-.89,2-2,2s-2-.89-2-2,.89-2,2-2,2,.89,2,2Z"/>
                <path class="cls-4" d="m384.9,395.73c0,1.1-.89,2-2,2s-2-.89-2-2,.89-2,2-2,2,.89,2,2Z"/>
                <path class="cls-4" d="m391.47,395.73c0,1.1-.89,2-2,2s-2-.89-2-2,.89-2,2-2,2,.89,2,2Z"/>
                <path class="cls-4" d="m398.05,395.73c0,1.1-.89,2-2,2s-2-.89-2-2,.89-2,2-2,2,.89,2,2Z"/>
                <path class="cls-4" d="m404.63,395.73c0,1.1-.89,2-2,2s-2-.89-2-2,.89-2,2-2,2,.89,2,2Z"/>
                <path class="cls-4" d="m378.32,401.71c0,1.1-.89,2-2,2s-2-.89-2-2,.89-2,2-2,2,.89,2,2Z"/>
                <path class="cls-4" d="m384.9,401.71c0,1.1-.89,2-2,2s-2-.89-2-2,.89-2,2-2,2,.89,2,2Z"/>
                <path class="cls-4" d="m391.47,401.71c0,1.1-.89,2-2,2s-2-.89-2-2,.89-2,2-2,2,.89,2,2Z"/>
                <path class="cls-4" d="m398.05,401.71c0,1.1-.89,2-2,2s-2-.89-2-2,.89-2,2-2,2,.89,2,2Z"/>
                <path class="cls-4" d="m404.63,401.71c0,1.1-.89,2-2,2s-2-.89-2-2,.89-2,2-2,2,.89,2,2Z"/>
                <circle class="cls-4" cx="376.32" cy="407.7" r="2"/>
                <path class="cls-4" d="m384.9,407.7c0,1.1-.89,2-2,2s-2-.89-2-2,.89-2,2-2,2,.89,2,2Z"/>
                <circle class="cls-4" cx="389.48" cy="407.7" r="2"/>
                <path class="cls-4" d="m398.05,407.7c0,1.1-.89,2-2,2s-2-.89-2-2,.89-2,2-2,2,.89,2,2Z"/>
                <path class="cls-4" d="m404.63,407.7c0,1.1-.89,2-2,2s-2-.89-2-2,.89-2,2-2,2,.89,2,2Z"/>
              </g>
              <rect class="cls-9" x="370.54" y="393.73" width="1.15" height="15.96"/>
            </g>
            <g>
              <rect class="cls-5" x="304.51" y="361.07" width="103.21" height="23.84"/>
              <g>
                <rect class="cls-14" x="308.86" y="365" width="58.75" height="2.01"/>
                <rect class="cls-14" x="308.86" y="368.49" width="58.75" height="2.01"/>
                <rect class="cls-14" x="308.86" y="371.98" width="58.75" height="2.01"/>
                <rect class="cls-14" x="308.86" y="375.47" width="58.75" height="2.01"/>
                <rect class="cls-14" x="308.86" y="378.95" width="58.75" height="2.01"/>
              </g>
              <g>
                <path class="cls-4" d="m378.32,367c0,1.1-.89,2-2,2s-2-.89-2-2,.89-2,2-2,2,.89,2,2Z"/>
                <path class="cls-4" d="m384.9,367c0,1.1-.89,2-2,2s-2-.89-2-2,.89-2,2-2,2,.89,2,2Z"/>
                <path class="cls-4" d="m391.47,367c0,1.1-.89,2-2,2s-2-.89-2-2,.89-2,2-2,2,.89,2,2Z"/>
                <path class="cls-4" d="m398.05,367c0,1.1-.89,2-2,2s-2-.89-2-2,.89-2,2-2,2,.89,2,2Z"/>
                <path class="cls-4" d="m404.63,367c0,1.1-.89,2-2,2s-2-.89-2-2,.89-2,2-2,2,.89,2,2Z"/>
                <path class="cls-4" d="m378.32,372.98c0,1.1-.89,2-2,2s-2-.89-2-2,.89-2,2-2,2,.89,2,2Z"/>
                <path class="cls-4" d="m384.9,372.98c0,1.1-.89,2-2,2s-2-.89-2-2,.89-2,2-2,2,.89,2,2Z"/>
                <path class="cls-4" d="m391.47,372.98c0,1.1-.89,2-2,2s-2-.89-2-2,.89-2,2-2,2,.89,2,2Z"/>
                <path class="cls-4" d="m398.05,372.98c0,1.1-.89,2-2,2s-2-.89-2-2,.89-2,2-2,2,.89,2,2Z"/>
                <path class="cls-4" d="m404.63,372.98c0,1.1-.89,2-2,2s-2-.89-2-2,.89-2,2-2,2,.89,2,2Z"/>
                <path class="cls-4" d="m378.32,378.97c0,1.1-.89,2-2,2s-2-.89-2-2,.89-2,2-2,2,.89,2,2Z"/>
                <path class="cls-4" d="m384.9,378.97c0,1.1-.89,2-2,2s-2-.89-2-2,.89-2,2-2,2,.89,2,2Z"/>
                <path class="cls-4" d="m391.47,378.97c0,1.1-.89,2-2,2s-2-.89-2-2,.89-2,2-2,2,.89,2,2Z"/>
                <path class="cls-4" d="m398.05,378.97c0,1.1-.89,2-2,2s-2-.89-2-2,.89-2,2-2,2,.89,2,2Z"/>
                <path class="cls-4" d="m404.63,378.97c0,1.1-.89,2-2,2s-2-.89-2-2,.89-2,2-2,2,.89,2,2Z"/>
              </g>
              <rect class="cls-9" x="370.54" y="365" width="1.15" height="15.96"/>
            </g>
            <g>
              <rect class="cls-5" x="304.51" y="332.34" width="103.21" height="23.84"/>
              <g>
                <rect class="cls-14" x="308.86" y="336.28" width="58.75" height="2.01"/>
                <rect class="cls-14" x="308.86" y="339.76" width="58.75" height="2.01"/>
                <rect class="cls-14" x="308.86" y="343.25" width="58.75" height="2.01"/>
                <rect class="cls-14" x="308.86" y="346.74" width="58.75" height="2.01"/>
                <rect class="cls-14" x="308.86" y="350.23" width="58.75" height="2.01"/>
              </g>
              <g>
                <circle class="cls-4" cx="376.32" cy="338.27" r="2"/>
                <path class="cls-4" d="m384.9,338.27c0,1.1-.89,2-2,2s-2-.89-2-2,.89-2,2-2,2,.89,2,2Z"/>
                <circle class="cls-4" cx="389.48" cy="338.27" r="2"/>
                <path class="cls-4" d="m398.05,338.27c0,1.1-.89,2-2,2s-2-.89-2-2,.89-2,2-2,2,.89,2,2Z"/>
                <path class="cls-4" d="m404.63,338.27c0,1.1-.89,2-2,2s-2-.89-2-2,.89-2,2-2,2,.89,2,2Z"/>
                <path class="cls-4" d="m378.32,344.26c0,1.1-.89,2-2,2s-2-.89-2-2,.89-2,2-2,2,.89,2,2Z"/>
                <path class="cls-4" d="m384.9,344.26c0,1.1-.89,2-2,2s-2-.89-2-2,.89-2,2-2,2,.89,2,2Z"/>
                <path class="cls-4" d="m391.47,344.26c0,1.1-.89,2-2,2s-2-.89-2-2,.89-2,2-2,2,.89,2,2Z"/>
                <path class="cls-4" d="m398.05,344.26c0,1.1-.89,2-2,2s-2-.89-2-2,.89-2,2-2,2,.89,2,2Z"/>
                <path class="cls-4" d="m404.63,344.26c0,1.1-.89,2-2,2s-2-.89-2-2,.89-2,2-2,2,.89,2,2Z"/>
                <path class="cls-4" d="m378.32,350.24c0,1.1-.89,2-2,2s-2-.89-2-2,.89-2,2-2,2,.89,2,2Z"/>
                <path class="cls-4" d="m384.9,350.24c0,1.1-.89,2-2,2s-2-.89-2-2,.89-2,2-2,2,.89,2,2Z"/>
                <path class="cls-4" d="m391.47,350.24c0,1.1-.89,2-2,2s-2-.89-2-2,.89-2,2-2,2,.89,2,2Z"/>
                <path class="cls-4" d="m398.05,350.24c0,1.1-.89,2-2,2s-2-.89-2-2,.89-2,2-2,2,.89,2,2Z"/>
                <path class="cls-4" d="m404.63,350.24c0,1.1-.89,2-2,2s-2-.89-2-2,.89-2,2-2,2,.89,2,2Z"/>
              </g>
              <rect class="cls-9" x="370.54" y="336.28" width="1.15" height="15.96"/>
            </g>
            <g>
              <rect class="cls-5" x="304.51" y="303.61" width="103.21" height="23.84"/>
              <g>
                <rect class="cls-14" x="308.86" y="307.55" width="58.75" height="2.01"/>
                <rect class="cls-14" x="308.86" y="311.03" width="58.75" height="2.01"/>
                <rect class="cls-14" x="308.86" y="314.52" width="58.75" height="2.01"/>
                <rect class="cls-14" x="308.86" y="318.01" width="58.75" height="2.01"/>
                <rect class="cls-14" x="308.86" y="321.5" width="58.75" height="2.01"/>
              </g>
              <g>
                <path class="cls-4" d="m378.32,309.54c0,1.1-.89,2-2,2s-2-.89-2-2,.89-2,2-2,2,.89,2,2Z"/>
                <path class="cls-4" d="m384.9,309.54c0,1.1-.89,2-2,2s-2-.89-2-2,.89-2,2-2,2,.89,2,2Z"/>
                <path class="cls-4" d="m391.47,309.54c0,1.1-.89,2-2,2s-2-.89-2-2,.89-2,2-2,2,.89,2,2Z"/>
                <path class="cls-4" d="m398.05,309.54c0,1.1-.89,2-2,2s-2-.89-2-2,.89-2,2-2,2,.89,2,2Z"/>
                <path class="cls-4" d="m404.63,309.54c0,1.1-.89,2-2,2s-2-.89-2-2,.89-2,2-2,2,.89,2,2Z"/>
                <circle class="cls-4" cx="376.32" cy="315.53" r="2"/>
                <path class="cls-4" d="m384.9,315.53c0,1.1-.89,2-2,2s-2-.89-2-2,.89-2,2-2,2,.89,2,2Z"/>
                <circle class="cls-4" cx="389.48" cy="315.53" r="2"/>
                <path class="cls-4" d="m398.05,315.53c0,1.1-.89,2-2,2s-2-.89-2-2,.89-2,2-2,2,.89,2,2Z"/>
                <path class="cls-4" d="m404.63,315.53c0,1.1-.89,2-2,2s-2-.89-2-2,.89-2,2-2,2,.89,2,2Z"/>
                <circle class="cls-4" cx="376.32" cy="321.51" r="2"/>
                <path class="cls-4" d="m384.9,321.51c0,1.1-.89,2-2,2s-2-.89-2-2,.89-2,2-2,2,.89,2,2Z"/>
                <circle class="cls-4" cx="389.48" cy="321.51" r="2"/>
                <path class="cls-4" d="m398.05,321.51c0,1.1-.89,2-2,2s-2-.89-2-2,.89-2,2-2,2,.89,2,2Z"/>
                <path class="cls-4" d="m404.63,321.51c0,1.1-.89,2-2,2s-2-.89-2-2,.89-2,2-2,2,.89,2,2Z"/>
              </g>
              <rect class="cls-9" x="370.54" y="307.55" width="1.15" height="15.96"/>
            </g>
            <g>
              <rect class="cls-5" x="304.51" y="274.88" width="103.21" height="23.84"/>
              <g>
                <rect class="cls-14" x="308.86" y="278.82" width="58.75" height="2.01"/>
                <rect class="cls-14" x="308.86" y="282.31" width="58.75" height="2.01"/>
                <rect class="cls-14" x="308.86" y="285.79" width="58.75" height="2.01"/>
                <rect class="cls-14" x="308.86" y="289.28" width="58.75" height="2.01"/>
                <rect class="cls-14" x="308.86" y="292.77" width="58.75" height="2.01"/>
              </g>
              <g>
                <circle class="cls-4" cx="376.32" cy="280.82" r="2"/>
                <path class="cls-4" d="m384.9,280.82c0,1.1-.89,2-2,2s-2-.89-2-2,.89-2,2-2,2,.89,2,2Z"/>
                <circle class="cls-4" cx="389.48" cy="280.82" r="2"/>
                <path class="cls-4" d="m398.05,280.82c0,1.1-.89,2-2,2s-2-.89-2-2,.89-2,2-2,2,.89,2,2Z"/>
                <path class="cls-4" d="m404.63,280.82c0,1.1-.89,2-2,2s-2-.89-2-2,.89-2,2-2,2,.89,2,2Z"/>
                <circle class="cls-4" cx="376.32" cy="286.8" r="2"/>
                <path class="cls-4" d="m384.9,286.8c0,1.1-.89,2-2,2s-2-.89-2-2,.89-2,2-2,2,.89,2,2Z"/>
                <circle class="cls-4" cx="389.48" cy="286.8" r="2"/>
                <path class="cls-4" d="m398.05,286.8c0,1.1-.89,2-2,2s-2-.89-2-2,.89-2,2-2,2,.89,2,2Z"/>
                <path class="cls-4" d="m404.63,286.8c0,1.1-.89,2-2,2s-2-.89-2-2,.89-2,2-2,2,.89,2,2Z"/>
                <path class="cls-4" d="m378.32,292.79c0,1.1-.89,2-2,2s-2-.89-2-2,.89-2,2-2,2,.89,2,2Z"/>
                <path class="cls-4" d="m384.9,292.79c0,1.1-.89,2-2,2s-2-.89-2-2,.89-2,2-2,2,.89,2,2Z"/>
                <path class="cls-4" d="m391.47,292.79c0,1.1-.89,2-2,2s-2-.89-2-2,.89-2,2-2,2,.89,2,2Z"/>
                <path class="cls-4" d="m398.05,292.79c0,1.1-.89,2-2,2s-2-.89-2-2,.89-2,2-2,2,.89,2,2Z"/>
                <path class="cls-4" d="m404.63,292.79c0,1.1-.89,2-2,2s-2-.89-2-2,.89-2,2-2,2,.89,2,2Z"/>
              </g>
              <rect class="cls-9" x="370.54" y="278.82" width="1.15" height="15.96"/>
            </g>
            <g>
              <rect class="cls-5" x="304.51" y="246.15" width="103.21" height="23.84"/>
              <g>
                <rect class="cls-14" x="308.86" y="250.09" width="58.75" height="2.01"/>
                <rect class="cls-14" x="308.86" y="253.58" width="58.75" height="2.01"/>
                <rect class="cls-14" x="308.86" y="257.07" width="58.75" height="2.01"/>
                <rect class="cls-14" x="308.86" y="260.55" width="58.75" height="2.01"/>
                <rect class="cls-14" x="308.86" y="264.04" width="58.75" height="2.01"/>
              </g>
              <g>
                <path class="cls-4" d="m378.32,252.09c0,1.1-.89,2-2,2s-2-.89-2-2,.89-2,2-2,2,.89,2,2Z"/>
                <path class="cls-4" d="m384.9,252.09c0,1.1-.89,2-2,2s-2-.89-2-2,.89-2,2-2,2,.89,2,2Z"/>
                <path class="cls-4" d="m391.47,252.09c0,1.1-.89,2-2,2s-2-.89-2-2,.89-2,2-2,2,.89,2,2Z"/>
                <path class="cls-4" d="m398.05,252.09c0,1.1-.89,2-2,2s-2-.89-2-2,.89-2,2-2,2,.89,2,2Z"/>
                <path class="cls-4" d="m404.63,252.09c0,1.1-.89,2-2,2s-2-.89-2-2,.89-2,2-2,2,.89,2,2Z"/>
                <path class="cls-4" d="m378.32,258.07c0,1.1-.89,2-2,2s-2-.89-2-2,.89-2,2-2,2,.89,2,2Z"/>
                <path class="cls-4" d="m384.9,258.07c0,1.1-.89,2-2,2s-2-.89-2-2,.89-2,2-2,2,.89,2,2Z"/>
                <path class="cls-4" d="m391.47,258.07c0,1.1-.89,2-2,2s-2-.89-2-2,.89-2,2-2,2,.89,2,2Z"/>
                <path class="cls-4" d="m398.05,258.07c0,1.1-.89,2-2,2s-2-.89-2-2,.89-2,2-2,2,.89,2,2Z"/>
                <path class="cls-4" d="m404.63,258.07c0,1.1-.89,2-2,2s-2-.89-2-2,.89-2,2-2,2,.89,2,2Z"/>
                <path class="cls-4" d="m378.32,264.06c0,1.1-.89,2-2,2s-2-.89-2-2,.89-2,2-2,2,.89,2,2Z"/>
                <path class="cls-4" d="m384.9,264.06c0,1.1-.89,2-2,2s-2-.89-2-2,.89-2,2-2,2,.89,2,2Z"/>
                <path class="cls-4" d="m391.47,264.06c0,1.1-.89,2-2,2s-2-.89-2-2,.89-2,2-2,2,.89,2,2Z"/>
                <path class="cls-4" d="m398.05,264.06c0,1.1-.89,2-2,2s-2-.89-2-2,.89-2,2-2,2,.89,2,2Z"/>
                <path class="cls-4" d="m404.63,264.06c0,1.1-.89,2-2,2s-2-.89-2-2,.89-2,2-2,2,.89,2,2Z"/>
              </g>
              <rect class="cls-9" x="370.54" y="250.09" width="1.15" height="15.96"/>
            </g>
            <g>
              <rect class="cls-5" x="304.51" y="217.43" width="103.21" height="23.84"/>
              <g>
                <rect class="cls-14" x="308.86" y="221.36" width="58.75" height="2.01"/>
                <rect class="cls-14" x="308.86" y="224.85" width="58.75" height="2.01"/>
                <rect class="cls-14" x="308.86" y="228.34" width="58.75" height="2.01"/>
                <rect class="cls-14" x="308.86" y="231.83" width="58.75" height="2.01"/>
                <rect class="cls-14" x="308.86" y="235.31" width="58.75" height="2.01"/>
              </g>
              <g>
                <path class="cls-4" d="m378.32,223.36c0,1.1-.89,2-2,2s-2-.89-2-2,.89-2,2-2,2,.89,2,2Z"/>
                <path class="cls-4" d="m384.9,223.36c0,1.1-.89,2-2,2s-2-.89-2-2,.89-2,2-2,2,.89,2,2Z"/>
                <path class="cls-4" d="m391.47,223.36c0,1.1-.89,2-2,2s-2-.89-2-2,.89-2,2-2,2,.89,2,2Z"/>
                <path class="cls-4" d="m398.05,223.36c0,1.1-.89,2-2,2s-2-.89-2-2,.89-2,2-2,2,.89,2,2Z"/>
                <path class="cls-4" d="m404.63,223.36c0,1.1-.89,2-2,2s-2-.89-2-2,.89-2,2-2,2,.89,2,2Z"/>
                <path class="cls-4" d="m378.32,229.35c0,1.1-.89,2-2,2s-2-.89-2-2,.89-2,2-2,2,.89,2,2Z"/>
                <path class="cls-4" d="m384.9,229.35c0,1.1-.89,2-2,2s-2-.89-2-2,.89-2,2-2,2,.89,2,2Z"/>
                <path class="cls-4" d="m391.47,229.35c0,1.1-.89,2-2,2s-2-.89-2-2,.89-2,2-2,2,.89,2,2Z"/>
                <path class="cls-4" d="m398.05,229.35c0,1.1-.89,2-2,2s-2-.89-2-2,.89-2,2-2,2,.89,2,2Z"/>
                <path class="cls-4" d="m404.63,229.35c0,1.1-.89,2-2,2s-2-.89-2-2,.89-2,2-2,2,.89,2,2Z"/>
                <path class="cls-4" d="m378.32,235.33c0,1.1-.89,2-2,2s-2-.89-2-2,.89-2,2-2,2,.89,2,2Z"/>
                <path class="cls-4" d="m384.9,235.33c0,1.1-.89,2-2,2s-2-.89-2-2,.89-2,2-2,2,.89,2,2Z"/>
                <path class="cls-4" d="m391.47,235.33c0,1.1-.89,2-2,2s-2-.89-2-2,.89-2,2-2,2,.89,2,2Z"/>
                <path class="cls-4" d="m398.05,235.33c0,1.1-.89,2-2,2s-2-.89-2-2,.89-2,2-2,2,.89,2,2Z"/>
                <path class="cls-4" d="m404.63,235.33c0,1.1-.89,2-2,2s-2-.89-2-2,.89-2,2-2,2,.89,2,2Z"/>
              </g>
              <rect class="cls-9" x="370.54" y="221.36" width="1.15" height="15.96"/>
            </g>
            <g>
              <rect class="cls-5" x="304.51" y="188.7" width="103.21" height="23.84"/>
              <g>
                <rect class="cls-14" x="308.86" y="192.64" width="58.75" height="2.01"/>
                <rect class="cls-14" x="308.86" y="196.12" width="58.75" height="2.01"/>
                <rect class="cls-14" x="308.86" y="199.61" width="58.75" height="2.01"/>
                <rect class="cls-14" x="308.86" y="203.1" width="58.75" height="2.01"/>
                <rect class="cls-14" x="308.86" y="206.59" width="58.75" height="2.01"/>
              </g>
              <g>
                <path class="cls-4" d="m378.32,194.63c0,1.1-.89,2-2,2s-2-.89-2-2,.89-2,2-2,2,.89,2,2Z"/>
                <path class="cls-4" d="m384.9,194.63c0,1.1-.89,2-2,2s-2-.89-2-2,.89-2,2-2,2,.89,2,2Z"/>
                <path class="cls-4" d="m391.47,194.63c0,1.1-.89,2-2,2s-2-.89-2-2,.89-2,2-2,2,.89,2,2Z"/>
                <path class="cls-4" d="m398.05,194.63c0,1.1-.89,2-2,2s-2-.89-2-2,.89-2,2-2,2,.89,2,2Z"/>
                <path class="cls-4" d="m404.63,194.63c0,1.1-.89,2-2,2s-2-.89-2-2,.89-2,2-2,2,.89,2,2Z"/>
                <circle class="cls-4" cx="376.32" cy="200.62" r="2"/>
                <path class="cls-4" d="m384.9,200.62c0,1.1-.89,2-2,2s-2-.89-2-2,.89-2,2-2,2,.89,2,2Z"/>
                <circle class="cls-4" cx="389.48" cy="200.62" r="2"/>
                <path class="cls-4" d="m398.05,200.62c0,1.1-.89,2-2,2s-2-.89-2-2,.89-2,2-2,2,.89,2,2Z"/>
                <path class="cls-4" d="m404.63,200.62c0,1.1-.89,2-2,2s-2-.89-2-2,.89-2,2-2,2,.89,2,2Z"/>
                <path class="cls-4" d="m378.32,206.6c0,1.1-.89,2-2,2s-2-.89-2-2,.89-2,2-2,2,.89,2,2Z"/>
                <path class="cls-4" d="m384.9,206.6c0,1.1-.89,2-2,2s-2-.89-2-2,.89-2,2-2,2,.89,2,2Z"/>
                <path class="cls-4" d="m391.47,206.6c0,1.1-.89,2-2,2s-2-.89-2-2,.89-2,2-2,2,.89,2,2Z"/>
                <path class="cls-4" d="m398.05,206.6c0,1.1-.89,2-2,2s-2-.89-2-2,.89-2,2-2,2,.89,2,2Z"/>
                <path class="cls-4" d="m404.63,206.6c0,1.1-.89,2-2,2s-2-.89-2-2,.89-2,2-2,2,.89,2,2Z"/>
              </g>
              <rect class="cls-9" x="370.54" y="192.64" width="1.15" height="15.96"/>
            </g>
            <rect class="cls-5" x="254.84" y="168.86" width="136.05" height="7.56"/>
            <rect class="cls-9" x="241.01" y="384.07" width="15.19" height="15.19"/>
          </g>
          <g>
            <g>
              <path class="cls-9" d="m26.15,226.7v-14.39h2.27v14.39h-2.27Z"/>
              <path class="cls-9" d="m33.93,216.57v10.13h-2.27v-14.39h1.78l8.23,10.38v-10.36h2.29v14.37h-1.88l-8.15-10.13Z"/>
              <path class="cls-9" d="m57.77,214.32h-4.78v12.38h-2.29v-12.38h-4.8v-2.01h11.88v2.01h-.01Z"/>
              <path class="cls-9" d="m69.57,224.7v2.01h-9.87v-14.39h9.69v2.01h-7.42v4.09h6.43v1.89h-6.43v4.4h7.6Z"/>
              <path class="cls-9" d="m71.92,226.7v-14.39h6.26c.65,0,1.25.14,1.79.41.55.27,1.02.63,1.41,1.06.39.44.7.94.92,1.5s.33,1.13.33,1.71c0,.49-.07.95-.2,1.4-.14.45-.32.86-.57,1.24-.24.38-.54.71-.89.98-.35.28-.74.48-1.16.62l3.39,5.47h-2.57l-3.12-5.01h-3.32v5.01h-2.27Zm2.27-7.01h3.97c.32,0,.62-.07.88-.21.26-.14.49-.34.68-.59s.34-.54.45-.86.16-.67.16-1.03-.06-.71-.19-1.03c-.13-.32-.3-.61-.51-.85s-.45-.44-.73-.58c-.28-.14-.56-.21-.86-.21h-3.85v5.37h0Z"/>
              <path class="cls-9" d="m87.59,216.57v10.13h-2.27v-14.39h1.78l8.23,10.38v-10.36h2.29v14.37h-1.88s-8.15-10.13-8.15-10.13Z"/>
              <path class="cls-9" d="m105.1,212.31h1.99l5.68,14.39h-2.39l-1.52-3.91h-5.55l-1.5,3.91h-2.41l5.72-14.39h-.02Zm3.3,8.8l-2.31-6.18-2.39,6.18h4.7Z"/>
              <path class="cls-9" d="m114.55,226.7v-14.39h2.27v12.38h7.72v2.01h-9.99Z"/>
              <path class="cls-9" d="m139.36,215.7c-.14-.15-.33-.31-.59-.48s-.56-.33-.9-.48-.72-.27-1.14-.36c-.41-.09-.83-.14-1.27-.14-.96,0-1.67.18-2.12.53s-.68.84-.68,1.46c0,.35.07.64.21.86s.36.42.66.59.67.32,1.12.45c.45.13.97.27,1.56.42.73.18,1.39.37,1.98.59s1.08.48,1.49.79.72.69.94,1.15.33,1,.33,1.65c0,.73-.14,1.36-.42,1.88-.28.53-.66.96-1.14,1.29-.48.33-1.04.57-1.67.73s-1.32.23-2.05.23c-1.09,0-2.15-.17-3.17-.5s-1.94-.81-2.77-1.45l1.03-1.95c.18.18.43.37.76.59s.72.42,1.16.6c.44.18.92.34,1.43.47s1.05.19,1.6.19c.89,0,1.58-.16,2.07-.47s.73-.77.73-1.38c0-.37-.09-.67-.27-.91-.18-.24-.44-.46-.78-.64s-.75-.35-1.24-.5-1.04-.3-1.66-.47c-.72-.19-1.34-.39-1.88-.6-.53-.21-.98-.46-1.33-.76-.35-.3-.62-.65-.8-1.04-.18-.4-.27-.88-.27-1.45,0-.7.13-1.33.41-1.88.27-.55.64-1.01,1.1-1.38.47-.37,1.02-.65,1.65-.84.64-.19,1.32-.28,2.07-.28.97,0,1.87.16,2.7.47.82.31,1.55.7,2.17,1.16l-1.03,1.86h0Z"/>
              <path class="cls-9" d="m153.1,224.7v2.01h-9.87v-14.39h9.69v2.01h-7.42v4.09h6.43v1.89h-6.43v4.4h7.6,0Z"/>
              <path class="cls-9" d="m155.45,226.7v-14.39h6.26c.65,0,1.25.14,1.79.41.55.27,1.02.63,1.41,1.06.39.44.7.94.92,1.5s.33,1.13.33,1.71c0,.49-.07.95-.2,1.4-.14.45-.32.86-.57,1.24-.24.38-.54.71-.89.98-.35.28-.74.48-1.16.62l3.38,5.47h-2.57l-3.12-5.01h-3.32v5.01h-2.27.01Zm2.27-7.01h3.97c.32,0,.62-.07.88-.21.26-.14.49-.34.68-.59.19-.25.34-.54.45-.86s.16-.67.16-1.03-.06-.71-.19-1.03c-.13-.32-.3-.61-.51-.85-.21-.24-.45-.44-.73-.58s-.56-.21-.86-.21h-3.85v5.37h0Z"/>
              <path class="cls-9" d="m169.42,212.31l4.34,11.53,4.32-11.53h2.41l-5.76,14.39h-1.95l-5.78-14.39h2.42,0Z"/>
              <path class="cls-9" d="m192.12,224.7v2.01h-9.87v-14.39h9.69v2.01h-7.42v4.09h6.43v1.89h-6.43v4.4h7.6,0Z"/>
              <path class="cls-9" d="m194.47,226.7v-14.39h6.26c.65,0,1.25.14,1.79.41.55.27,1.02.63,1.41,1.06.39.44.7.94.92,1.5s.33,1.13.33,1.71c0,.49-.07.95-.2,1.4-.14.45-.32.86-.57,1.24-.24.38-.54.71-.89.98-.35.28-.74.48-1.15.62l3.38,5.47h-2.57l-3.12-5.01h-3.32v5.01h-2.27,0Zm2.27-7.01h3.97c.32,0,.62-.07.88-.21.26-.14.49-.34.68-.59.19-.25.34-.54.45-.86s.16-.67.16-1.03-.06-.71-.19-1.03c-.13-.32-.3-.61-.51-.85-.21-.24-.45-.44-.73-.58s-.56-.21-.86-.21h-3.85v5.37h0Z"/>
            </g>
            <g>
              <path class="cls-9" d="m95.23,245.89v2.92h-10.11v-14.39h9.93v2.92h-6.61v2.8h5.68v2.7h-5.68v3.06h6.79Z"/>
              <path class="cls-9" d="m97.25,248.81v-14.39h6.49c.68,0,1.3.14,1.88.43.57.28,1.07.66,1.49,1.12.42.46.75.98.98,1.56.24.58.35,1.17.35,1.76,0,.45-.05.88-.16,1.29-.11.41-.26.8-.47,1.17-.2.36-.45.69-.74.98s-.62.54-.98.74l3.16,5.35h-3.75l-2.76-4.64h-2.17v4.64h-3.32,0Zm3.32-7.54h3.04c.39,0,.73-.19,1.01-.56s.43-.85.43-1.43-.16-1.07-.49-1.42c-.32-.35-.68-.53-1.05-.53h-2.94v3.93h0Z"/>
              <path class="cls-9" d="m110.83,248.81v-14.39h6.49c.68,0,1.3.14,1.88.43.57.28,1.07.66,1.49,1.12.42.46.75.98.98,1.56.24.58.35,1.17.35,1.76,0,.45-.05.88-.16,1.29-.11.41-.26.8-.47,1.17-.2.36-.45.69-.74.98s-.62.54-.98.74l3.16,5.35h-3.75l-2.76-4.64h-2.17v4.64h-3.32,0Zm3.32-7.54h3.04c.39,0,.73-.19,1.01-.56s.43-.85.43-1.43-.16-1.07-.49-1.42c-.32-.35-.68-.53-1.05-.53h-2.94v3.93h0Z"/>
              <path class="cls-9" d="m130.72,248.93c-1.07,0-2.04-.21-2.92-.63-.88-.42-1.63-.97-2.25-1.65s-1.1-1.46-1.45-2.34c-.34-.88-.52-1.78-.52-2.72s.18-1.86.54-2.74.86-1.65,1.5-2.32c.64-.67,1.4-1.2,2.28-1.6.88-.4,1.84-.6,2.88-.6s2.04.21,2.92.63,1.63.97,2.25,1.66,1.1,1.47,1.44,2.35.51,1.77.51,2.68-.18,1.86-.54,2.74-.85,1.65-1.49,2.32c-.64.67-1.39,1.21-2.27,1.61-.88.41-1.84.61-2.88.61Zm-3.75-7.3c0,.55.08,1.09.24,1.61.16.52.4.98.72,1.39s.71.73,1.19.97c.47.24,1.01.36,1.62.36s1.19-.13,1.66-.39.86-.59,1.18-1c.31-.41.54-.88.7-1.4.16-.52.23-1.05.23-1.59s-.08-1.09-.24-1.61-.41-.98-.73-1.38c-.32-.4-.72-.72-1.19-.95-.47-.24-1-.35-1.61-.35s-1.19.12-1.65.38c-.47.25-.86.58-1.18.98-.32.41-.55.87-.71,1.39-.16.52-.23,1.05-.23,1.59h0Z"/>
              <path class="cls-9" d="m139.82,248.81v-14.39h6.49c.68,0,1.3.14,1.88.43.57.28,1.07.66,1.49,1.12.42.46.75.98.98,1.56.24.58.35,1.17.35,1.76,0,.45-.05.88-.16,1.29-.11.41-.26.8-.47,1.17-.2.36-.45.69-.74.98-.29.29-.62.54-.98.74l3.16,5.35h-3.75l-2.76-4.64h-2.17v4.64h-3.32Zm3.32-7.54h3.04c.39,0,.73-.19,1.01-.56s.43-.85.43-1.43-.16-1.07-.49-1.42c-.32-.35-.68-.53-1.05-.53h-2.94v3.93h0Z"/>
            </g>
            <g>
              <path class="cls-8" d="m45.87,113.28v22.21c1.55-2.2,3.72-3.91,6.54-5.12,1.49-.61,3.23-.91,5.22-.91,6.84,0,11.89,2.39,15.15,7.18,2.82,4.13,4.22,9.96,4.22,17.5v22.29c0,7.65-2.42,13.93-7.27,18.82-4.62,4.73-10.46,7.1-17.5,7.1s-12.5-2.48-17.01-7.43c-4.35-4.73-6.52-10.51-6.52-17.34v-2.48l14.94-1.16.33,3.55c.38,4.13,2.06,6.88,5.04,8.26.88.44,1.82.66,2.81.66,6.38,0,9.58-3.33,9.58-9.99v-25.35c0-3.03-1.11-5.53-3.32-7.51-1.05-.94-2.52-1.4-4.4-1.4-2.77,0-4.81,1.07-6.14,3.22-1.11,1.87-1.66,3.85-1.66,5.95v2.81h-15.61v-56.56h45.66v15.69h-30.06Z"/>
              <path class="cls-8" d="m139.58,177.6c0,6.88-2.42,12.72-7.27,17.5-4.84,4.79-10.65,7.18-17.42,7.18s-12.73-2.41-17.55-7.22c-4.82-4.82-7.22-10.64-7.22-17.46v-56.48c0-6.88,2.42-12.73,7.27-17.54,4.84-4.82,10.68-7.22,17.5-7.22s12.71,2.42,17.5,7.27c4.79,4.84,7.18,10.68,7.18,17.5v56.48h.01Zm-16.18-56.81c0-2.48-.88-4.6-2.64-6.36s-3.88-2.64-6.36-2.64-4.58.88-6.32,2.64c-1.73,1.76-2.6,3.88-2.6,6.36v56.56c0,2.48.87,4.6,2.6,6.36,1.73,1.76,3.84,2.64,6.32,2.64s4.6-.88,6.36-2.64,2.64-3.88,2.64-6.36v-56.56Z"/>
              <path class="cls-8" d="m202.5,177.6c0,6.88-2.42,12.72-7.27,17.5-4.84,4.79-10.65,7.18-17.42,7.18s-12.73-2.41-17.55-7.22c-4.82-4.82-7.22-10.64-7.22-17.46v-56.48c0-6.88,2.42-12.73,7.27-17.54,4.84-4.82,10.68-7.22,17.5-7.22s12.71,2.42,17.5,7.27c4.79,4.84,7.18,10.68,7.18,17.5v56.48h.01Zm-16.18-56.81c0-2.48-.88-4.6-2.64-6.36s-3.88-2.64-6.36-2.64-4.58.88-6.32,2.64c-1.73,1.76-2.6,3.88-2.6,6.36v56.56c0,2.48.87,4.6,2.6,6.36,1.73,1.76,3.84,2.64,6.32,2.64s4.6-.88,6.36-2.64,2.64-3.88,2.64-6.36v-56.56Z"/>
            </g>
          </g>
          <g>
            <rect class="cls-5" x="6.61" y="353.74" width="26.56" height="26.56"/>
            <circle class="cls-14" cx="19.88" cy="367.01" r="8.87"/>
            <rect class="cls-9" x="16.26" y="363.43" width="2" height="7.32"/>
            <rect class="cls-9" x="21.82" y="363.43" width="2" height="7.32"/>
          </g>
          <polygon class="cls-9" points="0 421.59 53.29 421.35 106.57 421.26 213.15 421.09 319.72 421.26 373.01 421.35 426.29 421.59 373.01 421.84 319.72 421.92 213.15 422.09 106.57 421.92 53.29 421.84 0 421.59"/>
          <g>
            <g>
              <g>
                <path class="cls-4" d="m91.23,396.52c.97,2.11-2.85,17.31-4.04,20.42-1.2,3.12-5.39,20.53-7.43,21.28s-11.93.54-13.33,0,0-3.51,1.61-4.55c1.61-1.04,3.53-2.64,3.53-2.64,0,0-2.89-26.89-2.35-29.9s19.4-10.32,22.01-4.62h0Z"/>
                <path class="cls-15" d="m91.23,396.52c.97,2.11-2.85,17.31-4.04,20.42-1.2,3.12-5.39,20.53-7.43,21.28s-11.93.54-13.33,0,0-3.51,1.61-4.55c1.61-1.04,3.53-2.64,3.53-2.64,0,0-2.89-26.89-2.35-29.9s19.4-10.32,22.01-4.62h0Z"/>
                <path class="cls-15" d="m70.55,437.06c.11-.53.33-1.05.65-1.49s.7-.83,1.14-1.15c.41-.3.91-.6,1.42-.69.07-.01.12.07.06.12-.18.17-.38.3-.55.47-.17.17-.35.35-.52.53-.33.35-.6.74-.85,1.16s-.48.84-.69,1.27c-.21.44-.34.91-.51,1.37-.03.09-.17.1-.19,0-.12-.52-.06-1.06.05-1.58h0Z"/>
                <path class="cls-15" d="m67.66,435.48c.52-.97,1.43-1.66,2.42-2.11.06-.03.13.05.07.1-.73.63-1.45,1.31-1.91,2.17-.46.85-.71,1.91-.38,2.85.02.04-.05.06-.07.03-.63-.9-.64-2.09-.12-3.04h0Z"/>
              </g>
              <path class="cls-15" d="m70.09,415.97l13.59,12.86c1.5-4.93,2.9-10.29,3.51-11.88,1.2-3.12,5.01-18.31,4.05-20.43-2.61-5.69-21.48,1.62-22.01,4.63-.25,1.42.25,8.12.86,14.82Z"/>
            </g>
            <g>
              <g>
                <path class="cls-4" d="m142.55,411.72c.55.52,5.9-4.54,6.72-6.91s-2.6-9.06-1.97-10.2,3.55-2.05,5.06-.3,5.39,11.34,4.58,15.44-9.06,13.26-9.92,13.21c-.86-.05-4.47-11.25-4.47-11.25h0Z"/>
                <path class="cls-15" d="m142.55,411.72s3.61,11.2,4.47,11.24c.63.03,5.21-4.85,7.94-9.08l-7.49-6.32c-1.88,2.23-4.54,4.51-4.92,4.16Z"/>
              </g>
              <path class="cls-6" d="m112.34,365.46h-44.4s-3.3,29.24-2.94,33.11c.36,3.87,19.87,32.54,25.93,36.24,6.14,3.75,40.83,3.88,49.29,2.02,6.58-1.45,12.07-9.84,9.34-22.78-1.19-5.65-16.61-19.13-18.76-21.71s-18.46-26.87-18.46-26.87h0Z"/>
              <path class="cls-4" d="m65,398.57c.36,3.87,19.87,32.54,25.93,36.24,6.14,3.75,40.82,3.88,49.29,2.02,6.57-1.45,12.07-9.85,9.33-22.79-1.19-5.65-16.6-19.13-18.75-21.71-1.32-1.58-7.94-11.3-12.88-18.6-3.13-4.62-5.58-8.27-5.58-8.27h-44.4s-.83,7.34-1.61,15.15c-.78,7.78-1.51,16.03-1.33,17.96h0Z"/>
              <path class="cls-15" d="m66.33,380.61c23.86,7.36,45.08-3.11,51.59-6.88-3.13-4.62-5.58-8.27-5.58-8.27h-44.4s-.83,7.34-1.61,15.15Z"/>
            </g>
            <g>
              <path class="cls-4" d="m141.06,412.64s-12.22-7.67-20.79-6.28-11.59,18.98-7.49,28.89c0,0-7.82,2.32-7.82,6.1,0,2.15,4.47,2.84,10.91,2.68,6.45-.15,19.26-.28,19.54-1.9.28-1.62-.84-3.85-.84-3.85,0,0,11.57-1.3,13.84-8.97s-5.42-15.37-7.35-16.67h0Z"/>
              <g>
                <path class="cls-15" d="m124.37,436.11c3.24,1.39,6.78,2.06,10.29,2.29.07,0,.09.12,0,.12-3.63.41-7.19-.5-10.34-2.32-.05-.03-.01-.11.04-.09h0Z"/>
                <path class="cls-15" d="m109.99,444.07c.32-1.46,1.46-2.62,2.66-3.44.7-.48,1.46-.86,2.26-1.14.92-.31,1.86-.48,2.78-.77.08-.02.13.09.05.11-.79.27-1.56.67-2.3,1.06-.74.39-1.47.82-2.16,1.29-1.2.81-2.11,1.87-2.99,3-.09.12-.34.06-.3-.12h0Z"/>
                <path class="cls-15" d="m111.57,438c.08-.01.11.09.03.12-2.36.87-4.25,2.95-5.26,5.22-.04.1-.22.1-.2-.03.32-2.81,2.7-4.91,5.44-5.31h-.01Z"/>
                <path class="cls-15" d="m107.76,437.45s.02.06.05.05c.2-.04,2.39-1.51,4.81-2.21.2.35.41.7.64,1.04.04.07.15,0,.11-.06-1.52-3.05-2.13-6.49-2.14-9.88-.01-1.8.13-3.62.32-5.41-.01-.01-.01-.02,0-.03.46-3.16,1.37-6.25,2.9-9.02.93-1.72,2.13-3.38,3.77-4.34,1.64-.95,3.69-1.1,5.65-1.02,1.99.1,3.97.53,5.9,1.09,1.94.53,3.85,1.23,5.72,2.02-3.57-1.92-7.44-3.43-11.56-3.87-2.05-.2-4.24-.06-6.16.99-1.9,1.09-3.19,2.85-4.2,4.64-1.94,3.68-2.9,7.78-3.07,11.88-.02.47-.04.95-.04,1.42v.02c-.03.63-.04,1.25-.02,1.88.08,2.96.68,5.93,2.11,8.53-2.17.44-3.43,1.06-4.79,2.28h0Z"/>
              </g>
            </g>
            <g>
              <path class="cls-4" d="m105.58,400.29c.97,2.11-2.85,17.31-4.04,20.42-1.2,3.12-5.39,20.53-7.43,21.28s-11.93.54-13.33,0,0-3.51,1.61-4.55c1.61-1.04,3.53-2.64,3.53-2.64,0,0-2.89-26.89-2.35-29.9s19.4-10.32,22.01-4.62h0Z"/>
              <g>
                <path class="cls-15" d="m98.91,429.15c.91-2.74,2.1-5.39,3.01-8.13.04-.11.21-.06.17.05-.7,2.2-1.24,4.46-1.89,6.68.09-.15.18-.3.28-.45.57-.88,1.28-1.75,1.57-2.77.03-.11.21-.06.17.05-.13.48-.36.9-.59,1.34-.26.49-.53.98-.79,1.47-.34.64-.72,1.26-1.1,1.87-.01.04-.03.09-.04.13-.91,2.75-1.82,5.49-3.03,8.12-.06.14-.27.09-.24-.07.63-2.82,1.56-5.54,2.47-8.29h0Z"/>
                <path class="cls-15" d="m83.19,409.2c0-.06.11-.07.12-.01.29,2.04.41,4.1.62,6.15.21,2.13.47,4.25.71,6.38.47,4.23,1.17,8.45,1.51,12.69.01.18-.31.2-.35.03-1.12-4.09-1.61-8.3-2.05-12.48-.22-2.08-.35-4.16-.45-6.24-.1-2.16-.23-4.35-.1-6.51h-.01Z"/>
                <path class="cls-15" d="m84.41,440.61c.11-.53.33-1.05.65-1.49s.7-.83,1.14-1.15c.41-.3.91-.6,1.42-.69.07-.01.12.07.06.12-.18.17-.38.3-.55.47-.17.17-.35.35-.52.53-.33.35-.6.74-.85,1.16s-.48.84-.69,1.27c-.21.44-.34.91-.51,1.37-.03.09-.17.1-.19,0-.12-.52-.06-1.06.05-1.58h0Z"/>
                <path class="cls-15" d="m81.52,439.03c.52-.97,1.43-1.66,2.42-2.11.06-.03.13.05.07.1-.73.63-1.45,1.31-1.91,2.17-.46.85-.71,1.91-.38,2.85.02.04-.05.06-.07.03-.63-.9-.64-2.09-.12-3.04h0Z"/>
              </g>
            </g>
            <g>
              <g>
                <path class="cls-4" d="m84.92,324.81c.48-1.75-3.9-7.96-5.56-10.04-1.67-2.09-10.86-5.22-13.8-3.61-1.15.63-3.29,5.05-6.18,8.88-4.47,5.94-9.7,12.16-7.8,13.84,4.61,4.07,15.11-2.35,18.52-4.5,3.41-2.16,6.53-4.78,7.36-4.69,1.1.12,3.4,1.86,4.32,1.96,2.19.24,3.15-1.84,3.15-1.84h-.01Z"/>
                <path class="cls-15" d="m84.92,324.81c.48-1.75-3.9-7.96-5.56-10.04-1.67-2.09-10.86-5.22-13.8-3.61-1.15.63-3.29,5.05-6.18,8.88-4.47,5.94-9.7,12.16-7.8,13.84,4.61,4.07,15.11-2.35,18.52-4.5,3.41-2.16,6.53-4.78,7.36-4.69,1.1.12,3.4,1.86,4.32,1.96,2.19.24,3.15-1.84,3.15-1.84h-.01Z"/>
              </g>
              <path class="cls-4" d="m106.1,318.59c10.73,6.41,15.49,23.48,15.78,26.21.24,2.23,5.35,10.1,4.44,18.57-.59,5.45-10.37,12.68-18.33,12.6-1.47-.01-13.86,4.48-24.32,3.76s-18.4-8.15-18.7-8.78c-.31-.63-8.79-1.86-9.32-10.6-.85-13.96,13.4-37.76,17.48-41.01,6.75-5.38,25.69-5.11,32.98-.75h-.01Z"/>
              <g>
                <path class="cls-4" d="m101.05,325.95c-.21-1.9,5.36-7.61,7.44-9.5s12.14-3.61,14.92-1.45c1.09.85,2.58,5.78,4.94,10.25,3.65,6.9,8.05,14.23,5.8,15.66-5.46,3.46-15.29-4.95-18.47-7.75s-5.98-6.04-6.85-6.08c-1.16-.06-3.84,1.36-4.81,1.31-2.31-.11-2.96-2.43-2.96-2.43h-.01Z"/>
                <path class="cls-15" d="m101.05,325.95c-.21-1.9,5.36-7.61,7.44-9.5s12.14-3.61,14.92-1.45c1.09.85,2.58,5.78,4.94,10.25,3.65,6.9,8.05,14.23,5.8,15.66-5.46,3.46-15.29-4.95-18.47-7.75s-5.98-6.04-6.85-6.08c-1.16-.06-3.84,1.36-4.81,1.31-2.31-.11-2.96-2.43-2.96-2.43h-.01Z"/>
              </g>
              <path class="cls-15" d="m81.45,349.93c6.58.06,9.58,7.11,10.37,8.94.79,1.84,4.85,6.04,4.96,10.43.11,4.39-8.23,9.29-17.04,7.75-8.76-1.54-13.41-6.48-13.36-10.94.04-3.59,3.42-6.7,3.8-7.65.37-.95,5.27-8.58,11.27-8.53Z"/>
              <path class="cls-15" d="m97.63,362.31c.88,1,1.62,2.11,2.21,3.31.6,1.2,1.06,2.47,1.29,3.82.21,1.34.2,2.81-.43,4.1-.3.64-.75,1.2-1.28,1.65-.55.42-1.16.73-1.79.92,1.11-.74,1.97-1.71,2.35-2.87.4-1.15.37-2.41.16-3.64-.19-1.24-.59-2.46-1.02-3.67-.45-1.21-.95-2.41-1.49-3.62Z"/>
              <path class="cls-15" d="m67.48,359.68c-.57.71-1.11,1.4-1.61,2.1-.48.71-.96,1.42-1.27,2.18-.34.75-.53,1.54-.58,2.36-.03.83.19,1.64.47,2.51-.62-.65-1.13-1.5-1.24-2.47-.12-.96.07-1.94.44-2.81.38-.87.94-1.63,1.59-2.28.65-.65,1.37-1.22,2.2-1.6h0Z"/>
              <g>
                <path class="cls-9" d="m170.29,453.86c-10.78,0-22.66-.18-34.61-.41-6.16-.11-11.03-.2-14.06-.2-15.52,0-19.99-19.96-24.31-39.25-.6-2.69-1.21-5.38-1.84-8.03-1.23-5.16-2.25-10.38-3.24-15.42-3.04-15.61-5.68-29.08-12.55-29.82-9.09-.97-17.18,12.62-20.13,33.83l-1.98-.28c3.11-22.36,12.08-36.66,22.32-35.55,8.34.89,11.1,15.04,14.3,31.43.98,5.03,2,10.22,3.22,15.34.63,2.65,1.24,5.36,1.84,8.05,4.34,19.38,8.44,37.69,22.36,37.69,3.06,0,7.93.09,14.1.2,13.52.25,32.03.6,47.7.29,25.42-.5,28.43-2.5,28.74-3.11,0-4.16-26.84-9.17-36.94-11.05-10.21-1.91-10.61-1.98-10.49-3.23.1-1.12,1.35-1.12,3.24-1.12h41.94c13.16,0,17.39-18.93,19.93-30.23.73-3.24,1.3-5.81,1.93-7.13,2.94-6.12,10.38-5.23,10.69-5.19l-.26,1.98c-.26-.03-6.32-.74-8.63,4.07-.54,1.12-1.12,3.7-1.79,6.7-2.66,11.89-7.12,31.8-21.88,31.8h-36.42c.68.13,1.38.26,2.09.39,24.42,4.56,38.56,8.16,38.56,13.09,0,.36-.11.9-.65,1.43-2.98,2.92-20.65,3.72-43.21,3.72h.03,0Z"/>
                <g>
                  <rect class="cls-14" x="54.86" y="390.28" width="7.37" height="12.28" transform="translate(-340.67 431.14) rotate(-86.57)"/>
                  <rect class="cls-5" x="57.66" y="387.73" width="2.34" height="7.66" transform="translate(-335.55 426.86) rotate(-86.57)"/>
                  <rect class="cls-4" x="52.56" y="402.01" width="5.62" height="1.45" transform="translate(-349.96 433.91) rotate(-86.57)"/>
                  <rect class="cls-4" x="58.09" y="402.33" width="5.62" height="1.44" transform="translate(-345.07 439.73) rotate(-86.57)"/>
                </g>
                <g>
                  <rect class="cls-14" x="246.2" y="385.53" width="5.37" height="12.28"/>
                  <rect class="cls-5" x="241.87" y="387.84" width="4.34" height="7.66"/>
                </g>
              </g>
              <g>
                <g>
                  <path class="cls-4" d="m73.1,360.6s2.61,3.02,3.62,2.38c1.01-.64,3.54-6.59,3.54-6.59,0,0,.6,7.57,2.56,7.77,1.95.21,5.29-2.78,5.29-2.78l-7.89-5.47-7.12,4.68h0Z"/>
                  <path class="cls-15" d="m73.1,360.6s2.61,3.02,3.62,2.38c1.01-.64,3.54-6.59,3.54-6.59,0,0,.6,7.57,2.56,7.77,1.95.21,5.29-2.78,5.29-2.78l-7.89-5.47-7.12,4.68h0Z"/>
                </g>
                <path class="cls-15" d="m111.8,351.21c.77-2.4,1.05-4.97.81-7.54-.11-1.29-.42-2.58-.91-3.83-.25-.62-.57-1.22-.96-1.79-.38-.57-.83-1.11-1.34-1.58-.25-.24-.53-.45-.82-.66-.29-.2-.58-.36-.88-.53l-.45-.25-.47-.19c-.32-.12-.62-.28-.96-.36-1.31-.39-2.67-.5-3.98-.38-2.63.23-5.08,1.25-7.08,2.79,2.36-.84,4.78-1.37,7.13-1.31,1.17.06,2.32.19,3.37.6.27.08.51.23.77.33l.38.17.36.22c.24.15.49.28.71.44.22.17.43.33.63.52.82.72,1.46,1.66,1.94,2.7.51,1.03.83,2.17,1.1,3.33.49,2.35.65,4.81.65,7.32h0Z"/>
                <path class="cls-15" d="m63.02,346.1c.16-2.14.46-4.22,1.05-6.15.6-1.92,1.56-3.68,3.05-4.76.36-.28.77-.49,1.18-.69.39-.17.81-.29,1.26-.35.91-.13,1.9-.07,2.89.06,2,.31,4.01.91,6.06,1.57-.82-.71-1.74-1.29-2.69-1.81-.48-.25-.97-.49-1.48-.7-.51-.2-1.03-.39-1.57-.54-1.07-.31-2.22-.48-3.42-.38-.6.06-1.21.19-1.8.44-.55.25-1.08.53-1.56.91-.97.72-1.73,1.69-2.26,2.71-.54,1.03-.87,2.13-1.05,3.23-.36,2.19-.25,4.41.34,6.48v-.02Z"/>
                <g>
                  <path class="cls-9" d="m95.51,348.07c.03-.11.25.15.24.28-.24,3.01.05,6.5,3,7.64.09.04.07.19-.04.17-3.63-.63-3.96-5.26-3.21-8.08h.01Z"/>
                  <path class="cls-9" d="m98.6,345.05c5.34-.14,5.33,9.61.39,9.74-4.87.12-4.86-9.63-.39-9.74Z"/>
                </g>
                <g>
                  <path class="cls-9" d="m74.88,345.7c-.01-.12-.27.12-.28.24-.19,3.02-.95,6.43-4.03,7.14-.1.02-.1.17.01.17,3.68-.12,4.66-4.66,4.3-7.55h0Z"/>
                  <path class="cls-9" d="m72.24,342.28c-5.27-.88-6.62,8.78-1.74,9.59,4.8.8,6.15-8.86,1.74-9.59Z"/>
                </g>
                <path class="cls-9" d="m80.06,356.12c.95.31,7.53-1.78,7.03-3.77-.54-2.16-9.81-2.67-10.97-1.27-1.16,1.4,2.95,4.72,3.94,5.04h0Z"/>
                <path class="cls-9" d="m88.28,361.29c-1.06.77-2.15,1.52-3.35,2.09-.59.28-1.25.53-1.82.52-.38.08-.7-.44-.91-.93-.44-1-.65-2.1-.84-3.19-.2-1.09-.31-2.2-.42-3.3l-.31-3.04-.91,2.95c-.28.91-.61,1.82-.94,2.72-.35.9-.71,1.8-1.18,2.64-.12.21-.25.41-.39.6s-.3.38-.46.48c-.11.09-.32.09-.56.06-.23-.06-.48-.16-.71-.3-.93-.55-1.68-1.34-2.38-2.13.49.88,1.07,1.74,2.01,2.47.23.18.53.34.87.45.19.04.37.1.59.08.19.01.47-.06.64-.15.34-.18.54-.39.74-.6.19-.21.35-.43.5-.65.6-.87,1.03-1.78,1.43-2.69.41-.91.74-1.83,1.05-2.77l-1.22-.09c.07,1.14.25,2.25.46,3.38.1.56.25,1.12.42,1.68.18.56.36,1.12.66,1.67.16.28.32.55.59.82.14.13.3.27.54.38.12.06.25.1.41.11.16.03.24,0,.37,0,.91-.07,1.55-.43,2.16-.77,1.18-.72,2.14-1.58,2.98-2.5h-.02Z"/>
              </g>
            </g>
          </g>
          <g>
            <path class="cls-9" d="m38.05,395.89c2-.16,3.98-.09,5.96.03,1.98.15,3.95.35,5.9.78-2,.16-3.98.09-5.96-.03-1.98-.15-3.95-.35-5.9-.78Z"/>
            <path class="cls-9" d="m66.83,402.22c1.9.63,3.7,1.46,5.47,2.34,1.76.9,3.5,1.85,5.13,3.01-1.9-.63-3.7-1.46-5.47-2.34-1.76-.9-3.5-1.85-5.13-3.01Z"/>
            <path class="cls-9" d="m44.4,415.97c.96-1.76,2.09-3.39,3.27-4.98,1.2-1.58,2.44-3.12,3.87-4.53-.95,1.76-2.09,3.39-3.27,4.98-1.2,1.58-2.45,3.12-3.87,4.53Z"/>
            <path class="cls-9" d="m33.16,384.07c1.54.49,3.05,1.06,4.56,1.64,1.51.57,2.99,1.2,4.48,1.82,1.48.64,2.96,1.29,4.41,1.98,1.46.69,2.91,1.39,4.33,2.17-1.54-.49-3.05-1.06-4.56-1.64-1.51-.57-2.99-1.2-4.48-1.82-1.48-.64-2.96-1.29-4.41-1.98-1.46-.69-2.91-1.39-4.33-2.17Z"/>
            <path class="cls-9" d="m68.28,392.93c1.4-.74,2.86-1.26,4.34-1.72,1.49-.45,2.99-.84,4.56-1.01-1.4.74-2.86,1.26-4.34,1.72-1.49.44-2.99.83-4.56,1.01Z"/>
            <path class="cls-9" d="m53.9,387.87c-.82-1.3-1.56-2.63-2.3-3.97-.74-1.34-1.43-2.7-2.12-4.06-.67-1.37-1.34-2.74-1.96-4.14-.63-1.39-1.24-2.79-1.78-4.23.82,1.3,1.56,2.63,2.3,3.97.74,1.34,1.43,2.7,2.12,4.06.67,1.37,1.34,2.74,1.96,4.14.63,1.39,1.24,2.79,1.78,4.23Z"/>
            <path class="cls-9" d="m74.15,419.5c-.89-1.02-1.72-2.09-2.53-3.17-.82-1.07-1.59-2.17-2.37-3.28-.76-1.11-1.52-2.23-2.22-3.38-.72-1.14-1.42-2.29-2.06-3.49.89,1.02,1.72,2.09,2.53,3.17.82,1.07,1.59,2.18,2.37,3.28.76,1.11,1.51,2.23,2.22,3.38.72,1.14,1.42,2.29,2.06,3.49Z"/>
          </g>
          <g>
            <polygon class="cls-11" points="343.09 168.86 260.43 168.86 254.03 112.72 336.69 112.72 343.09 168.86"/>
            <g>
              <polygon class="cls-7" points="338.59 165.1 264.08 165.1 258.53 116.49 333.04 116.49 338.59 165.1"/>
              <g>
                <g>
                  <g>
                    <polygon class="cls-4" points="292.57 142.06 291.38 143.48 279.66 133.36 280.85 131.95 292.57 142.06"/>
                    <polygon class="cls-4" points="289.55 131.95 291.19 133.36 282.67 143.48 281.03 142.06 289.55 131.95"/>
                  </g>
                  <g>
                    <polygon class="cls-4" points="317.63 142.06 316.44 143.48 304.72 133.36 305.91 131.95 317.63 142.06"/>
                    <polygon class="cls-4" points="314.61 131.95 316.25 133.36 307.73 143.48 306.09 142.06 314.61 131.95"/>
                  </g>
                </g>
                <polygon class="cls-4" points="278.16 151.79 277.84 149.79 323.27 149.79 323.59 151.79 278.16 151.79"/>
              </g>
            </g>
            <rect class="cls-11" x="261.01" y="165.1" width="106.34" height="3.77"/>
            <rect class="cls-6" x="284.1" y="165.1" width="92.22" height="3.77"/>
            <polygon class="cls-9" points="333.31 118.85 333.04 116.49 258.53 116.49 258.8 118.85 333.31 118.85"/>
            <g>
              <path class="cls-6" d="m264.81,117.67c.04.32.3.59.59.59s.5-.26.46-.59c-.04-.32-.3-.59-.59-.59s-.5.26-.46.59Z"/>
              <path class="cls-7" d="m262.65,117.67c.04.32.3.59.59.59s.5-.26.46-.59c-.04-.32-.3-.59-.59-.59s-.5.26-.46.59Z"/>
              <path class="cls-4" d="m260.5,117.67c.04.32.3.59.59.59s.5-.26.46-.59c-.04-.32-.3-.59-.59-.59s-.5.26-.46.59Z"/>
            </g>
          </g>
        </g>
      </g>
    </g>
  </g>
</svg>