<?xml version="1.0" encoding="UTF-8"?>
<svg id="Layer_2" data-name="Layer 2" xmlns="http://www.w3.org/2000/svg" width="68.97" height="68.96" viewBox="0 0 68.97 68.96">
  <defs>
    <style>
      .cls-1 {
        fill: #00b2e3;
      }

      .cls-1, .cls-2 {
        stroke-width: 0px;
      }

      .cls-2 {
        fill: #fff;
      }
    </style>
  </defs>
  <g id="Layer_1-2" data-name="Layer 1-2">
    <g>
      <path class="cls-1" d="m21.86,68.96c-5.93,0-10.94-2.13-15.33-6.51-4.4-4.4-6.53-9.41-6.53-15.34,0-7.57,3.26-11.3,6.41-14.91,2.57-2.94,5-5.73,5.83-10.85.96-5.9-1.1-13.02-2.34-17.27-.17-.58-.32-1.1-.44-1.56l3.86-1.06c.12.44.27.95.43,1.5,1.33,4.58,3.54,12.24,2.44,19.03-1.02,6.25-4.07,9.75-6.77,12.84-2.91,3.33-5.42,6.21-5.42,12.28,0,4.88,1.7,8.85,5.34,12.5,3.66,3.66,7.63,5.35,12.51,5.35,6.07,0,8.95-2.51,12.28-5.42,3.09-2.7,6.59-5.75,12.84-6.77,6.79-1.1,14.45,1.12,19.03,2.44.56.16,1.06.31,1.5.43l-1.06,3.86c-.46-.13-.98-.28-1.56-.44-4.25-1.23-11.38-3.29-17.27-2.34-5.12.83-7.9,3.26-10.85,5.83-3.61,3.15-7.34,6.41-14.91,6.41h.01Z"/>
      <path class="cls-2" d="m68.37,56.13c-3.66-3.57-10.48-10.21-20.02-11.1-3.85-.35-6.32-.07-10.07.35-2.38.27-5.35.61-9.65.9-1.24.08-3.27,0-5.56-.38-.39-2.29-.47-4.32-.38-5.56.29-4.3.63-7.27.9-9.65.42-3.75.7-6.22.35-10.07-.88-9.54-7.53-16.36-11.1-20.02-.75-.77-1.97-.81-2.77-.09C7.69,2.65-.11,10.58.02,22.6c.14,11.83,7.89,23.13,18.04,26.28l1.55.48.48,1.55c3.15,10.14,14.45,17.9,26.28,18.04h.3c11.85,0,19.67-7.69,21.79-10.06.72-.8.67-2.02-.09-2.77h0ZM4.02,22.56c-.09-8.61,4.58-14.81,7.35-17.72,3.31,3.51,7.94,9.09,8.59,16.16.31,3.44.08,5.51-.35,9.26-.27,2.42-.62,5.44-.92,9.83-.04.62-.11,2.39.19,4.87-8.25-2.79-14.74-12.53-14.86-22.39h0Zm42.4,42.4c-9.86-.12-19.6-6.61-22.39-14.86,2.47.3,4.25.23,4.87.19,4.39-.3,7.4-.64,9.83-.92,3.75-.42,5.81-.66,9.25-.35,7.07.65,12.65,5.28,16.16,8.59-2.91,2.76-9.09,7.44-17.72,7.35Z"/>
    </g>
  </g>
</svg>