<?xml version="1.0" encoding="UTF-8"?>
<svg id="Layer_2" data-name="Layer 2" xmlns="http://www.w3.org/2000/svg" width="54.15" height="59" viewBox="0 0 54.15 59">
  <defs>
    <style>
      .cls-1 {
        stroke: #740e38;
        stroke-width: .14px;
      }

      .cls-1, .cls-2 {
        fill: none;
      }

      .cls-3 {
        fill: #740e38;
      }

      .cls-3, .cls-2, .cls-4 {
        stroke-width: 0px;
      }

      .cls-4 {
        fill: #fff;
      }
    </style>
  </defs>
  <g id="Layer_2-2" data-name="Layer 2">
    <g>
      <path class="cls-4" d="m44.05,24.89s-3.8-9.65-16.36-9.65c-8.89,0-15.51,8-15.51,8l3.04,2.12s5.35-6.48,12.96-6.48,12.63,5.69,14.42,9.53h4.96v-3.51h-3.51Zm-15.64-7.78v1.22h-.36v-1.78s7.98.17,11.55,5.91c0,0-3.72-5.19-11.19-5.35"/>
      <path class="cls-1" d="m44.05,24.89s-3.8-9.65-16.36-9.65c-8.89,0-15.51,8-15.51,8l3.04,2.12s5.35-6.48,12.96-6.48,12.63,5.69,14.42,9.53h4.96v-3.51h-3.51Zm-15.64-7.78v1.22h-.36v-1.78s7.98.17,11.55,5.91c0,0-3.72-5.19-11.19-5.35Z"/>
      <path class="cls-4" d="m40.42,32.89s-5.36,6.48-12.96,6.48-12.64-5.69-14.42-9.52h-4.96v3.51h3.5s3.8,9.65,16.37,9.65c8.89,0,15.51-7.99,15.51-7.99l-3.04-2.12h0Zm-12.84,8.8s-7.97-.17-11.56-5.91c0,0,3.72,5.19,11.2,5.35v-1.23h.35v1.79h.01Z"/>
      <path class="cls-1" d="m40.42,32.89s-5.36,6.48-12.96,6.48-12.64-5.69-14.42-9.52h-4.96v3.51h3.5s3.8,9.65,16.37,9.65c8.89,0,15.51-7.99,15.51-7.99l-3.04-2.12h0Zm-12.84,8.8s-7.97-.17-11.56-5.91c0,0,3.72,5.19,11.2,5.35v-1.23h.35v1.79h.01Z"/>
      <rect class="cls-3" x=".49" y=".49" width="53.17" height="58.03"/>
      <path class="cls-4" d="m0,59h54.15V0H0v59Zm53.17-.98H.98V.99h52.19v57.03Z"/>
      <path class="cls-4" d="m43.81,24.95s-3.8-9.68-16.39-9.68c-8.91,0-15.55,8.02-15.55,8.02l3.06,2.13s5.36-6.49,12.99-6.49,12.66,5.7,14.45,9.54h4.97v-3.51h-3.53Zm-15.67-7.79v1.23h-.36v-1.79s8,.17,11.59,5.92c0,0-3.73-5.21-11.22-5.36"/>
      <path class="cls-2" d="m43.81,24.95s-3.8-9.68-16.39-9.68c-8.91,0-15.55,8.02-15.55,8.02l3.06,2.13s5.36-6.49,12.99-6.49,12.66,5.7,14.45,9.54h4.97v-3.51h-3.53Zm-15.67-7.79v1.23h-.36v-1.79s8,.17,11.59,5.92c0,0-3.73-5.21-11.22-5.36h-.01Z"/>
      <path class="cls-4" d="m40.17,32.97s-5.37,6.5-12.99,6.5-12.67-5.7-14.45-9.54h-4.97v3.51h3.51s3.81,9.67,16.4,9.67c8.91,0,15.55-8.02,15.55-8.02l-3.05-2.12Zm-12.86,8.82s-8-.16-11.59-5.92c0,0,3.73,5.21,11.23,5.36v-1.23h.36s0,1.79,0,1.79Z"/>
      <path class="cls-2" d="m40.17,32.97s-5.37,6.5-12.99,6.5-12.67-5.7-14.45-9.54h-4.97v3.51h3.51s3.81,9.67,16.4,9.67c8.91,0,15.55-8.02,15.55-8.02l-3.05-2.12Zm-12.86,8.82s-8-.16-11.59-5.92c0,0,3.73,5.21,11.23,5.36v-1.23h.36s0,1.79,0,1.79Z"/>
      <path class="cls-4" d="m13.68,48.13l-.34-.04h-.04c-.6,1.34-1.23,2.58-1.85,3.78l-.65,1.27-.25-.5c-.75-1.49-1.52-3.03-2.22-4.54h-.06l-.33.04-.33-.04h-.02c-.34,2.5-.67,4.91-1.03,6.98l.36-.05.38.05h.02c.03-1.38.18-2.72.44-4.68l.05-.34,1.04,2.15s1.32,2.7,1.37,2.81h.27c.75-1.62,1.54-3.26,2.31-4.79l.15-.3.18,1.72c.12,1.11.24,2.26.31,3.42h.13l.62-.05.65.05h.1c-.3-1.77-.53-3.69-.78-5.91,0,0-.1-.9-.12-1.07l-.37.04h0Z"/>
      <path class="cls-4" d="m18.79,48.02s-.22-.02-.34-.03c-.06.13-2.79,6.77-2.91,7.06l.35-.03.33.03h.09c.11-.38.27-.73.43-1.11l.41-.99,1.43-3.31.08.22c.27.68,1.43,4.26,1.73,5.21h.15l.68-.05.68.05h.07c-.11-.29-2.79-6.95-2.84-7.08-.11,0-.33.03-.33.03"/>
      <path class="cls-4" d="m38.07,48.02s-.22-.02-.33-.03c-.05.13-2.79,6.77-2.91,7.06l.34-.03.33.03h.09c.11-.38.27-.73.43-1.11l.4-.99,1.43-3.31.09.22c.28.7,1.46,4.36,1.72,5.21h.15l.68-.05.68.05h.06c-.11-.29-2.78-6.95-2.84-7.08-.11,0-.34.03-.34.03"/>
      <path class="cls-4" d="m26.93,52.06h-.07v2.41l-.05.03c-.34.2-.74.3-1.2.3-1.65,0-2.63-1.13-2.63-3.02,0-1.71.85-3.44,2.72-3.44.85,0,1.63.39,2.11,1.07h.01c.05-.31.14-.61.25-.91-.71-.39-1.5-.59-2.39-.59-2.62,0-4.24,1.48-4.24,3.85,0,2.57,2.11,3.48,4.08,3.48.94,0,1.89-.22,2.71-.45v-2.71h-.08l-.61.03-.62-.03v-.02Z"/>
      <path class="cls-4" d="m33.67,53.99c-.5-.76-1.01-1.56-1.47-2.36l-.07-.12.14-.03c.99-.22,1.56-.87,1.56-1.79,0-.66-.27-1.1-.86-1.41-.39-.2-1.05-.2-1.54-.2h-2.25v6.99h.08l.61-.05.6.05h.08v-3.36h.24l.34.59.37.63s1.15,2.05,1.21,2.14h.16l.74-.05.73.05h.02c-.12-.2-.29-.47-.29-.47l-.39-.61h-.01Zm-3.03-2.53h-.1v-3.02h.26c.61,0,1.37-.02,1.55.87l.05.54c0,.58-.15,1.01-.45,1.28-.3.28-.74.38-1.3.33"/>
      <path class="cls-4" d="m46.34,53.07c0-1.27-1.12-1.56-1.79-1.63h-.09v-.29l.08-.02c.76-.1,1.64-.58,1.64-1.58,0-1.22-1.09-1.48-1.99-1.48h-2.6v6.94h2.32c1.22,0,2.44-.59,2.44-1.95m-2.76-4.63c.77,0,1.23.47,1.23,1.27,0,.49-.18.91-.49,1.16-.35.3-.72.3-1.13.29h-.25v-2.67l.64-.06h0Zm-.64,6.17v-3.03h.1c.66-.06,1.13.06,1.44.35.29.26.42.66.42,1.22,0,.9-.69,1.46-1.34,1.46h-.63.01Z"/>
      <polygon class="cls-4" points="47.09 48.09 46.99 48.09 46.99 55.07 47.07 55.07 47.67 55.02 48.27 55.07 48.36 55.07 48.36 48.09 48.25 48.09 47.67 48.13 47.09 48.09"/>
      <path class="cls-4" d="m20.68,8.1h-1.18c-.27,0-.48.21-.48.47s.21.48.48.48h1.18c.26,0,.48-.21.48-.48s-.22-.47-.48-.47m13.67-5.22h-1.18c-.27,0-.48.22-.48.48s.21.49.48.49h1.18c.26,0,.47-.22.47-.49s-.21-.48-.47-.48M12.66,11.86h-1.18c-.27,0-.48.21-.48.48s.22.47.48.47h1.18c.27,0,.48-.21.48-.47s-.21-.48-.48-.48m-2.56,0h-1.18c-.26,0-.48.21-.48.48s.22.47.48.47h1.18c.26,0,.48-.21.48-.47s-.22-.48-.48-.48"/>
      <path class="cls-4" d="m21.07,7.37v-2.18h-1.6v1.38h-6.51v.8c1.2,0,1,.59,1,.99,0,.6-.8,1.59-3,1.59s-3-.99-3-1.78,1.2-1.59,1.2-1.59h-1.8c-.8.4-.8,1.39-.8,1.39,0,2.77,3.2,3.17,3.2,3.17,0,0,.35.06.95.06.56,0,1.05-.06,1.05-.06,3.2-.6,3.2-2.37,3.2-2.77s-.2-.99-.2-.99h6.32,0Z"/>
      <path class="cls-4" d="m44.91,5.51c-1.72,0-3.12,1-3.26,2.26h-4.81c.4-.4.4-.8.4-1.2,0-1.19-1.21-1.97-3.4-1.97-1.6,0-3,.19-4,.79s0,.99,0,.99h2.4c1.4,0,1,1.39,1,1.39h-6.56c-.6-1-1.6-1.2-1.6-1.2h-1.8s1.4.6,1.4,1.99c0,1.19-1,2.18-2.4,2.18-1.2,0-2.4-.79-2.4-.79,0,0-.4.4-.4.79.2.2,1.6.39,2.8.39,4.8,0,4.4-2.37,4.4-2.37h15.12c.09.2.22.41.39.58h2.04c-.55-.25-.93-.79-.93-1.41,0-.87.73-1.56,1.63-1.56s1.64.7,1.64,1.56c0,.62-.39,1.16-.93,1.41h2.01c.35-.39.55-.86.55-1.37,0-1.36-1.46-2.47-3.27-2.47m-9.9,1.7c-.1.21-.35-.22-.56-.57-.33-.56-1.24-.81-2.24-.81-.4,0-.42-.09,0-.23.35-.12.89-.29,1.8-.17.93.12,1.71.61,1.8.99.1.41-.55.28-.79.8"/>
    </g>
  </g>
</svg>