<?xml version="1.0" encoding="utf-8"?>
<!-- Generator: Adobe Illustrator 27.9.0, SVG Export Plug-In . SVG Version: 6.00 Build 0)  -->
<svg version="1.1" id="Layer_2_00000150063302970720333500000005843917293844031163_"
	 xmlns="http://www.w3.org/2000/svg" xmlns:xlink="http://www.w3.org/1999/xlink" x="0px" y="0px" viewBox="0 0 197 59"
	 style="enable-background:new 0 0 197 59;" xml:space="preserve">
<style type="text/css">
	.st0{fill:#FFFFFF;}
	.st1{fill:none;stroke:#740E38;stroke-width:0.14;}
	.st2{fill:#740E38;}
	.st3{fill:none;}
</style>
<g>
	<g>
		<path class="st0" d="M44,24.9c0,0-3.8-9.6-16.4-9.6c-8.9,0-15.5,8-15.5,8l3,2.1c0,0,5.3-6.5,13-6.5s12.6,5.7,14.4,9.5h5v-3.5
			L44,24.9L44,24.9z M28.4,17.1v1.2H28v-1.8c0,0,8,0.2,11.5,5.9C39.6,22.5,35.9,17.3,28.4,17.1"/>
		<path class="st1" d="M44,24.9c0,0-3.8-9.6-16.4-9.6c-8.9,0-15.5,8-15.5,8l3,2.1c0,0,5.3-6.5,13-6.5s12.6,5.7,14.4,9.5h5v-3.5
			L44,24.9L44,24.9z M28.4,17.1v1.2H28v-1.8c0,0,8,0.2,11.5,5.9C39.6,22.5,35.9,17.3,28.4,17.1z"/>
		<path class="st0" d="M40.4,32.9c0,0-5.4,6.5-13,6.5S14.8,33.7,13,29.8h-5v3.5h3.5c0,0,3.8,9.6,16.4,9.6c8.9,0,15.5-8,15.5-8
			L40.4,32.9L40.4,32.9z M27.6,41.7c0,0-8-0.2-11.6-5.9c0,0,3.7,5.2,11.2,5.3v-1.2h0.4L27.6,41.7L27.6,41.7z"/>
		<path class="st1" d="M40.4,32.9c0,0-5.4,6.5-13,6.5S14.8,33.7,13,29.8h-5v3.5h3.5c0,0,3.8,9.6,16.4,9.6c8.9,0,15.5-8,15.5-8
			L40.4,32.9L40.4,32.9z M27.6,41.7c0,0-8-0.2-11.6-5.9c0,0,3.7,5.2,11.2,5.3v-1.2h0.4L27.6,41.7L27.6,41.7z"/>
		<rect x="0.5" y="0.5" class="st2" width="53.2" height="58"/>
		<path class="st0" d="M0,59h54.2V0H0V59z M53.2,58H1V1h52.2V58z"/>
		<path class="st0" d="M43.8,25c0,0-3.8-9.7-16.4-9.7c-8.9,0-15.6,8-15.6,8l3.1,2.1c0,0,5.4-6.5,13-6.5s12.7,5.7,14.5,9.5h5V25
			L43.8,25L43.8,25z M28.1,17.2v1.2h-0.4v-1.8c0,0,8,0.2,11.6,5.9C39.4,22.5,35.6,17.3,28.1,17.2"/>
		<path class="st3" d="M43.8,25c0,0-3.8-9.7-16.4-9.7c-8.9,0-15.6,8-15.6,8l3.1,2.1c0,0,5.4-6.5,13-6.5s12.7,5.7,14.5,9.5h5V25
			L43.8,25L43.8,25z M28.1,17.2v1.2h-0.4v-1.8c0,0,8,0.2,11.6,5.9C39.4,22.5,35.6,17.3,28.1,17.2L28.1,17.2z"/>
		<path class="st0" d="M40.2,33c0,0-5.4,6.5-13,6.5s-12.7-5.7-14.4-9.5h-5v3.5h3.5c0,0,3.8,9.7,16.4,9.7c8.9,0,15.5-8,15.5-8
			L40.2,33z M27.3,41.8c0,0-8-0.2-11.6-5.9c0,0,3.7,5.2,11.2,5.4V40h0.4C27.3,40,27.3,41.8,27.3,41.8z"/>
		<path class="st3" d="M40.2,33c0,0-5.4,6.5-13,6.5s-12.7-5.7-14.4-9.5h-5v3.5h3.5c0,0,3.8,9.7,16.4,9.7c8.9,0,15.5-8,15.5-8
			L40.2,33z M27.3,41.8c0,0-8-0.2-11.6-5.9c0,0,3.7,5.2,11.2,5.4V40h0.4C27.3,40,27.3,41.8,27.3,41.8z"/>
		<path class="st0" d="M13.7,48.1l-0.3,0h0c-0.6,1.3-1.2,2.6-1.9,3.8l-0.6,1.3l-0.2-0.5c-0.8-1.5-1.5-3-2.2-4.5H8.3l-0.3,0l-0.3,0h0
			c-0.3,2.5-0.7,4.9-1,7l0.4,0l0.4,0h0c0-1.4,0.2-2.7,0.4-4.7l0.1-0.3l1,2.2c0,0,1.3,2.7,1.4,2.8c0.1,0,0.2,0,0.3,0
			c0.8-1.6,1.5-3.3,2.3-4.8l0.1-0.3l0.2,1.7c0.1,1.1,0.2,2.3,0.3,3.4h0.1l0.6,0l0.6,0h0.1c-0.3-1.8-0.5-3.7-0.8-5.9
			c0,0-0.1-0.9-0.1-1.1L13.7,48.1L13.7,48.1z"/>
		<path class="st0" d="M18.8,48c0,0-0.2,0-0.3,0c-0.1,0.1-2.8,6.8-2.9,7.1l0.4,0l0.3,0c0,0,0,0,0.1,0c0.1-0.4,0.3-0.7,0.4-1.1l0.4-1
			l1.4-3.3l0.1,0.2c0.3,0.7,1.4,4.3,1.7,5.2h0.1l0.7,0l0.7,0H22c-0.1-0.3-2.8-7-2.8-7.1C19,48,18.8,48,18.8,48"/>
		<path class="st0" d="M38.1,48c0,0-0.2,0-0.3,0c0,0.1-2.8,6.8-2.9,7.1l0.3,0l0.3,0c0,0,0,0,0.1,0c0.1-0.4,0.3-0.7,0.4-1.1l0.4-1
			l1.4-3.3l0.1,0.2c0.3,0.7,1.5,4.4,1.7,5.2h0.2l0.7,0l0.7,0h0.1c-0.1-0.3-2.8-7-2.8-7.1C38.3,48,38.1,48,38.1,48"/>
		<path class="st0" d="M26.9,52.1C26.9,52.1,26.9,52.1,26.9,52.1l-0.1,2.4l0,0c-0.3,0.2-0.7,0.3-1.2,0.3c-1.6,0-2.6-1.1-2.6-3
			c0-1.7,0.9-3.4,2.7-3.4c0.9,0,1.6,0.4,2.1,1.1h0c0-0.3,0.1-0.6,0.2-0.9c-0.7-0.4-1.5-0.6-2.4-0.6c-2.6,0-4.2,1.5-4.2,3.8
			c0,2.6,2.1,3.5,4.1,3.5c0.9,0,1.9-0.2,2.7-0.5v-2.7h-0.1l-0.6,0L26.9,52.1L26.9,52.1z"/>
		<path class="st0" d="M33.7,54c-0.5-0.8-1-1.6-1.5-2.4l-0.1-0.1l0.1,0c1-0.2,1.6-0.9,1.6-1.8c0-0.7-0.3-1.1-0.9-1.4
			c-0.4-0.2-1-0.2-1.5-0.2h-2.2v7h0.1l0.6,0l0.6,0h0.1v-3.4h0.2l0.3,0.6l0.4,0.6c0,0,1.1,2,1.2,2.1h0.2l0.7,0l0.7,0h0
			c-0.1-0.2-0.3-0.5-0.3-0.5L33.7,54L33.7,54z M30.6,51.5h-0.1v-3h0.3c0.6,0,1.4,0,1.6,0.9l0,0.5c0,0.6-0.2,1-0.5,1.3
			C31.6,51.4,31.2,51.5,30.6,51.5"/>
		<path class="st0" d="M46.3,53.1c0-1.3-1.1-1.6-1.8-1.6h-0.1v-0.3l0.1,0c0.8-0.1,1.6-0.6,1.6-1.6c0-1.2-1.1-1.5-2-1.5h-2.6V55h2.3
			C45.1,55,46.3,54.4,46.3,53.1 M43.6,48.4c0.8,0,1.2,0.5,1.2,1.3c0,0.5-0.2,0.9-0.5,1.2c-0.3,0.3-0.7,0.3-1.1,0.3h-0.2v-2.7
			L43.6,48.4L43.6,48.4z M43,54.6v-3H43c0.7-0.1,1.1,0.1,1.4,0.3c0.3,0.3,0.4,0.7,0.4,1.2c0,0.9-0.7,1.5-1.3,1.5H43L43,54.6z"/>
		<polygon class="st0" points="47.1,48.1 47,48.1 47,55.1 47.1,55.1 47.7,55 48.3,55.1 48.4,55.1 48.4,48.1 48.2,48.1 47.7,48.1 		
			"/>
		<path class="st0" d="M20.7,8.1h-1.2c-0.3,0-0.5,0.2-0.5,0.5s0.2,0.5,0.5,0.5h1.2c0.3,0,0.5-0.2,0.5-0.5S20.9,8.1,20.7,8.1
			 M34.3,2.9h-1.2c-0.3,0-0.5,0.2-0.5,0.5s0.2,0.5,0.5,0.5h1.2c0.3,0,0.5-0.2,0.5-0.5S34.6,2.9,34.3,2.9 M12.7,11.9h-1.2
			c-0.3,0-0.5,0.2-0.5,0.5s0.2,0.5,0.5,0.5h1.2c0.3,0,0.5-0.2,0.5-0.5S12.9,11.9,12.7,11.9 M10.1,11.9H8.9c-0.3,0-0.5,0.2-0.5,0.5
			s0.2,0.5,0.5,0.5h1.2c0.3,0,0.5-0.2,0.5-0.5S10.4,11.9,10.1,11.9"/>
		<path class="st0" d="M21.1,7.4V5.2h-1.6v1.4H13v0.8c1.2,0,1,0.6,1,1c0,0.6-0.8,1.6-3,1.6S8,9,8,8.2s1.2-1.6,1.2-1.6H7.4
			C6.6,7,6.6,8,6.6,8c0,2.8,3.2,3.2,3.2,3.2s0.4,0.1,0.9,0.1c0.6,0,1.1-0.1,1.1-0.1C15,10.5,15,8.8,15,8.4s-0.2-1-0.2-1L21.1,7.4
			L21.1,7.4z"/>
		<path class="st0" d="M44.9,5.5c-1.7,0-3.1,1-3.3,2.3h-4.8c0.4-0.4,0.4-0.8,0.4-1.2c0-1.2-1.2-2-3.4-2c-1.6,0-3,0.2-4,0.8s0,1,0,1
			h2.4c1.4,0,1,1.4,1,1.4h-6.6c-0.6-1-1.6-1.2-1.6-1.2h-1.8c0,0,1.4,0.6,1.4,2c0,1.2-1,2.2-2.4,2.2c-1.2,0-2.4-0.8-2.4-0.8
			s-0.4,0.4-0.4,0.8c0.2,0.2,1.6,0.4,2.8,0.4c4.8,0,4.4-2.4,4.4-2.4h15.1C41.9,9,42,9.2,42.2,9.3h2c-0.5-0.2-0.9-0.8-0.9-1.4
			c0-0.9,0.7-1.6,1.6-1.6s1.6,0.7,1.6,1.6c0,0.6-0.4,1.2-0.9,1.4h2C48,8.9,48.2,8.5,48.2,8C48.2,6.6,46.7,5.5,44.9,5.5 M35,7.2
			c-0.1,0.2-0.3-0.2-0.6-0.6c-0.3-0.6-1.2-0.8-2.2-0.8c-0.4,0-0.4-0.1,0-0.2c0.3-0.1,0.9-0.3,1.8-0.2c0.9,0.1,1.7,0.6,1.8,1
			C35.9,6.8,35.3,6.7,35,7.2"/>
	</g>
	<g>
		<polygon class="st2" points="84,47.7 84.8,47.7 83.5,52.5 85.6,52.5 85.5,53 82.5,53 		"/>
		<path class="st2" d="M89.1,52.9c-0.4,0.1-0.8,0.2-1.3,0.2c-1.2,0-1.6-0.6-1.6-1.3c0-1,0.9-2.6,2.5-2.6c0.8,0,1.2,0.4,1.2,0.9
			c0,0.9-1.2,1.3-2.8,1.3c0,0.1-0.1,0.5,0,0.8c0.1,0.3,0.4,0.5,0.8,0.5s0.8-0.1,1-0.2L89.1,52.9L89.1,52.9z M89,50
			c0-0.3-0.2-0.4-0.5-0.4c-0.5,0-1,0.4-1.3,1.2C88,50.9,89,50.7,89,50L89,50z"/>
		<path class="st2" d="M92.2,48.3l-0.3,0.9H93l-0.1,0.5h-1.1l-0.6,2.2c-0.1,0.2-0.1,0.4-0.1,0.5c0,0.2,0.1,0.3,0.4,0.3
			c0.2,0,0.2,0,0.3,0L91.8,53c-0.2,0-0.4,0.1-0.6,0.1c-0.6,0-0.9-0.2-0.9-0.6c0-0.2,0-0.3,0.1-0.6l0.6-2.2h-0.7l0.1-0.5h0.7l0.2-0.7
			L92.2,48.3L92.2,48.3z"/>
		<path class="st2" d="M95.8,49.2l0.2,2.2c0,0.3,0,0.6,0.1,1h0c0.2-0.3,0.3-0.6,0.5-1l1.2-2.1h0.8l-1.9,3.1c-0.5,0.9-1.1,1.6-1.8,2
			c-0.3,0.2-0.7,0.3-0.9,0.4l-0.3-0.5c0.2-0.1,0.6-0.2,0.8-0.4c0.3-0.2,0.7-0.5,0.9-0.8c0-0.1,0.1-0.1,0-0.2l-0.5-3.6L95.8,49.2
			L95.8,49.2z"/>
		<path class="st2" d="M102.2,50.4c0,1-0.7,2.7-2.4,2.7c-1.1,0-1.4-0.6-1.4-1.3c0-1,0.8-2.7,2.5-2.7C102,49.1,102.2,49.9,102.2,50.4
			 M99.2,51.8c0,0.4,0.1,0.9,0.6,0.9c1,0,1.5-1.6,1.5-2.3c0-0.4-0.1-0.7-0.6-0.7C99.8,49.6,99.3,51,99.2,51.8"/>
		<path class="st2" d="M106.9,49.2l-0.7,2.5c-0.2,0.5-0.2,1-0.3,1.3h-0.8l0.1-0.6h0c-0.4,0.5-1,0.7-1.5,0.7c-0.7,0-1-0.4-1-0.8
			c0-0.2,0-0.4,0.1-0.6l0.7-2.5h0.8l-0.7,2.4c-0.1,0.2-0.1,0.4-0.1,0.6c0,0.2,0.2,0.4,0.5,0.4c0.6,0,1.1-0.5,1.3-1.2l0.6-2.2
			L106.9,49.2L106.9,49.2z"/>
		<path class="st2" d="M107.1,53l0.7-2.6c0.1-0.5,0.2-1,0.2-1.3h0.7c0,0.2,0,0.4-0.1,0.7h0.1c0.3-0.5,0.8-0.8,1.4-0.8
			c0.1,0,0.1,0,0.2,0l-0.2,0.6c0,0-0.1,0-0.1,0c-0.8,0-1.4,0.7-1.5,1.3l-0.6,2L107.1,53L107.1,53z"/>
		<path class="st2" d="M111.7,52.5c0.2,0.1,0.5,0.2,0.9,0.2c0.6,0,0.9-0.3,0.9-0.7c0-0.3-0.2-0.5-0.6-0.7c-0.4-0.2-0.7-0.6-0.7-0.9
			c0-0.7,0.7-1.2,1.8-1.2c0.4,0,0.7,0.1,0.9,0.2l-0.2,0.4c-0.2-0.1-0.4-0.1-0.7-0.1c-0.6,0-0.9,0.2-0.9,0.6c0,0.3,0.3,0.5,0.5,0.7
			c0.4,0.2,0.8,0.6,0.8,1c0,0.8-0.8,1.2-1.8,1.2c-0.4,0-0.9-0.1-1.1-0.2L111.7,52.5L111.7,52.5z"/>
		<path class="st2" d="M118.1,52.9c-0.4,0.1-0.8,0.2-1.3,0.2c-1.2,0-1.6-0.6-1.6-1.3c0-1,0.8-2.6,2.5-2.6c0.8,0,1.2,0.4,1.2,0.9
			c0,0.9-1.2,1.3-2.8,1.3c0,0.1-0.1,0.5,0,0.8c0.1,0.3,0.4,0.5,0.8,0.5s0.8-0.1,1-0.2L118.1,52.9L118.1,52.9z M118,50
			c0-0.3-0.2-0.4-0.5-0.4c-0.5,0-1,0.4-1.3,1.2C117.1,50.9,118,50.7,118,50L118,50z"/>
		<path class="st2" d="M118.9,53l0.7-2.5c0.2-0.5,0.2-1,0.3-1.3h0.7l-0.1,0.6h0c0.4-0.5,0.9-0.7,1.5-0.7c0.7,0,1,0.4,1,0.8
			c0,0.2,0,0.4-0.1,0.6l-0.7,2.5h-0.8l0.7-2.5c0-0.2,0.1-0.3,0.1-0.5c0-0.2-0.1-0.4-0.5-0.4c-0.5,0-1.2,0.5-1.4,1.3l-0.6,2.1H118.9
			L118.9,53z"/>
		<path class="st2" d="M123.5,52.5c0.2,0.1,0.5,0.2,0.9,0.2c0.6,0,0.9-0.3,0.9-0.7c0-0.3-0.2-0.5-0.6-0.7c-0.4-0.2-0.7-0.6-0.7-0.9
			c0-0.7,0.7-1.2,1.8-1.2c0.4,0,0.7,0.1,0.9,0.2l-0.2,0.4c-0.2-0.1-0.4-0.1-0.6-0.1c-0.6,0-0.9,0.2-0.9,0.6c0,0.3,0.3,0.5,0.5,0.7
			c0.4,0.2,0.8,0.6,0.8,1c0,0.8-0.8,1.2-1.8,1.2c-0.4,0-0.9-0.1-1.1-0.2L123.5,52.5L123.5,52.5z"/>
		<path class="st2" d="M129.9,52.9c-0.4,0.1-0.8,0.2-1.3,0.2c-1.2,0-1.6-0.6-1.6-1.3c0-1,0.8-2.6,2.4-2.6c0.8,0,1.2,0.4,1.2,0.9
			c0,0.9-1.2,1.3-2.8,1.3c0,0.1-0.1,0.5,0,0.8c0.1,0.3,0.4,0.5,0.9,0.5s0.8-0.1,1-0.2L129.9,52.9L129.9,52.9z M129.8,50
			c0-0.3-0.2-0.4-0.5-0.4c-0.5,0-1,0.4-1.3,1.2C128.9,50.9,129.8,50.7,129.8,50L129.8,50z"/>
		<path class="st2" d="M130.8,52.5c0.2,0.1,0.5,0.2,0.9,0.2c0.6,0,0.9-0.3,0.9-0.7c0-0.3-0.2-0.5-0.6-0.7c-0.4-0.2-0.7-0.6-0.7-0.9
			c0-0.7,0.7-1.2,1.8-1.2c0.4,0,0.7,0.1,0.9,0.2l-0.2,0.4c-0.2-0.1-0.4-0.1-0.6-0.1c-0.6,0-0.9,0.2-0.9,0.6c0,0.3,0.3,0.5,0.5,0.7
			c0.4,0.2,0.8,0.6,0.8,1c0,0.8-0.8,1.2-1.8,1.2c-0.4,0-0.9-0.1-1.1-0.2L130.8,52.5L130.8,52.5z"/>
		<path class="st2" d="M138.4,53c-0.2,0.1-0.5,0.1-0.9,0.1c-1.1,0-1.5-0.6-1.5-1.4c0-1.1,1-2.6,2.8-2.6c0.2,0,0.4,0,0.6,0.1
			l-0.2,0.5c-0.1,0-0.2,0-0.4,0c-1.2,0-1.9,1.1-1.9,2c0,0.6,0.2,0.9,0.9,0.9c0.2,0,0.5,0,0.7-0.1V53z"/>
		<path class="st2" d="M142.9,50.4c0,1-0.7,2.7-2.4,2.7c-1.1,0-1.4-0.6-1.4-1.3c0-1,0.8-2.7,2.5-2.7
			C142.7,49.1,142.9,49.9,142.9,50.4 M139.9,51.8c0,0.4,0,0.9,0.6,0.9c1,0,1.5-1.6,1.5-2.3c0-0.4-0.1-0.7-0.6-0.7
			C140.5,49.6,139.9,51,139.9,51.8"/>
		<path class="st2" d="M143.2,53l0.7-2.5c0.2-0.5,0.2-1,0.3-1.3h0.7l-0.1,0.6h0c0.4-0.5,0.9-0.7,1.5-0.7c0.6,0,0.9,0.3,0.9,0.7
			c0.4-0.5,1-0.7,1.5-0.7c0.6,0,0.9,0.4,0.9,0.8c0,0.2-0.1,0.4-0.1,0.7l-0.7,2.4H148l0.7-2.5c0.1-0.2,0.1-0.4,0.1-0.6
			c0-0.2-0.1-0.4-0.5-0.4c-0.5,0-1.1,0.5-1.3,1.3l-0.6,2.1h-0.8l0.7-2.5c0.1-0.2,0.1-0.4,0.1-0.6c0-0.2-0.1-0.4-0.4-0.4
			c-0.5,0-1.1,0.5-1.3,1.3L144,53L143.2,53L143.2,53z"/>
		<path class="st2" d="M153.2,52.9c-0.4,0.1-0.8,0.2-1.3,0.2c-1.2,0-1.6-0.6-1.6-1.3c0-1,0.9-2.6,2.5-2.6c0.8,0,1.2,0.4,1.2,0.9
			c0,0.9-1.2,1.3-2.8,1.3c0,0.1-0.1,0.5,0,0.8c0.1,0.3,0.4,0.5,0.9,0.5s0.7-0.1,1-0.2L153.2,52.9L153.2,52.9z M153.1,50
			c0-0.3-0.2-0.4-0.5-0.4c-0.5,0-1,0.4-1.3,1.2C152.2,50.9,153.1,50.7,153.1,50L153.1,50z"/>
		<path class="st2" d="M158.1,48.3l-0.3,0.9h1.1l-0.1,0.5h-1.1l-0.6,2.2c-0.1,0.2-0.1,0.4-0.1,0.5c0,0.2,0.1,0.3,0.4,0.3
			c0.1,0,0.2,0,0.4,0l-0.1,0.5c-0.2,0-0.4,0.1-0.6,0.1c-0.6,0-0.9-0.2-0.9-0.6c0-0.2,0-0.3,0.1-0.6l0.6-2.2h-0.7l0.1-0.5h0.7
			l0.2-0.7L158.1,48.3L158.1,48.3z"/>
		<path class="st2" d="M162.4,50.4c0,1-0.7,2.7-2.4,2.7c-1.1,0-1.4-0.6-1.4-1.3c0-1,0.8-2.7,2.5-2.7
			C162.2,49.1,162.4,49.9,162.4,50.4 M159.4,51.8c0,0.4,0,0.9,0.6,0.9c1,0,1.4-1.6,1.4-2.3c0-0.4-0.1-0.7-0.6-0.7
			C160,49.6,159.4,51,159.4,51.8"/>
		<polygon class="st2" points="164.4,53 165.9,47.5 166.8,47.5 165.3,53 		"/>
		<path class="st2" d="M166.5,53l1.1-3.8h0.8l-1.1,3.8H166.5z M168.2,48.6c-0.3,0-0.4-0.1-0.4-0.4c0-0.2,0.2-0.4,0.6-0.4
			s0.5,0.2,0.4,0.4C168.8,48.5,168.5,48.6,168.2,48.6C168.2,48.6,168.2,48.6,168.2,48.6z"/>
		<path class="st2" d="M168.8,53l0.9-3.4H169l0.1-0.5h0.7l0.1-0.2c0.1-0.4,0.4-0.9,0.8-1.2c0.3-0.2,0.7-0.3,1.2-0.3
			c0.3,0,0.5,0,0.6,0.1l-0.2,0.5c-0.1,0-0.2,0-0.4,0c-0.6,0-1,0.5-1.1,1l-0.1,0.2h1.1l-0.1,0.5h-1.1l-1,3.4H168.8L168.8,53z"/>
		<path class="st2" d="M174.3,52.9c-0.4,0.1-0.8,0.2-1.3,0.2c-1.2,0-1.6-0.6-1.6-1.3c0-1,0.8-2.6,2.4-2.6c0.8,0,1.2,0.4,1.2,0.9
			c0,0.9-1.2,1.3-2.8,1.3c0,0.1-0.1,0.5,0,0.8c0.1,0.3,0.4,0.5,0.9,0.5s0.7-0.1,1-0.2L174.3,52.9L174.3,52.9z M174.2,50
			c0-0.3-0.2-0.4-0.5-0.4c-0.5,0-1,0.4-1.3,1.2C173.2,50.9,174.2,50.7,174.2,50L174.2,50z"/>
		<path class="st2" d="M175.6,53.1c-0.3,0-0.6-0.2-0.6-0.4s0.3-0.5,0.6-0.5c0.4,0,0.6,0.2,0.6,0.4C176.2,52.9,175.9,53.1,175.6,53.1
			C175.6,53.1,175.6,53.1,175.6,53.1z"/>
		<path class="st2" d="M61.8,34.8c0.3,0,0.7,0.1,1,0.1s0.7,0,1-0.1v3.7c0.7,0,1.3,0.1,2,0.1s1.3,0,2-0.1v-3.7c0.3,0,0.7,0.1,1,0.1
			s0.7,0,1-0.1v9.3c-0.3,0-0.6-0.1-1-0.1s-0.7,0-1,0.1v-4.5c-0.7,0-1.3-0.1-2-0.1s-1.3,0-2,0.1v4.5c-0.3,0-0.7-0.1-1-0.1
			s-0.7,0-1,0.1V34.8z"/>
		<path class="st2" d="M76.1,44.3c-2.9,0-4.8-1.8-4.8-4.8c0-2.7,1.9-4.9,5.1-4.9c3.7,0,4.8,2.7,4.8,4.8C81.2,42,79.3,44.3,76.1,44.3
			 M73.5,39.8c0,1.8,0.8,3.6,2.7,3.6s2.9-2.1,2.9-4.3c0-1.8-0.8-3.8-2.7-3.8C74.5,35.4,73.5,36.8,73.5,39.8"/>
		<path class="st2" d="M86.7,36.5c-0.3-0.7-0.8-1.2-1.5-1.2c-1,0-1.4,0.5-1.4,1.3c0,1.8,4,1.5,4,4.6c0,1.7-1.4,3-3.4,3
			c-0.7,0-1.5-0.2-2.1-0.6c0.2-0.6,0.3-1.1,0.4-1.7h0.2c0.2,0.9,0.9,1.5,1.8,1.5c0.8,0,1.5-0.5,1.5-1.4c0-2.2-3.9-1.4-3.9-4.7
			c0-1.6,1-2.8,3-2.8c0.9,0,1.8,0.4,2.1,0.7c-0.2,0.4-0.3,0.9-0.4,1.3L86.7,36.5L86.7,36.5z"/>
		<path class="st2" d="M91.1,44.1c-0.3,0-0.7-0.1-1-0.1s-0.7,0-1,0.1v-9.3h3.2c1.8,0,2.8,0.8,2.8,2.3c0,2.4-1.7,2.9-4,2.9
			C91.1,40,91.1,44.1,91.1,44.1z M91.1,39.3c0.3,0,0.6,0,0.9-0.1c0.8-0.2,1.2-1,1.2-1.8c0-1.1-0.5-1.8-1.2-1.8h-0.8L91.1,39.3
			L91.1,39.3z"/>
		<path class="st2" d="M96.6,34.8c0.3,0,0.7,0.1,1,0.1s0.7,0,1-0.1v9.3c-0.3,0-0.7-0.1-1-0.1s-0.7,0-1,0.1V34.8z"/>
		<path class="st2" d="M104.4,44.1c-0.3,0-0.7-0.1-1-0.1s-0.7,0-1,0.1v-8.3c-0.9,0-1.7,0.1-2.4,0.2c0-0.2,0.1-0.4,0.1-0.6
			s0-0.4-0.1-0.6h6.7c0,0.2-0.1,0.4-0.1,0.6c0,0.2,0,0.4,0.1,0.6c-0.8-0.1-1.5-0.2-2.3-0.2C104.4,35.8,104.4,44.1,104.4,44.1z"/>
		<path class="st2" d="M108.6,41.2c-0.3,1-0.7,1.9-0.9,2.8c-0.2,0-0.4,0-0.6,0c-0.2,0-0.4,0-0.6,0l3.7-9.4c0.2,0,0.3,0,0.5,0
			s0.3,0,0.5,0l3.6,9.4c-0.4,0-0.8-0.1-1.1-0.1s-0.7,0-1.1,0.1c-0.3-1-0.6-1.9-0.9-2.8H108.6L108.6,41.2z M111.3,40.4l-1.2-3.2
			l-1.2,3.2H111.3L111.3,40.4z"/>
		<path class="st2" d="M117.9,43c1.1,0,2.1-0.1,3-0.2c0,0.2-0.1,0.4-0.1,0.6s0.1,0.4,0.1,0.6H116v-9.2c0.3,0,0.7,0.1,1,0.1
			s0.6,0,1-0.1C117.9,34.8,117.9,43,117.9,43z"/>
		<path class="st2" d="M135.9,38.9l1.9,2.4c0.6-0.8,1.1-1.7,1.6-2.6l0.7,0.8c-0.6,0.8-1.1,1.6-1.8,2.3c0.6,0.7,1.1,1.4,1.8,2.1v0.2
			c-0.4,0-0.8-0.1-1.2-0.1s-0.8,0-1.2,0.1l-0.7-1c-0.7,0.6-1.8,1.1-2.8,1.1c-0.7,0-1.3-0.2-1.9-0.7c-0.5-0.4-0.7-1-0.7-1.7
			c0-1.4,1.2-2.3,2.3-2.8c-0.5-0.7-0.9-1.4-0.9-2.3c0-1.3,1.2-2.1,2.4-2.1c1,0,2.1,0.5,2.1,1.6c0,1.1-0.9,1.8-1.6,2.3L135.9,38.9
			L135.9,38.9z M133.2,41.3c0,0.4,0.2,0.8,0.4,1.2c0.2,0.3,0.5,0.5,0.9,0.6c0.2,0.1,0.5,0.1,0.7,0.1c0.4,0,1-0.2,1.3-0.6
			c-0.8-1-1.6-1.9-2.3-3C133.7,40,133.2,40.6,133.2,41.3 M136.4,36.5c0-0.5-0.3-1-0.9-1c-0.6,0-0.9,0.4-0.9,1s0.5,1.3,0.8,1.8
			C135.8,37.8,136.4,37.1,136.4,36.5"/>
		<path class="st2" d="M152.1,42.5l-0.3,1.2c-0.8,0.4-1.7,0.6-2.6,0.6c-2.8,0-4.9-1.8-4.9-4.6c0-3.5,2.3-5.2,5.2-5.2
			c0.9,0,1.9,0.2,2.7,0.7c-0.1,0.5-0.2,0.9-0.3,1.4h-0.2c-0.5-0.7-1.3-1.2-2.2-1.2c-2.2,0-3,2.2-3,4.2c0,2.3,1.1,3.9,3.1,3.9
			c0.8,0,1.8-0.4,2.3-1L152.1,42.5L152.1,42.5z"/>
		<path class="st2" d="M158.6,34.8c0,0.2-0.1,0.4-0.1,0.6s0,0.4,0.1,0.6c-0.8-0.1-1.7-0.2-3-0.2v2.9h1.4c0.6,0,1.1,0,1.6-0.1
			c0,0.2-0.1,0.4-0.1,0.6s0,0.4,0.1,0.6c-0.5-0.1-1-0.1-1.6-0.1h-1.4V43c1.3,0,2.2-0.1,3-0.2c0,0.2-0.1,0.4-0.1,0.6s0,0.4,0.1,0.6
			h-5v-9.2L158.6,34.8L158.6,34.8z"/>
		<path class="st2" d="M160.2,34.8h1.3c1.9,2.1,3.8,4.2,5.6,6.3v-6.3c0.2,0,0.4,0,0.5,0s0.4,0,0.5,0v9.3h-1.1
			c-1.5-1.8-2.9-3.4-4.4-5l-1.4-1.5V44c-0.2,0-0.4,0-0.5,0c-0.2,0-0.4,0-0.5,0L160.2,34.8L160.2,34.8z"/>
		<path class="st2" d="M173.9,44.1c-0.3,0-0.6-0.1-1-0.1s-0.6,0-1,0.1v-8.3c-0.9,0-1.8,0.1-2.4,0.2c0-0.2,0.1-0.4,0.1-0.6
			s0-0.4-0.1-0.6h6.7c0,0.2-0.1,0.4-0.1,0.6c0,0.2,0,0.4,0.1,0.6c-0.8-0.1-1.5-0.2-2.3-0.2L173.9,44.1L173.9,44.1z"/>
		<path class="st2" d="M182.5,34.8c0,0.2-0.1,0.4-0.1,0.6s0.1,0.4,0.1,0.6c-0.8-0.1-1.7-0.2-3-0.2v2.9h1.4c0.6,0,1.1,0,1.6-0.1
			c0,0.2-0.1,0.4-0.1,0.6s0,0.4,0.1,0.6c-0.5-0.1-1-0.1-1.6-0.1h-1.4V43c1.3,0,2.2-0.1,3-0.2c0,0.2-0.1,0.4-0.1,0.6s0.1,0.4,0.1,0.6
			h-5v-9.2L182.5,34.8L182.5,34.8z"/>
		<path class="st2" d="M184,34.8h2.8c0.6,0,1.6,0,2.1,0.3c0.8,0.4,1.1,1,1.1,1.9c0,1.3-0.8,2.2-2,2.4c0.7,1.3,1.5,2.5,2.3,3.8
			l0.5,0.8c-0.4,0-0.8-0.1-1.2-0.1s-0.8,0-1.2,0.1l-1.5-2.8c-0.2-0.4-0.6-1-0.8-1.5H186v4.3c-0.3,0-0.6-0.1-1-0.1s-0.6,0-1,0.1
			L184,34.8L184,34.8z M185.9,39.2c1.4,0.1,2.1-0.5,2.1-1.9c0-0.2,0-0.4-0.1-0.7c-0.2-1.1-1.2-1-2-1L185.9,39.2L185.9,39.2z"/>
		<path class="st2" d="M196,36.5c-0.3-0.7-0.8-1.2-1.5-1.2c-1,0-1.4,0.5-1.4,1.3c0,1.8,3.9,1.5,3.9,4.6c0,1.7-1.4,3-3.4,3
			c-0.7,0-1.5-0.2-2.1-0.6c0.2-0.6,0.3-1.1,0.4-1.7h0.2c0.2,0.9,0.9,1.5,1.8,1.5c0.8,0,1.5-0.5,1.5-1.4c0-2.2-3.9-1.4-3.9-4.7
			c0-1.6,1-2.8,3-2.8c0.9,0,1.8,0.4,2.1,0.7c-0.1,0.4-0.3,0.9-0.4,1.3L196,36.5L196,36.5z"/>
		<path class="st2" d="M126.4,36.5c-0.3-0.7-0.8-1.2-1.5-1.2c-1,0-1.4,0.5-1.4,1.3c0,1.8,3.9,1.5,3.9,4.6c0,1.7-1.4,3-3.4,3
			c-0.7,0-1.5-0.2-2.1-0.6c0.2-0.6,0.3-1.1,0.4-1.7h0.2c0.2,0.9,0.9,1.5,1.8,1.5c0.8,0,1.5-0.5,1.5-1.4c0-2.2-3.9-1.4-3.9-4.7
			c0-1.6,1-2.8,3-2.8c0.9,0,1.8,0.4,2.1,0.7c-0.2,0.4-0.3,0.9-0.4,1.3L126.4,36.5L126.4,36.5z"/>
		<path class="st2" d="M84.2,5.3c0.5,0.1,0.9,0.2,1.4,0.2s1-0.1,1.4-0.2c1.1,9,1.8,16.4,3,23.1c-0.9-0.1-1.8-0.2-2.8-0.2
			s-1.8,0.1-2.7,0.2C84.2,23,83.5,17.9,83,12.7C80.5,17.9,78,23,75.6,28.2c-0.4-0.1-0.8-0.1-1.3,0c-2.2-4.6-4.8-9.9-7.4-15.1
			c-0.8,5.9-1.3,10.6-1.4,15.3c-0.5-0.1-1-0.2-1.6-0.2s-1,0.1-1.5,0.2c1.2-6.8,2.3-14.6,3.4-23.1c0.5,0.1,0.9,0.2,1.4,0.2
			s0.9-0.1,1.4-0.2c2.4,5.3,5.1,10.5,7.7,15.8C78.8,16.3,81.6,11.1,84.2,5.3"/>
		<path class="st2" d="M97,21.3c-0.9,2.6-2.1,4.7-2.8,7c-0.5,0-1-0.1-1.6-0.1s-1.1,0.1-1.6,0.1L100.7,5c0.4,0.1,0.8,0.1,1.3,0.1
			s0.8,0,1.3-0.1l9.4,23.4c-1-0.1-1.9-0.2-2.9-0.2s-1.9,0.1-2.9,0.2c-0.8-2.5-4.7-14.7-5.6-16.9C101.2,11.5,97,21.3,97,21.3z"/>
		<path class="st2" d="M158.7,21.3c-0.9,2.6-2.1,4.7-2.8,7c-0.5,0-1.1-0.1-1.6-0.1s-1.1,0.1-1.6,0.1L162.4,5
			c0.4,0.1,0.8,0.1,1.3,0.1s0.8,0,1.3-0.1l9.4,23.4c-1-0.1-1.9-0.2-2.9-0.2s-1.9,0.1-2.9,0.2c-0.8-2.5-4.7-14.7-5.6-16.9L158.7,21.3
			L158.7,21.3z"/>
		<path class="st2" d="M132.5,27.3c-3,0.9-6,1.5-9,1.5c-7.1,0-13.4-3.6-13.4-11.5c0-8.4,6.1-12.6,13.9-12.6c2.9,0,5.6,0.6,8.1,2
			c-0.5,1.1-0.8,2.2-0.9,3.4h-0.5c-1.6-2.2-4-3.4-6.6-3.4c-5.6,0-8.4,5.1-8.4,10.7s3,9.3,8.1,9.3c1.7,0,2.9-0.5,3.7-0.9V18
			c0.8,0.1,1.7,0.2,2.5,0.2s1.7-0.1,2.5-0.2L132.5,27.3L132.5,27.3z"/>
		<path class="st2" d="M134.9,5.3h7.2c1.6,0,4-0.1,5.4,0.7c1.9,1,2.9,2.5,2.9,4.8c0,3.3-2.1,5.4-5.2,6.1c1.9,3.2,3.9,6.3,6,9.4
			l1.3,2.1c-1-0.1-2-0.2-3.1-0.2s-2,0.1-3,0.2l-4-7.1c-0.5-0.9-1.4-2.5-2.2-3.7h-0.2v10.8c-0.9-0.1-1.7-0.2-2.5-0.2
			s-1.7,0.1-2.5,0.2L134.9,5.3L134.9,5.3z M139.9,16.1c3.5,0.3,5.3-1.3,5.3-4.8c0-0.5,0-1-0.2-1.7c-0.6-2.8-3.1-2.5-5.1-2.5
			L139.9,16.1L139.9,16.1z"/>
		<path class="st2" d="M174.6,5.3h8.7c3.4,0,6.7,1.2,6.7,5.1c0,3.2-2.7,5-5.5,5.4v0.3c2.5,0.2,6.1,1.4,6.1,5.5
			c0,4.6-4.2,6.6-8.1,6.6h-7.8L174.6,5.3L174.6,5.3z M179.6,15.2c1.5,0,2.7,0.1,3.9-0.9c1.1-0.9,1.5-2.2,1.5-3.5
			c0-2.4-1.4-3.7-3.6-3.7c-0.5,0-1,0-1.7,0.1V15.2z M179.6,26.3h1.7c1.9,0,4-1.6,4-4.4c0-3.7-2.1-5-5.6-4.7L179.6,26.3L179.6,26.3z"
			/>
		<path class="st2" d="M191.9,5.3c0.8,0.1,1.7,0.2,2.5,0.2s1.7-0.1,2.5-0.2v23.1c-0.8-0.1-1.7-0.2-2.5-0.2s-1.7,0.1-2.5,0.2V5.3z"/>
	</g>
</g>
</svg>
