<?xml version="1.0" encoding="UTF-8"?>
<svg id="Layer_2" data-name="Layer 2" xmlns="http://www.w3.org/2000/svg" width="552.21" height="536" xmlns:xlink="http://www.w3.org/1999/xlink" viewBox="0 0 552.21 536">
  <defs>
    <style>
      .cls-1 {
        fill: #e0e3e5;
      }

      .cls-1, .cls-2, .cls-3, .cls-4 {
        stroke-width: 0px;
      }

      .cls-2 {
        fill: url(#linear-gradient);
      }

      .cls-3 {
        fill: #98a6ad;
      }

      .cls-5 {
        fill: none;
        isolation: isolate;
        opacity: .19;
        stroke: #6c757d;
        stroke-dasharray: 0 0 0 0 0 0 35.21 35.21;
        stroke-miterlimit: 10;
        stroke-width: 2.91px;
      }

      .cls-6 {
        opacity: .3;
      }

      .cls-4 {
        fill: #fff;
      }
    </style>
    <linearGradient id="linear-gradient" x1="-174.67" y1="87.31" x2="328.63" y2="87.31" gradientTransform="translate(189.09 191) rotate(90) scale(1 -1)" gradientUnits="userSpaceOnUse">
      <stop offset="0" stop-color="#6c757d"/>
      <stop offset="1" stop-color="#6c757d" stop-opacity=".3"/>
    </linearGradient>
  </defs>
  <g id="Layer_2-2" data-name="Layer 2">
    <g id="Layer_1-2" data-name="Layer 1-2">
      <g>
        <path class="cls-4" d="m0,0v536h552V0H0Zm276.4,495.23c-125.51,0-227.25-101.75-227.25-227.25S150.89,40.72,276.4,40.72s227.25,101.75,227.25,227.25-101.75,227.25-227.25,227.25h0Z"/>
        <path class="cls-2" d="m24.75,267.98h7.7c0,134.51,109.43,243.95,243.95,243.95s243.95-109.43,243.95-243.95S410.91,24.03,276.4,24.03v-7.7c138.76,0,251.65,112.89,251.65,251.65s-112.89,251.65-251.65,251.65S24.75,406.74,24.75,267.98Z"/>
        <circle class="cls-5" cx="276.4" cy="267.99" r="227.25"/>
        <g>
          <g>
            <polygon class="cls-1" points="57.87 .03 11.11 .03 .6 .03 .6 10.54 .6 57.31 11.11 57.31 11.11 10.54 57.87 10.54 57.87 .03"/>
            <polygon class="cls-1" points="494.93 .03 541.7 .03 552.21 .03 552.21 10.54 552.21 57.31 541.7 57.31 541.7 10.54 494.93 10.54 494.93 .03"/>
          </g>
          <g>
            <polygon class="cls-1" points="494.93 535.93 541.7 535.93 552.21 535.93 552.21 525.42 552.21 478.65 541.7 478.65 541.7 525.42 494.93 525.42 494.93 535.93"/>
            <polygon class="cls-1" points="57.87 535.93 11.11 535.93 .6 535.93 .6 525.42 .6 478.65 11.11 478.65 11.11 525.42 57.87 525.42 57.87 535.93"/>
          </g>
        </g>
        <g class="cls-6">
          <g>
            <path class="cls-3" d="m159.5,246.31c1.14,2.93,3.75,5.04,6.85,5.54.07,0,.14.02.21.03,6.83,1.09,12.21-5.76,9.52-12.13-1.13-2.68-2.04-5.02-2.33-6.26-2.19-9.06-.47-12.51,7.66-15.32,4.29-1.48,6.85-5.94,5.79-10.36-3.22-13.37-4.42-27.29-3.56-41.37,1.57-25.71,9.42-44.35,24.74-58.65,11.08-10.35,25.02-17.02,43.88-21.02,9.57-2.03,18.77-3.04,27.67-3.04,13.21,0,25.76,2.24,37.93,6.73,31.21,11.52,48.22,34.15,52,69.19,1.81,16.73-.16,33.17-2.55,48.43-.55,3.5,1.04,7.01,4.08,8.84,9.13,5.48,10.4,8.88,7.14,19.16-.62,1.95-1.86,4.75-3.3,7.72-3.07,6.34,2.1,13.56,9.08,12.68l.22-.03c3.09-.39,5.72-2.39,6.98-5.23,1.33-3.01,2.56-6.28,3.69-9.85,5.06-15.96,2.16-27.04-9.78-36.07,2.09-14.43,3.63-30.88,1.83-47.53-4.5-41.7-25.81-69.87-63.33-83.72-23.22-8.57-48.55-10.04-75.27-4.38-21.8,4.62-38.87,12.91-52.19,25.34-18.53,17.3-28.43,40.32-30.25,70.36-.81,13.35.02,26.58,2.49,39.45-9.02,5.23-16.23,14.9-11.91,32.77.69,2.85,1.61,5.76,2.75,8.71h-.04Z"/>
            <path class="cls-3" d="m356.87,398.83c-9.46-9.46-14.67-22.03-14.67-35.41v-29.38h0c9.32-9.6,17.5-21.08,24.99-35.06h-20.14c-7.86,12.94-16.51,23.12-26.56,31.29-27.51,22.38-59.35,22.41-87.34.07-10.23-8.16-18.82-18.08-26.95-31.36h-20.19c7.45,13.66,17.29,28.26,31.04,40.61v23.83c0,13.38-5.21,25.95-14.67,35.41l-35.74,35.74c-3.41,3.41-3.41,8.95,0,12.37,3.42,3.41,8.95,3.41,12.37,0l35.74-35.74c12.76-12.76,19.79-29.73,19.79-47.77v-10.94c13.69,8.07,28.07,12.12,42.43,12.11,16.32,0,32.61-5.23,47.74-15.65h0v14.48c0,18.05,7.03,35.01,19.79,47.77l35.74,35.74c1.71,1.71,3.94,2.56,6.18,2.56s4.48-.85,6.18-2.56c3.41-3.41,3.41-8.95,0-12.36l-35.74-35.74h.01Z"/>
          </g>
          <path class="cls-3" d="m385.4,205.3c2.09-14.43,3.63-30.88,1.83-47.53-4.5-41.7-25.81-69.87-63.33-83.72-6.79-2.51-13.77-4.4-20.9-5.68-4.49-.81-8.84,1.97-9.96,6.39l-.04.17c-1.23,4.86,1.96,9.69,6.89,10.6,6.1,1.12,12.07,2.76,17.96,4.93,31.21,11.52,48.22,34.15,52,69.19,1.81,16.73-.16,33.17-2.55,48.43-.55,3.5,1.04,7.01,4.08,8.84,9.13,5.48,10.4,8.88,7.14,19.16-1.89,5.94-4,10.72-6.46,14.61-5,7.9-8.83,16.18-12.53,24.18-1.01,2.19-2.02,4.38-3.06,6.56-10.33,21.76-21.76,37.27-35.96,48.83-10.37,8.44-21.36,13.7-32.53,15.78-4.59.86-7.73,5.13-7.07,9.75,0,.06.02.12.02.17.7,4.93,5.4,8.2,10.29,7.28,11.48-2.15,22.78-6.92,33.5-14.31v14.48c0,18.05,7.03,35.01,19.79,47.77l35.74,35.74c1.71,1.71,3.94,2.56,6.18,2.56,2.43,0,4.86-1.01,6.61-3.02,3.04-3.5,2.67-8.82-.61-12.1l-35.55-35.55c-9.46-9.46-14.67-22.03-14.67-35.41v-29.38h0c11.46-11.8,21.19-26.44,30.06-45.1,1.06-2.24,2.1-4.48,3.14-6.72,3.62-7.84,7.05-15.24,11.43-22.17,3.27-5.17,6.01-11.28,8.35-18.68,5.07-15.96,2.16-27.04-9.78-36.07v.02Z"/>
          <path class="cls-3" d="m157.85,241.38c2.35,7.39,5.08,13.5,8.35,18.68,4.38,6.92,7.81,14.33,11.43,22.17,1.04,2.24,2.07,4.49,3.14,6.72,2.17,4.57,4.39,8.89,6.68,12.99h20.34c-3.92-6.14-7.64-12.94-11.23-20.5-1.04-2.18-2.05-4.37-3.06-6.56-3.7-8.01-7.53-16.29-12.53-24.18-2.46-3.89-4.57-8.67-6.46-14.61-.64-2.01-1.1-3.76-1.37-5.31h-17.54c.29,3.28,1.04,6.81,2.24,10.61h0Z"/>
        </g>
      </g>
    </g>
  </g>
</svg>