<?xml version="1.0" encoding="UTF-8"?>
<svg id="Layer_2" data-name="Layer 2" xmlns="http://www.w3.org/2000/svg" width="500" height="397.5" viewBox="0 0 500 397.5">
  <defs>
    <style>
      .cls-1 {
        fill: #407bff;
      }

      .cls-1, .cls-2, .cls-3, .cls-4, .cls-5, .cls-6, .cls-7, .cls-8, .cls-9, .cls-10, .cls-11, .cls-12, .cls-13 {
        stroke-width: 0px;
      }

      .cls-2 {
        fill: #ff8b7b;
      }

      .cls-3 {
        opacity: .3;
      }

      .cls-4 {
        fill: #e0e0e0;
      }

      .cls-5 {
        fill: #ff5652;
      }

      .cls-6 {
        fill: #f5f5f5;
      }

      .cls-7 {
        fill: #f0f0f0;
      }

      .cls-8, .cls-13 {
        opacity: .2;
      }

      .cls-9, .cls-13 {
        fill: #fff;
      }

      .cls-10 {
        fill: #fafafa;
      }

      .cls-11 {
        fill: #263238;
      }

      .cls-12 {
        fill: #ebebeb;
      }
    </style>
  </defs>
  <g id="Background_Complete" data-name="Background Complete">
    <g>
      <rect class="cls-12" y="352.34" width="500" height=".25"/>
      <rect class="cls-12" x="78.54" y="360.73" width="33.12" height=".25"/>
      <rect class="cls-12" x="133.33" y="367.94" width="30.17" height=".25"/>
      <rect class="cls-12" x="56.85" y="370.02" width="38.25" height=".25"/>
      <rect class="cls-12" x="434" y="369.47" width="15.9" height=".25"/>
      <rect class="cls-12" x="391.47" y="369.47" width="39.32" height=".25"/>
      <rect class="cls-12" x="250" y="360.6" width="30.33" height=".25"/>
      <rect class="cls-12" x="284.67" y="360.6" width="72.1" height=".25"/>
      <path class="cls-12" d="m237.01,307.74H43.91c-3.15,0-5.71-2.56-5.71-5.71V30.6c0-3.15,2.56-5.71,5.71-5.71h193.1c3.15,0,5.71,2.56,5.71,5.71v271.43c0,3.15-2.56,5.71-5.71,5.71ZM43.91,25.14c-3.01,0-5.46,2.45-5.46,5.46v271.43c0,3.01,2.45,5.46,5.46,5.46h193.1c3.01,0,5.46-2.45,5.46-5.46V30.6c0-3.01-2.45-5.46-5.46-5.46H43.91Z"/>
      <path class="cls-12" d="m453.31,307.74h-193.1c-3.15,0-5.71-2.56-5.71-5.71V30.6c0-3.15,2.56-5.71,5.71-5.71h193.1c3.15,0,5.71,2.56,5.71,5.71v271.43c0,3.15-2.56,5.71-5.71,5.71ZM260.21,25.14c-3.01,0-5.46,2.45-5.46,5.46v271.43c0,3.01,2.45,5.46,5.46,5.46h193.1c3.01,0,5.46-2.45,5.46-5.46V30.6c0-3.01-2.45-5.46-5.46-5.46h-193.1Z"/>
    </g>
    <g>
      <g>
        <rect class="cls-12" x="340.19" y="169.14" width="21.67" height="199.67" transform="translate(293.01 -169.43) rotate(45)"/>
        <polygon class="cls-4" points="361.93 273.39 346.61 258.07 325.72 278.95 339.77 301.36 361.93 273.39"/>
        <rect class="cls-4" x="357.63" y="179.36" width="7.22" height="199.67" transform="translate(419.25 732.04) rotate(-135)"/>
        <rect class="cls-12" x="340.19" y="174.25" width="21.67" height="199.67" transform="translate(-90.99 328.49) rotate(-45)"/>
        <rect class="cls-4" x="357.63" y="164.03" width="7.22" height="199.67" transform="translate(803.25 195.02) rotate(135)"/>
      </g>
      <g>
        <rect class="cls-12" x="106.86" y="209.76" width="16.87" height="155.4" transform="translate(237.03 2.67) rotate(45)"/>
        <polygon class="cls-4" points="123.78 290.9 111.85 278.97 95.6 295.23 106.53 312.66 123.78 290.9"/>
        <rect class="cls-4" x="120.43" y="217.71" width="5.62" height="155.4" transform="translate(1.5 591.44) rotate(-135)"/>
        <rect class="cls-12" x="106.86" y="213.74" width="16.87" height="155.4" transform="translate(-172.31 166.88) rotate(-45)"/>
        <rect class="cls-4" x="120.43" y="205.79" width="5.62" height="155.4" transform="translate(410.84 396.8) rotate(135)"/>
      </g>
      <g>
        <g>
          <rect class="cls-6" x="301.26" y="245.06" width="17.61" height="107.28"/>
          <polygon class="cls-12" points="318.87 289.64 301.26 289.64 301.26 302.5 318.87 298.7 318.87 289.64"/>
          <rect class="cls-12" x="318.87" y="245.06" width="5.87" height="107.28" transform="translate(643.6 597.4) rotate(180)"/>
        </g>
        <g>
          <rect class="cls-6" x="116.79" y="245.06" width="17.61" height="107.28"/>
          <polygon class="cls-12" points="134.39 289.64 116.79 289.64 116.79 302.5 134.39 298.7 134.39 289.64"/>
          <rect class="cls-12" x="134.39" y="245.06" width="5.87" height="107.28" transform="translate(274.65 597.4) rotate(180)"/>
        </g>
        <g>
          <rect class="cls-6" x="103.36" y="260.78" width="224.75" height="33.02"/>
          <rect class="cls-12" x="328.11" y="260.78" width="3.3" height="33.02" transform="translate(659.52 554.57) rotate(180)"/>
        </g>
        <polygon class="cls-10" points="242.73 227.11 198.79 227.11 167.72 258.18 167.72 302.12 198.79 333.19 242.73 333.19 273.8 302.12 273.8 258.18 242.73 227.11"/>
        <polygon class="cls-4" points="240.72 231.96 200.8 231.96 172.57 260.19 172.57 300.12 200.8 328.34 240.72 328.34 268.95 300.12 268.95 260.19 240.72 231.96"/>
        <g>
          <path class="cls-9" d="m182.19,284.76l5.62-.5c.12,1.3.37,2.29.74,2.97.61,1.1,1.48,1.65,2.61,1.65.84,0,1.49-.28,1.95-.85.46-.56.69-1.22.69-1.96s-.22-1.34-.65-1.89c-.44-.56-1.44-1.08-3.03-1.58-2.59-.83-4.44-1.93-5.54-3.31-1.11-1.37-1.67-3.12-1.67-5.25,0-1.4.28-2.72.85-3.97.57-1.24,1.43-2.22,2.57-2.93,1.14-.71,2.71-1.07,4.7-1.07,2.44,0,4.31.65,5.59,1.94,1.28,1.29,2.05,3.35,2.29,6.17l-5.57.47c-.15-1.23-.46-2.12-.93-2.67-.47-.56-1.13-.83-1.96-.83-.69,0-1.2.21-1.55.62-.35.41-.52.92-.52,1.51,0,.43.14.82.43,1.17.28.36.94.69,1.98,1,2.58.79,4.43,1.59,5.55,2.4,1.12.81,1.93,1.82,2.44,3.02.51,1.2.76,2.54.76,4.03,0,1.75-.34,3.36-1.02,4.83-.68,1.47-1.63,2.59-2.84,3.35-1.22.76-2.75,1.14-4.6,1.14-3.25,0-5.5-.89-6.76-2.67-1.25-1.78-1.96-4.05-2.13-6.8Z"/>
          <path class="cls-9" d="m201.17,266.54h17.96v6.72h-6.03v20.5h-5.91v-20.5h-6.03v-6.72Z"/>
          <path class="cls-9" d="m220.14,280.17c0-4.44.87-7.9,2.61-10.38,1.74-2.48,4.16-3.71,7.26-3.71s5.63,1.22,7.36,3.65c1.72,2.43,2.58,5.84,2.58,10.22,0,3.18-.38,5.79-1.13,7.83-.75,2.04-1.84,3.62-3.26,4.75-1.42,1.13-3.19,1.7-5.31,1.7s-3.94-.49-5.35-1.47c-1.41-.98-2.56-2.53-3.44-4.64-.88-2.12-1.32-4.77-1.32-7.95Zm5.91.04c0,2.75.36,4.72,1.08,5.92.72,1.2,1.69,1.8,2.93,1.8s2.25-.59,2.95-1.76c.7-1.18,1.04-3.29,1.04-6.33,0-2.56-.36-4.44-1.09-5.62-.73-1.18-1.71-1.77-2.95-1.77s-2.15.6-2.87,1.8c-.72,1.2-1.08,3.19-1.08,5.96Z"/>
          <path class="cls-9" d="m243.11,266.54h9.82c2.14,0,3.74.72,4.81,2.17,1.06,1.45,1.6,3.51,1.6,6.18s-.58,4.9-1.74,6.44c-1.16,1.55-2.93,2.32-5.31,2.32h-3.23v10.1h-5.93v-27.22Zm5.93,11.61h1.45c1.14,0,1.94-.28,2.4-.85.46-.56.69-1.28.69-2.16s-.2-1.58-.6-2.17c-.4-.59-1.15-.89-2.26-.89h-1.68v6.07Z"/>
        </g>
      </g>
      <path class="cls-7" d="m411.35,72.69c-1.03,0-2.07.13-3.1.37,0,0,0,0-.01,0-1.32-2.95-4.25-4.87-8.2-4.87-2.9,0-5.86,1.03-8.44,2.74h0c-1.68-5.63-6.71-9.4-13.73-9.4-9.99,0-20.45,7.63-24.23,17.39-.88-.2-1.81-.31-2.81-.31-.31,0-.63.01-.94.03-8.62.57-7.97,13.57.67,13.57h61.4c2.15,0,4.2-1.01,5.47-2.75,1.06-1.46,1.89-3.07,2.39-4.76,1.96-6.63-1.83-12.01-8.46-12.01Z"/>
      <path class="cls-7" d="m171.36,15.07c-1.34-8.88-8.42-15.07-18.77-15.07-8.48,0-17.22,4.15-23.72,10.54,0,0,0,0,0,0-1.68-1.53-4.02-2.45-6.85-2.45-7.18,0-14.71,5.82-16.83,13-.33,1.13-.5,2.22-.53,3.26,0,0-.01,0-.02,0-.05.03-.1.07-.15.1-5.94,4.04-2.96,13.39,4.23,13.39h63.23c2.45,0,4.77-1.19,6.1-3.24.99-1.53,1.77-3.17,2.27-4.89,2.26-7.65-1.72-13.94-8.97-14.66Z"/>
      <path class="cls-6" d="m246.88,114.24c-1.84-12.21-11.58-20.72-25.81-20.72-11.66,0-23.67,5.71-32.62,14.5,0,0,0,0,0,0-2.31-2.11-5.53-3.36-9.42-3.36-9.87,0-20.23,8-23.14,17.87-.46,1.55-.68,3.05-.73,4.49,0,0-.01,0-.02.01-.07.05-.13.09-.2.14-8.18,5.56-4.12,18.4,5.77,18.4h83.32c6.91,0,13.15-4.43,15.15-11.05.01-.04.02-.08.04-.12,3.1-10.52-2.36-19.17-12.33-20.15Z"/>
    </g>
  </g>
  <g id="Shadow">
    <ellipse id="_Path_" data-name="&amp;lt;Path&amp;gt;" class="cls-6" cx="250" cy="386.18" rx="193.89" ry="11.32"/>
  </g>
  <g id="_4_1" data-name="4 1">
    <path class="cls-11" d="m128.74,98.86h-50.2v-22.66l50.2-59.67h24.02v60.96h12.45v21.38h-12.45v18.54h-24.02v-18.54Zm0-21.38v-31.21l-26.52,31.21h26.52Z"/>
    <path class="cls-11" d="m364.91,16.53v100.87h-27.87V51.3c-4.51,3.43-8.87,6.2-13.09,8.32-4.22,2.12-9.51,4.15-15.86,6.09v-22.6c9.38-3.02,16.66-6.65,21.85-10.89,5.19-4.24,9.25-9.47,12.18-15.69h22.8Z"/>
  </g>
  <g id="Character">
    <g>
      <g>
        <path class="cls-2" d="m311.82,143.13c-.44.79-.78,1.35-1.17,2.01-.38.63-.78,1.24-1.17,1.86-.79,1.22-1.62,2.41-2.47,3.59-1.71,2.34-3.53,4.62-5.51,6.8-1.97,2.19-4.08,4.29-6.41,6.26-2.31,1.97-4.83,3.82-7.67,5.38-.58.34-1.72.94-2.69,1.29-1,.38-2,.65-2.98.83-1.96.36-3.8.38-5.53.26-3.46-.24-6.49-1.14-9.34-2.16-2.83-1.08-5.47-2.35-7.98-3.8-2.53-1.46-4.85-2.99-7.2-4.86-1.51-1.2-1.76-3.4-.55-4.91.97-1.22,2.59-1.61,3.97-1.09l.19.07c4.74,1.8,9.8,3.52,14.53,4.41,2.36.47,4.69.66,6.66.56.98-.07,1.87-.22,2.55-.47.34-.12.65-.25.9-.39.28-.16.33-.22.9-.6,3.61-2.52,7.03-6.05,10.18-9.86,1.57-1.92,3.1-3.91,4.55-5.97.73-1.02,1.44-2.07,2.15-3.11l1.03-1.56.94-1.47.16-.25c2.08-3.25,6.41-4.2,9.67-2.12,3.13,2.01,4.11,6.1,2.33,9.31Z"/>
        <path class="cls-2" d="m256.74,155.4l-7.67-5.08-3.25,10.2s4.95,2.86,9.86-.5l1.06-4.62Z"/>
        <path class="cls-2" d="m242.03,151.85l-.6,3.24c-.22,1.18.26,2.38,1.22,3.09l3.17,2.34,3.25-10.2-3.08-.91c-1.78-.52-3.62.61-3.96,2.43Z"/>
        <g>
          <path class="cls-1" d="m312.06,126.88c-7.81,1.24-15.71,10.41-20.46,18.95,5.22,9.09,13.53,12.42,13.53,12.42,0,0,9.26-8.76,13.01-15.23,3.75-6.47,1.26-17.3-6.09-16.14Z"/>
          <path class="cls-8" d="m312.06,126.88c-7.81,1.24-15.71,10.41-20.46,18.95,5.22,9.09,13.53,12.42,13.53,12.42,0,0,9.26-8.76,13.01-15.23,3.75-6.47,1.26-17.3-6.09-16.14Z"/>
        </g>
        <path class="cls-11" d="m291.9,143.87s-1.47,1.72-1.67,2.79c1.95,3,6.58,11.03,15.22,12.71,1.47-.89,1.8-2.13,1.8-2.13,0,0-9.94-4.91-15.35-13.36Z"/>
        <path class="cls-1" d="m343.53,126.61c-9.2-1.49-19.78-1.94-28.57-.82-7.1.91-12.41,7.44-12.35,14.59.05,6.26.48,13.99,1.97,22.24-2.61,13.76-3.55,32.44-.8,36.56,0,0,49.2.7,49.2.7,2.1-5.89-.54-31.33,2.27-57.9.78-7.43-4.34-14.18-11.72-15.38Z"/>
        <path class="cls-8" d="m324.96,199.25c-2.81-22.13-.03-59.14,0-59.51l1,.08c-.03.37-2.8,37.28,0,59.31l-.99.12Z"/>
        <path class="cls-11" d="m319.65,126.48c1.69-.63,1.06-1.57,1.06-1.57,0,0-7.68,0-12.99,1.43-.81.86.06,1.96.06,1.96,0,0,6.84.06,11.87-1.82Z"/>
        <path class="cls-8" d="m322.79,124.94s-3.17,5.86,1.07,11.19c-3.36.02-5.53,5.73-5.53,5.73,0,0-6.56-9.12,1.83-16.41.47-.72,2.62-.51,2.62-.51Z"/>
        <path class="cls-9" d="m319.4,127.78c-.82,3.58,6.38,10.33,6.38,10.33,0,0,12.75-6.16,13.56-9.69l-19.94-.64Z"/>
        <path class="cls-8" d="m348.18,148.73c-1.36,2.62.45,14.03,5.7,18.81.06-4.7.2-9.69.5-14.82l-6.2-3.99Z"/>
        <path class="cls-2" d="m336.69,107.19l-13.16,8.64c1.56,3.83,2.29,7.81-2.21,9.64-2.61,1.06-2.65,4.77-.03,5.79,1.06.41,2.41.72,4.12.87,4.53.42,9.27-.43,12.38-1.97,1.75-.87,2.25-3.06,1.13-4.66-3.42-4.93-3-13.4-2.24-18.31Z"/>
        <path class="cls-8" d="m331.33,110.71l-7.79,5.11c.45,1.09.82,2.18,1.02,3.24,3.11-.18,7.16-2.64,7.25-5.21.04-1.28-.15-2.52-.47-3.14Z"/>
        <g>
          <path class="cls-11" d="m322.08,90.71c3.36-.07,4.27,4.74,3.04,6.37,2.54.55,3.76,3.52,3.03,5.03-.73,1.51-3.7,3.15-6.33,2.49-4.49-1.13-5.26-4.85-4.04-6.55-2.44-2.01-1.22-8.08,4.29-7.34Z"/>
          <path class="cls-13" d="m322.08,90.71c3.36-.07,4.27,4.74,3.04,6.37,2.54.55,3.76,3.52,3.03,5.03-.73,1.51-3.7,3.15-6.33,2.49-4.49-1.13-5.26-4.85-4.04-6.55-2.44-2.01-1.22-8.08,4.29-7.34Z"/>
        </g>
        <path class="cls-2" d="m340.96,98.64c-1.01,7.89-1.19,12.57-5.47,16.34-6.43,5.67-15.99,1.31-17.36-6.74-1.24-7.25.61-18.94,8.59-21.52,7.86-2.54,15.25,4.03,14.24,11.92Z"/>
        <g>
          <path class="cls-11" d="m340.05,104.68c-3.36-.05-4.1-4.89-2.81-6.47-2.52-.64-3.64-3.65-2.86-5.13s3.81-3.02,6.41-2.27c4.44,1.28,5.09,5.04,3.8,6.69,2.37,2.1.93,8.12-4.55,7.18Z"/>
          <path class="cls-13" d="m340.05,104.68c-3.36-.05-4.1-4.89-2.81-6.47-2.52-.64-3.64-3.65-2.86-5.13s3.81-3.02,6.41-2.27c4.44,1.28,5.09,5.04,3.8,6.69,2.37,2.1.93,8.12-4.55,7.18Z"/>
        </g>
        <path class="cls-8" d="m332,99.9s1.41-.4,2.41.31c-1.34.09-2.41-.31-2.41-.31Z"/>
        <path class="cls-8" d="m331.96,100.48s1.34-.09,2.05.82c-1.2-.2-2.05-.82-2.05-.82Z"/>
        <path class="cls-8" d="m319.47,99.33s-.64-.4-1.1.31c.61.09,1.1-.31,1.1-.31Z"/>
        <path class="cls-8" d="m319.48,99.91s-.61-.09-.93.82c.55-.2.93-.82.93-.82Z"/>
        <path class="cls-2" d="m343.38,106.68c-1.05,1.85-2.71,3.04-4.23,3.48-2.28.66-3.18-1.61-2.36-3.98.74-2.13,2.82-5.05,5.01-4.66,2.16.38,2.78,3.05,1.58,5.16Z"/>
        <path class="cls-11" d="m330.4,99.96c-.04.65-.42,1.14-.84,1.11s-.73-.58-.69-1.23c.04-.65.42-1.14.84-1.11.42.03.73.58.69,1.23Z"/>
        <path class="cls-11" d="m327.2,111.69c-.83.16-1.57-.16-1.67-.7-.1-.54.49-1.11,1.32-1.26.83-.16,1.57.16,1.67.7s-.49,1.11-1.32,1.26Z"/>
        <path class="cls-11" d="m321.65,99.25c-.04.65-.42,1.14-.84,1.11-.42-.03-.73-.58-.69-1.23.04-.65.42-1.14.84-1.11s.73.58.69,1.23Z"/>
        <g>
          <path class="cls-11" d="m323.64,105.69c-4.68.32-5.58,2.6-4.76,3.6.82,1,2.82.02,2.82.02,0,0,3.78.81,4.9-.4,1.79.76,4.51-.66,3.75-1.74s-2.7-1.76-6.71-1.48Z"/>
          <path class="cls-13" d="m323.64,105.69c-4.68.32-5.58,2.6-4.76,3.6.82,1,2.82.02,2.82.02,0,0,3.78.81,4.9-.4,1.79.76,4.51-.66,3.75-1.74s-2.7-1.76-6.71-1.48Z"/>
        </g>
        <path class="cls-5" d="m323.78,99.91s-1.71,3.62-3.45,5.29c1.07,1.15,3.05.81,3.05.81l.4-6.1Z"/>
        <path class="cls-11" d="m331.81,96.58c.06,0,.13-.02.18-.06.18-.11.22-.35.11-.53-1.16-1.77-2.91-1.79-2.99-1.79-.21,0-.38.17-.38.38,0,.21.17.38.38.38h0c.06,0,1.43.04,2.35,1.45.08.12.21.18.34.17Z"/>
        <path class="cls-11" d="m318.78,95.83c.12,0,.24-.06.32-.17.93-1.39,2.3-1.39,2.36-1.39.21,0,.38-.17.38-.37,0-.21-.17-.38-.37-.39-.08,0-1.83-.02-3,1.72-.12.17-.07.41.1.53.06.04.14.07.21.07Z"/>
        <g>
          <path class="cls-11" d="m331.69,280.74c2.24-36.08,1.74-73.1-2.15-81.16l-25.75-.39s3.19,60.33,4.2,84.36c1.05,24.99,3.28,89.96,3.28,89.96l14.9.18s8.76-65.04,5.51-92.95Z"/>
          <path class="cls-8" d="m332.8,225.59c-8.79,9.6-4.68,36.18-.85,50.82,1.02-18.31,1.33-36.54.85-50.82Z"/>
          <path class="cls-11" d="m325.97,375.6l-13.11-.17c-.8-.01-1.66.17-2.32.69-3.79,2.99-6.69,3.09-11,3.86-5.17.93-2.61,6.12,1.2,6.18,6.3.1,5.78-.13,11.15-.05,1.21.02,3.73.05,3.73.05l1.68-1.71,1.48,1.71h6.88c.76,0,1.36-.63,1.28-1.38l-.98-9.18Z"/>
          <path class="cls-1" d="m327.03,376.9c-.23-.04-17.19-.54-17.19-.54l-.69-6.08,18.81.42-.92,6.21Z"/>
        </g>
        <g>
          <path class="cls-11" d="m361.93,280.74c-2.76-36.08-3.93-72.8-8.94-80.86l-31.06-.4s12.35,60.03,16.69,84.06c4.51,24.99,16.65,89.96,16.65,89.96l14.92.18s-1.16-65.04-8.27-92.95Z"/>
          <path class="cls-11" d="m370.93,375.6l-13.11-.17c-.8-.01-1.66.17-2.32.69-3.79,2.99-2.06,3.09-6.37,3.86-5.17.93-2.61,6.12,1.2,6.18,6.3.1,5.78-.13,11.15-.05,1.21.02,5.83.05,5.83.05l.78-1.71,1.03,1.71h1.54c.75,0,1.33-.65,1.25-1.39l-.98-9.18Z"/>
          <path class="cls-1" d="m371.92,376.9c-.24-.04-17.27-.54-17.27-.54l-1.61-6.08,18.87.42v6.21Z"/>
        </g>
        <path class="cls-1" d="m323.31,124.24s-3.69,6.57.55,11.9c-3.36.02-5.56,3.64-5.56,3.64,0,0-4.47-8.98,2.13-14.96.47-.72,2.88-.58,2.88-.58Z"/>
        <g>
          <path class="cls-11" d="m354.33,202.63c-17.57.73-37.73.95-50.33,0-.14-.01-.27-.08-.35-.19-.79-1.12-1.18-3.04-1.09-4.64.01-.25.23-.43.48-.42,16.63.45,33.16.42,50.54,0,.2,0,.38.11.45.29.56,1.41.85,2.93.75,4.54-.02.24-.21.43-.45.43Z"/>
          <path class="cls-8" d="m354.33,202.63c-17.57.73-37.73.95-50.33,0-.14-.01-.27-.08-.35-.19-.79-1.12-1.18-3.04-1.09-4.64.01-.25.23-.43.48-.42,16.63.45,33.16.42,50.54,0,.2,0,.38.11.45.29.56,1.41.85,2.93.75,4.54-.02.24-.21.43-.45.43Z"/>
        </g>
        <path class="cls-9" d="m320,197.08s-.38,4.03.53,6.59c3.81.59,11.64.15,11.64.15,0,0,.21-3.72-.25-6.64-6-.28-11.92-.09-11.92-.09Z"/>
        <g>
          <path class="cls-2" d="m355.13,136.67l.57.5.45.42.85.82c.55.54,1.06,1.09,1.56,1.64,1,1.09,1.95,2.21,2.85,3.35,1.8,2.28,3.47,4.63,4.96,7.07,1.5,2.43,2.91,4.91,4.14,7.47,1.28,2.53,2.4,5.13,3.4,7.77.26.7.47,1.13.86,2.35.32,1.04.52,2.05.63,3.01.22,1.94.13,3.7-.07,5.35-.4,3.31-1.35,6.17-2.39,8.91-1.09,2.72-2.34,5.27-3.75,7.7-1.42,2.45-2.89,4.73-4.67,7.03-1.18,1.53-3.38,1.8-4.91.62-1.22-.94-1.64-2.53-1.16-3.91l.06-.17c1.65-4.73,3.3-9.7,4.24-14.39.49-2.33.78-4.66.76-6.65-.01-.99-.13-1.89-.32-2.57-.22-.79-.27-.74-.97-2.17-2.24-4.44-4.7-8.74-7.48-12.76-1.37-2.02-2.84-3.96-4.34-5.83-.74-.94-1.53-1.83-2.29-2.71l-1.16-1.26-.56-.59-.26-.27c-.07-.07-.2-.19-.16-.17-2.92-2.54-3.22-6.96-.69-9.88,2.54-2.92,6.96-3.22,9.88-.69Z"/>
          <path class="cls-1" d="m346.51,128c7.79,1.35,15.56,10.63,20.18,19.25-5.35,9.02-13.71,12.22-13.71,12.22,0,0-9.13-8.9-12.79-15.42-3.66-6.53-1.01-17.32,6.32-16.05Z"/>
          <path class="cls-11" d="m366.42,145.28s1.45,1.75,1.63,2.81c-1.99,2.97-6.73,10.93-15.4,12.48-1.45-.91-1.77-2.16-1.77-2.16,0,0,10.01-4.76,15.55-13.14Z"/>
          <path class="cls-11" d="m340.87,127.31c-1.61-.69-.97-1.61-.97-1.61,0,0,7.41.26,12.48,1.87.75.89-.13,1.96-.13,1.96,0,0-6.6-.18-11.38-2.22Z"/>
          <path class="cls-8" d="m338.93,125.5s-1.68,5.86-9.36,10.64c3.36.02,5.61,6.13,5.61,6.13,0,0,6.96-8.22,5.38-16.33-.47-.72-1.63-.44-1.63-.44Z"/>
          <path class="cls-1" d="m338.71,124.44s-2,6.34-9.14,11.7c3.36.02,5.69,3.63,5.69,3.63,0,0,6.88-5.72,5.3-13.83-.47-.72-1.86-1.5-1.86-1.5Z"/>
          <path class="cls-9" d="m345.91,148.51c-.46,8.64-5.93,10.7-6.7,10.7s-6.01-2.06-5.55-10.7l6.25-2.46,5.99,2.46Z"/>
          <path class="cls-2" d="m359.37,196.04l-6.16,5.3,8.17,5.31s4.99-5.47,2.51-8.6l-4.52-2.01Z"/>
          <path class="cls-2" d="m352.52,209.75l3.18,1.38c1.26.55,2.74.1,3.49-1.06l2.2-3.42-8.17-5.31-2.14,4.65c-.66,1.43,0,3.13,1.44,3.76Z"/>
        </g>
        <g>
          <path class="cls-11" d="m317.7,89.08c-5.49.74-3.64,2.49,8.6,4.05,12.24,1.56,15.3.33,15.3.33,0,0-14.05-4.42-23.9-4.38Z"/>
          <path class="cls-1" d="m345.39,95.83s-10.75-4.37-27.69-6.76c-.21-2.49,1.84-5.13,1.84-5.13,0,0-3.78-1.9-2.6-5.51s6.57-3.13,12.88-6.03c2.31,2.54,8.66,6.67,12.99,7.2,1.07,2.21,3.87,7.73,8.41,9.87-.06,2.41-4.58,3.03-4.58,3.03,0,0,.21,1.62-1.25,3.32Z"/>
          <path class="cls-3" d="m346.64,92.51c-3.93-3.57-17.89-10.08-27.1-8.56,0,0-2.05,2.64-1.84,5.13,16.94,2.38,27.69,6.76,27.69,6.76,1.47-1.7,1.25-3.33,1.25-3.33Z"/>
          <path class="cls-9" d="m331.44,79.78c-1.21,6.16-5.41,7.27-5.98,7.21-.57-.05-4.19-1.88-2.99-8.05l4.83-1.34,4.14,2.17Z"/>
        </g>
      </g>
      <g>
        <path class="cls-11" d="m251.75,180.72c-1.25,0-2.32-.93-2.48-2.2l-7.14-58.2c-.17-1.37.81-2.62,2.18-2.79,1.37-.18,2.62.81,2.79,2.18l7.14,58.2c.17,1.37-.81,2.62-2.18,2.79-.1.01-.21.02-.31.02Z"/>
        <path class="cls-2" d="m250.16,154.55c-.6-2.24.54-2.58-.57-5.75-.59-1.69,1.35-2.99,1.59-1.64.89,4.95,7.47,7.72,5.19,10.84-2.32,3.18-5.61-1.21-6.21-3.45Z"/>
        <circle class="cls-1" cx="238.13" cy="67.18" r="56.71" transform="translate(156.18 300.64) rotate(-86.41)"/>
        <circle class="cls-9" cx="238.13" cy="67.18" r="45.8" transform="translate(95.28 269.19) rotate(-70.49)"/>
        <path class="cls-11" d="m267.87,59.43c-3.76-5.07-10.97,0-13.17,5.35-.58,1.42-1.15,3.24-1.16,4.15l-2.38-16.32-1.9-15.45c-.38-3.08-3.37-5.13-6.38-4.36-2.51.64-4.15,3.04-3.84,5.61l-.47-3.85c-.38-3.08-3.37-5.13-6.38-4.36-2.51.64-4.15,3.04-3.84,5.61l.66,5.37c-.38-3.08-3.37-5.13-6.38-4.36h0c-2.51.64-4.15,3.04-3.84,5.61l.82,6.69c-.38-3.08-3.37-5.13-6.38-4.36h0c-2.51.64-4.15,3.04-3.84,5.61l1.64,13.37,1.18,9.59,1.54,12.59c1.1,8.95,4.61,14.07,9.82,16.36,8.01,3.52,22.65,3.56,29.23-1.78,5.76-4.67,9.46-15.93,10.35-22.89.89-6.93,6.21-16.13,4.69-18.19Z"/>
        <rect class="cls-1" x="232.21" y="12.41" width="11.85" height="109.53" transform="translate(91.86 -132.39) rotate(38.01)"/>
      </g>
    </g>
  </g>
  <g id="Error_Unauthorized" data-name="Error Unauthorized">
    <g>
      <path class="cls-11" d="m80.44,150.02v-18.21h13.16v2.15h-10.76v5.58h10.07v2.14h-10.07v6.2h11.18v2.15h-13.59Z"/>
      <path class="cls-11" d="m97.05,150.02v-13.19h2.01v2c.51-.94.99-1.55,1.42-1.85.43-.3.91-.45,1.43-.45.75,0,1.52.24,2.3.72l-.77,2.07c-.55-.32-1.09-.48-1.64-.48-.49,0-.93.15-1.32.44-.39.29-.67.7-.83,1.22-.25.79-.37,1.66-.37,2.61v6.91h-2.24Z"/>
      <path class="cls-11" d="m105.52,150.02v-13.19h2.01v2c.51-.94.99-1.55,1.42-1.85.43-.3.91-.45,1.43-.45.75,0,1.52.24,2.3.72l-.77,2.07c-.55-.32-1.09-.48-1.64-.48-.49,0-.93.15-1.32.44-.39.29-.67.7-.83,1.22-.25.79-.37,1.66-.37,2.61v6.91h-2.24Z"/>
      <path class="cls-11" d="m113.18,143.43c0-2.44.68-4.25,2.04-5.43,1.13-.98,2.52-1.47,4.15-1.47,1.81,0,3.3.6,4.45,1.78,1.15,1.19,1.73,2.83,1.73,4.92,0,1.7-.25,3.03-.76,4.01-.51.97-1.25,1.73-2.22,2.27s-2.03.81-3.19.81c-1.85,0-3.34-.59-4.48-1.78-1.14-1.18-1.71-2.89-1.71-5.12Zm2.3,0c0,1.69.37,2.95,1.11,3.79.74.84,1.66,1.26,2.78,1.26s2.03-.42,2.77-1.27,1.11-2.13,1.11-3.86c0-1.63-.37-2.87-1.11-3.71-.74-.84-1.66-1.26-2.76-1.26s-2.05.42-2.78,1.25c-.74.84-1.11,2.1-1.11,3.79Z"/>
      <path class="cls-11" d="m128.13,150.02v-13.19h2.01v2c.51-.94.99-1.55,1.42-1.85.43-.3.91-.45,1.43-.45.75,0,1.52.24,2.3.72l-.77,2.07c-.55-.32-1.09-.48-1.64-.48-.49,0-.93.15-1.32.44-.39.29-.67.7-.83,1.22-.25.79-.37,1.66-.37,2.61v6.91h-2.24Z"/>
      <path class="cls-11" d="m88.75,172.63v-1.94c-1.03,1.49-2.42,2.24-4.19,2.24-.78,0-1.5-.15-2.18-.45-.67-.3-1.18-.67-1.5-1.12-.33-.45-.56-1-.69-1.66-.09-.44-.14-1.13-.14-2.09v-8.17h2.24v7.32c0,1.17.05,1.95.14,2.36.14.59.44,1.05.89,1.39.46.34,1.02.5,1.69.5s1.3-.17,1.89-.52c.59-.34,1-.81,1.25-1.4.24-.59.37-1.45.37-2.58v-7.07h2.24v13.19h-2Z"/>
      <path class="cls-11" d="m94.25,172.63v-13.19h2.01v1.88c.97-1.45,2.37-2.17,4.2-2.17.79,0,1.53.14,2.19.43.67.29,1.17.66,1.5,1.12s.56,1.01.7,1.65c.08.41.12,1.14.12,2.17v8.11h-2.24v-8.02c0-.91-.09-1.59-.26-2.04-.17-.45-.48-.81-.93-1.08-.44-.27-.96-.4-1.56-.4-.95,0-1.77.3-2.47.91-.69.6-1.04,1.75-1.04,3.44v7.2h-2.24Z"/>
      <path class="cls-11" d="m117.01,171c-.83.7-1.63,1.2-2.39,1.49s-1.59.44-2.47.44c-1.45,0-2.56-.35-3.34-1.06-.78-.71-1.17-1.61-1.17-2.71,0-.65.15-1.24.44-1.77s.68-.96,1.16-1.28c.48-.32,1.01-.57,1.61-.73.44-.12,1.1-.23,1.99-.34,1.8-.21,3.13-.47,3.99-.77,0-.31.01-.5.01-.58,0-.91-.21-1.55-.63-1.93-.57-.5-1.42-.76-2.55-.76-1.05,0-1.83.18-2.33.55-.5.37-.87,1.02-1.11,1.96l-2.19-.3c.2-.94.53-1.69.98-2.27.46-.58,1.11-1.02,1.97-1.33.86-.31,1.86-.47,2.99-.47s2.04.13,2.74.4c.7.27,1.22.6,1.55,1,.33.4.56.91.7,1.52.07.38.11,1.07.11,2.06v2.98c0,2.08.05,3.39.14,3.94.1.55.28,1.08.57,1.58h-2.33c-.23-.46-.38-1.01-.45-1.63Zm-.19-4.99c-.81.33-2.03.61-3.65.84-.92.13-1.57.28-1.95.45-.38.17-.67.41-.88.73-.21.32-.31.67-.31,1.06,0,.6.23,1.09.68,1.49.45.4,1.11.6,1.98.6s1.63-.19,2.3-.57c.67-.38,1.16-.89,1.48-1.55.24-.5.36-1.25.36-2.23v-.82Z"/>
      <path class="cls-11" d="m131.19,172.63v-1.94c-1.03,1.49-2.42,2.24-4.19,2.24-.78,0-1.5-.15-2.18-.45-.67-.3-1.18-.67-1.5-1.12-.33-.45-.56-1-.69-1.66-.09-.44-.14-1.13-.14-2.09v-8.17h2.24v7.32c0,1.17.05,1.95.14,2.36.14.59.44,1.05.89,1.39.46.34,1.02.5,1.69.5s1.3-.17,1.89-.52c.59-.34,1-.81,1.25-1.4.24-.59.37-1.45.37-2.58v-7.07h2.24v13.19h-2Z"/>
      <path class="cls-11" d="m141.57,170.63l.32,1.97c-.63.13-1.19.2-1.69.2-.81,0-1.44-.13-1.89-.38-.45-.26-.76-.59-.94-1.01-.18-.42-.27-1.3-.27-2.64v-7.59h-1.64v-1.74h1.64v-3.27l2.22-1.34v4.61h2.25v1.74h-2.25v7.71c0,.64.04,1.05.12,1.23.08.18.21.33.38.44s.43.16.76.16c.25,0,.58-.03.98-.09Z"/>
      <path class="cls-11" d="m143.76,172.63v-18.21h2.24v6.53c1.04-1.21,2.36-1.81,3.95-1.81.98,0,1.83.19,2.55.58.72.38,1.24.92,1.55,1.6.31.68.47,1.66.47,2.96v8.36h-2.24v-8.36c0-1.12-.24-1.93-.73-2.44-.48-.51-1.17-.76-2.06-.76-.66,0-1.29.17-1.87.52-.58.34-1,.81-1.25,1.4-.25.59-.37,1.4-.37,2.43v7.22h-2.24Z"/>
      <path class="cls-11" d="m157.07,166.03c0-2.44.68-4.25,2.04-5.43,1.13-.98,2.52-1.47,4.15-1.47,1.81,0,3.3.59,4.45,1.78,1.15,1.19,1.73,2.83,1.73,4.92,0,1.7-.25,3.03-.76,4.01-.51.97-1.25,1.73-2.22,2.27-.97.54-2.03.81-3.19.81-1.85,0-3.34-.59-4.48-1.78-1.14-1.18-1.71-2.89-1.71-5.12Zm2.3,0c0,1.69.37,2.95,1.11,3.79.74.84,1.66,1.26,2.78,1.26s2.03-.42,2.77-1.27,1.11-2.13,1.11-3.86c0-1.63-.37-2.87-1.11-3.71-.74-.84-1.66-1.26-2.76-1.26s-2.05.42-2.78,1.25c-.74.84-1.11,2.1-1.11,3.79Z"/>
      <path class="cls-11" d="m172.03,172.63v-13.19h2.01v2c.51-.94.99-1.55,1.42-1.85.43-.3.91-.45,1.43-.45.75,0,1.52.24,2.3.72l-.77,2.07c-.55-.32-1.09-.48-1.64-.48-.49,0-.93.15-1.32.44-.39.29-.67.7-.83,1.22-.25.79-.37,1.66-.37,2.61v6.91h-2.24Z"/>
      <path class="cls-11" d="m180.53,156.99v-2.57h2.24v2.57h-2.24Zm0,15.64v-13.19h2.24v13.19h-2.24Z"/>
      <path class="cls-11" d="m184.99,172.63v-1.81l8.4-9.64c-.95.05-1.79.07-2.52.07h-5.38v-1.81h10.78v1.48l-7.14,8.37-1.38,1.53c1-.07,1.94-.11,2.82-.11h6.1v1.92h-11.67Z"/>
      <path class="cls-11" d="m207.92,168.38l2.31.29c-.36,1.35-1.04,2.4-2.02,3.14-.99.75-2.24,1.12-3.78,1.12-1.93,0-3.46-.6-4.59-1.78-1.13-1.19-1.7-2.85-1.7-5s.57-3.94,1.71-5.17c1.14-1.23,2.62-1.84,4.45-1.84s3.2.6,4.32,1.8c1.12,1.2,1.68,2.89,1.68,5.07,0,.13,0,.33-.01.6h-9.84c.08,1.45.49,2.56,1.23,3.33.74.77,1.66,1.16,2.76,1.16.82,0,1.52-.22,2.1-.65.58-.43,1.04-1.12,1.38-2.06Zm-7.34-3.61h7.36c-.1-1.11-.38-1.94-.84-2.5-.71-.86-1.64-1.29-2.77-1.29-1.03,0-1.89.34-2.59,1.03-.7.69-1.09,1.61-1.16,2.76Z"/>
      <path class="cls-11" d="m221.59,172.63v-1.66c-.84,1.31-2.07,1.96-3.69,1.96-1.05,0-2.02-.29-2.9-.87-.88-.58-1.56-1.39-2.05-2.43-.48-1.04-.73-2.23-.73-3.58s.22-2.51.66-3.58c.44-1.07,1.1-1.89,1.97-2.47.88-.57,1.86-.86,2.94-.86.79,0,1.5.17,2.12.5.62.34,1.13.77,1.52,1.31v-6.53h2.22v18.21h-2.07Zm-7.07-6.58c0,1.69.36,2.95,1.07,3.79.71.84,1.55,1.25,2.52,1.25s1.81-.4,2.49-1.2c.68-.8,1.02-2.02,1.02-3.66,0-1.81-.35-3.13-1.04-3.97-.7-.85-1.55-1.27-2.57-1.27s-1.82.41-2.49,1.22c-.67.81-1,2.09-1,3.84Z"/>
    </g>
  </g>
</svg>